<svg width="318" height="101" viewBox="0 0 318 101" fill="none" xmlns="http://www.w3.org/2000/svg">
<g filter="url(#filter0_d_12_4)">
<rect width="312.306" height="94" rx="10" fill="#FFE600"/>
</g>
<path d="M61.0781 59.1953C60.349 59.1953 59.7174 58.9414 59.1836 58.4336C58.6628 57.9388 58.4023 57.3138 58.4023 56.5586V43.4141C58.4023 41.9427 58.6107 40.582 59.0273 39.332C59.457 38.082 60.0755 37.0013 60.8828 36.0898C61.7031 35.1654 62.6992 34.4557 63.8711 33.9609C65.043 33.4531 66.3581 33.1992 67.8164 33.1992C69.2878 33.1992 70.6159 33.4466 71.8008 33.9414C72.9987 34.4232 74.0208 35.1263 74.8672 36.0508C75.7005 36.9622 76.3385 38.0755 76.7812 39.3906C77.224 40.6927 77.4453 42.1445 77.4453 43.7461V56.5586C77.4453 57.2878 77.1849 57.9128 76.6641 58.4336C76.4167 58.668 76.1237 58.8568 75.7852 59C75.4596 59.1302 75.1211 59.1953 74.7695 59.1953C74.3919 59.1953 74.0404 59.1302 73.7148 59C73.3893 58.8568 73.1094 58.668 72.875 58.4336C72.3411 57.9258 72.0742 57.3008 72.0742 56.5586V52.4766H63.7539V56.5586C63.7539 57.3138 63.4935 57.9388 62.9727 58.4336C62.7253 58.668 62.4323 58.8568 62.0938 59C61.7682 59.1302 61.4297 59.1953 61.0781 59.1953ZM72.0742 47.1445V43.7461C72.0742 42.0794 71.7227 40.7969 71.0195 39.8984C70.3164 38.987 69.2878 38.5312 67.9336 38.5312C66.5664 38.5312 65.5247 38.9544 64.8086 39.8008C64.1055 40.6341 63.7539 41.9557 63.7539 43.7656V47.1445H72.0742ZM97.9727 65.0352C97.6211 65.0352 97.2891 64.9635 96.9766 64.8203C96.6641 64.6901 96.3906 64.5078 96.1562 64.2734C95.6615 63.7786 95.4141 63.1667 95.4141 62.4375V57.418C93.9948 58.3945 92.5104 58.8828 90.9609 58.8828C89.6458 58.8828 88.3958 58.6354 87.2109 58.1406C86.0391 57.6328 85.0039 56.9297 84.1055 56.0312C83.207 55.1328 82.5039 54.0977 81.9961 52.9258C81.5013 51.7409 81.2539 50.4844 81.2539 49.1562V42.0859C81.2539 41.7344 81.319 41.3958 81.4492 41.0703C81.5924 40.7318 81.7812 40.4453 82.0156 40.2109C82.5234 39.7031 83.1354 39.4492 83.8516 39.4492C84.2031 39.4492 84.5417 39.5208 84.8672 39.6641C85.1927 39.7943 85.4792 39.9766 85.7266 40.2109C85.9609 40.4453 86.1432 40.7318 86.2734 41.0703C86.4167 41.3958 86.4883 41.7344 86.4883 42.0859V49.1562C86.4883 49.7552 86.6055 50.3281 86.8398 50.875C87.0742 51.4089 87.3997 51.8841 87.8164 52.3008C88.2331 52.7174 88.7083 53.0495 89.2422 53.2969C89.7891 53.5312 90.362 53.6484 90.9609 53.6484C91.5339 53.6484 92.0938 53.5312 92.6406 53.2969C93.1875 53.0495 93.6693 52.7174 94.0859 52.3008C94.5026 51.8841 94.8281 51.4089 95.0625 50.875C95.2969 50.3281 95.4141 49.7552 95.4141 49.1562V42.0859C95.4141 41.7344 95.4792 41.3958 95.6094 41.0703C95.7526 40.7318 95.9414 40.4453 96.1758 40.2109C96.6836 39.7031 97.2956 39.4492 98.0117 39.4492C98.3633 39.4492 98.6953 39.5208 99.0078 39.6641C99.3333 39.7943 99.6198 39.9766 99.8672 40.2109C100.102 40.4453 100.29 40.7318 100.434 41.0703C100.577 41.3958 100.648 41.7344 100.648 42.0859V62.4375C100.648 62.7891 100.577 63.1211 100.434 63.4336C100.303 63.7461 100.115 64.026 99.8672 64.2734C99.6198 64.5078 99.3268 64.6901 98.9883 64.8203C98.6628 64.9635 98.3242 65.0352 97.9727 65.0352ZM112.25 59.2148C110.961 59.2148 109.737 58.974 108.578 58.4922C107.432 57.9974 106.417 57.3073 105.531 56.4219C104.646 55.5495 103.956 54.5339 103.461 53.375C102.966 52.2161 102.719 50.9922 102.719 49.7031C102.719 48.4141 102.966 47.1901 103.461 46.0312C103.956 44.8594 104.646 43.8307 105.531 42.9453C106.417 42.0599 107.432 41.3763 108.578 40.8945C109.737 40.3997 110.961 40.1523 112.25 40.1523C113.539 40.1523 114.763 40.3997 115.922 40.8945C117.094 41.3893 118.116 42.0729 118.988 42.9453C119.861 43.8307 120.544 44.8594 121.039 46.0312C121.534 47.1901 121.781 48.4141 121.781 49.7031C121.781 50.9922 121.534 52.2161 121.039 53.375C120.557 54.5208 119.874 55.5365 118.988 56.4219C118.116 57.2943 117.094 57.9779 115.922 58.4727C114.763 58.9674 113.539 59.2148 112.25 59.2148ZM112.25 54C112.836 54 113.396 53.8893 113.93 53.668C114.464 53.4466 114.926 53.1406 115.316 52.75C115.72 52.3464 116.033 51.8841 116.254 51.3633C116.475 50.8424 116.586 50.2891 116.586 49.7031C116.586 49.1172 116.475 48.5638 116.254 48.043C116.033 47.5221 115.72 47.0599 115.316 46.6562C114.926 46.2656 114.464 45.9596 113.93 45.7383C113.396 45.5169 112.836 45.4062 112.25 45.4062C111.677 45.4062 111.124 45.5169 110.59 45.7383C110.069 45.9596 109.613 46.2656 109.223 46.6562C108.819 47.0599 108.5 47.5221 108.266 48.043C108.044 48.5638 107.934 49.1172 107.934 49.7031C107.934 50.2891 108.044 50.8424 108.266 51.3633C108.5 51.8841 108.819 52.3464 109.223 52.75C109.613 53.1406 110.069 53.4466 110.59 53.668C111.124 53.8893 111.677 54 112.25 54ZM142.953 59.2148C141.664 59.2148 140.44 58.974 139.281 58.4922C138.122 57.9974 137.1 57.3073 136.215 56.4219C135.329 55.5495 134.639 54.5339 134.145 53.375C133.65 52.2161 133.402 50.9922 133.402 49.7031V35.8945C133.402 35.5169 133.467 35.1654 133.598 34.8398C133.741 34.5013 133.93 34.2083 134.164 33.9609C134.398 33.7266 134.678 33.5443 135.004 33.4141C135.329 33.2708 135.668 33.1992 136.02 33.1992C136.371 33.1992 136.71 33.2708 137.035 33.4141C137.361 33.5443 137.641 33.7266 137.875 33.9609C138.109 34.2083 138.285 34.5013 138.402 34.8398C138.533 35.1654 138.598 35.5169 138.598 35.8945V41.8906C139.001 41.4089 139.639 40.9987 140.512 40.6602C141.358 40.3216 142.172 40.1523 142.953 40.1523C144.229 40.1523 145.447 40.3997 146.605 40.8945C147.777 41.3893 148.799 42.0729 149.672 42.9453C150.544 43.8307 151.228 44.8594 151.723 46.0312C152.217 47.1901 152.465 48.4141 152.465 49.7031C152.465 50.9922 152.217 52.2161 151.723 53.375C151.241 54.5208 150.557 55.5365 149.672 56.4219C148.799 57.2943 147.777 57.9779 146.605 58.4727C145.447 58.9674 144.229 59.2148 142.953 59.2148ZM142.953 54C143.539 54 144.092 53.8893 144.613 53.668C145.147 53.4466 145.609 53.1406 146 52.75C146.404 52.3464 146.716 51.8841 146.938 51.3633C147.159 50.8424 147.27 50.2891 147.27 49.7031C147.27 49.1172 147.159 48.5638 146.938 48.043C146.716 47.5221 146.404 47.0599 146 46.6562C145.609 46.2656 145.147 45.9596 144.613 45.7383C144.092 45.5169 143.539 45.4062 142.953 45.4062C142.367 45.4062 141.807 45.5169 141.273 45.7383C140.753 45.9596 140.297 46.2656 139.906 46.6562C139.503 47.0599 139.184 47.5221 138.949 48.043C138.728 48.5638 138.617 49.1172 138.617 49.7031C138.617 50.2891 138.728 50.8424 138.949 51.3633C139.184 51.8841 139.503 52.3464 139.906 52.75C140.297 53.1406 140.753 53.4466 141.273 53.668C141.807 53.8893 142.367 54 142.953 54ZM163.812 59.2148C162.523 59.2148 161.293 58.9674 160.121 58.4727C158.949 57.9779 157.921 57.2943 157.035 56.4219C156.15 55.5365 155.453 54.5208 154.945 53.375C154.451 52.2161 154.203 50.9922 154.203 49.7031C154.203 48.401 154.451 47.1706 154.945 46.0117C155.453 44.8398 156.15 43.8112 157.035 42.9258C157.921 42.0534 158.943 41.3763 160.102 40.8945C161.273 40.3997 162.51 40.1523 163.812 40.1523C165.089 40.1523 166.306 40.3932 167.465 40.875C168.624 41.3568 169.646 42.0273 170.531 42.8867C171.404 43.7591 172.094 44.7747 172.602 45.9336C173.109 47.0794 173.376 48.2904 173.402 49.5664C173.402 50.3086 173.161 50.9076 172.68 51.3633C172.211 51.806 171.599 52.0273 170.844 52.0273H160.004C160.434 52.7044 160.98 53.2383 161.645 53.6289C162.309 54.0195 163.031 54.2148 163.812 54.2148C164.294 54.2148 164.691 54.1758 165.004 54.0977C165.316 54.0195 165.603 53.9023 165.863 53.7461C166.358 53.4336 166.859 53.2773 167.367 53.2773C168.07 53.2773 168.676 53.5443 169.184 54.0781C169.405 54.3255 169.581 54.612 169.711 54.9375C169.841 55.263 169.906 55.6016 169.906 55.9531C169.906 56.4089 169.776 56.832 169.516 57.2227C169.268 57.6133 168.897 57.9518 168.402 58.2383C167.27 58.8893 165.74 59.2148 163.812 59.2148ZM168.07 47.6914C167.706 46.8971 167.152 46.2721 166.41 45.8164C165.681 45.3477 164.848 45.1133 163.91 45.1133C162.973 45.1133 162.152 45.3477 161.449 45.8164C160.746 46.2852 160.212 46.9102 159.848 47.6914H168.07ZM183.598 59C182.699 59 181.84 58.8503 181.02 58.5508C180.212 58.2383 179.496 57.8021 178.871 57.2422C178.246 56.6693 177.758 55.9922 177.406 55.2109C177.055 54.4297 176.879 53.5833 176.879 52.6719V35.9922C176.879 35.263 177.126 34.651 177.621 34.1562C178.103 33.6484 178.689 33.3945 179.379 33.3945C179.73 33.3945 180.069 33.4661 180.395 33.6094C180.733 33.7396 181.026 33.9219 181.273 34.1562C181.521 34.4036 181.716 34.6836 181.859 34.9961C182.003 35.3086 182.074 35.6406 182.074 35.9922V52.7891C182.126 53.5312 182.634 53.9023 183.598 53.9023C183.962 53.9023 184.301 53.9674 184.613 54.0977C184.939 54.2279 185.212 54.4102 185.434 54.6445C185.668 54.8789 185.844 55.1523 185.961 55.4648C186.091 55.7773 186.156 56.1094 186.156 56.4609C186.156 56.8125 186.091 57.1445 185.961 57.457C185.844 57.7695 185.668 58.043 185.434 58.2773C185.212 58.4987 184.939 58.6745 184.613 58.8047C184.288 58.9349 183.949 59 183.598 59ZM197.016 59.2148C195.727 59.2148 194.503 58.974 193.344 58.4922C192.198 57.9974 191.182 57.3073 190.297 56.4219C189.411 55.5495 188.721 54.5339 188.227 53.375C187.732 52.2161 187.484 50.9922 187.484 49.7031C187.484 48.4141 187.732 47.1901 188.227 46.0312C188.721 44.8594 189.411 43.8307 190.297 42.9453C191.182 42.0599 192.198 41.3763 193.344 40.8945C194.503 40.3997 195.727 40.1523 197.016 40.1523C198.292 40.1523 199.503 40.3932 200.648 40.875C201.807 41.3568 202.823 42.0339 203.695 42.9062C204.568 43.7656 205.251 44.7682 205.746 45.9141C206.254 47.0599 206.521 48.2708 206.547 49.5469V56.5586C206.547 57.3008 206.293 57.9258 205.785 58.4336C205.538 58.681 205.251 58.8698 204.926 59C204.6 59.1432 204.255 59.2148 203.891 59.2148C203.409 59.2148 202.979 59.1107 202.602 58.9023C202.237 58.681 201.938 58.375 201.703 57.9844C200.232 58.8047 198.669 59.2148 197.016 59.2148ZM197.016 54C197.602 54 198.161 53.8893 198.695 53.668C199.229 53.4466 199.691 53.1406 200.082 52.75C200.486 52.3464 200.798 51.8841 201.02 51.3633C201.241 50.8424 201.352 50.2891 201.352 49.7031C201.352 49.1172 201.241 48.5638 201.02 48.043C200.798 47.5221 200.486 47.0599 200.082 46.6562C199.691 46.2656 199.229 45.9596 198.695 45.7383C198.161 45.5169 197.602 45.4062 197.016 45.4062C196.443 45.4062 195.889 45.5169 195.355 45.7383C194.835 45.9596 194.379 46.2656 193.988 46.6562C193.585 47.0599 193.266 47.5221 193.031 48.043C192.81 48.5638 192.699 49.1172 192.699 49.7031C192.699 50.2891 192.81 50.8424 193.031 51.3633C193.266 51.8841 193.585 52.3464 193.988 52.75C194.379 53.1406 194.835 53.4466 195.355 53.668C195.889 53.8893 196.443 54 197.016 54ZM213.48 38.6484C213.103 38.6484 212.745 38.5768 212.406 38.4336C212.081 38.2773 211.801 38.069 211.566 37.8086C211.046 37.2617 210.785 36.6107 210.785 35.8555C210.785 35.1003 211.065 34.4427 211.625 33.8828C212.159 33.349 212.81 33.082 213.578 33.082C213.956 33.082 214.307 33.1536 214.633 33.2969C214.971 33.4271 215.264 33.6224 215.512 33.8828C216.033 34.4427 216.293 35.1003 216.293 35.8555C216.293 36.6107 216.02 37.2617 215.473 37.8086C215.212 38.069 214.906 38.2773 214.555 38.4336C214.216 38.5768 213.858 38.6484 213.48 38.6484ZM209.359 64.8594C209.008 64.8594 208.676 64.7878 208.363 64.6445C208.051 64.5143 207.777 64.3255 207.543 64.0781C207.309 63.8438 207.126 63.5638 206.996 63.2383C206.853 62.9258 206.781 62.5938 206.781 62.2422C206.781 61.8906 206.853 61.5521 206.996 61.2266C207.126 60.901 207.309 60.6211 207.543 60.3867C207.777 60.1523 208.051 59.9635 208.363 59.8203C208.689 59.6901 209.021 59.625 209.359 59.625H209.438C209.841 59.599 210.186 59.4427 210.473 59.1562C210.759 58.8698 210.902 58.5182 210.902 58.1016V42.8086C210.902 42.457 210.967 42.1185 211.098 41.793C211.241 41.4674 211.436 41.181 211.684 40.9336C211.918 40.6992 212.191 40.5169 212.504 40.3867C212.829 40.2435 213.168 40.1719 213.52 40.1719C214.236 40.1719 214.848 40.4258 215.355 40.9336C215.85 41.4544 216.098 42.0794 216.098 42.8086V58.1016C216.098 59.026 215.922 59.8984 215.57 60.7188C215.232 61.5391 214.757 62.2617 214.145 62.8867C213.533 63.5117 212.816 63.9935 211.996 64.332C211.176 64.6836 210.31 64.8594 209.398 64.8594H209.359ZM229.086 59.2148C227.797 59.2148 226.573 58.974 225.414 58.4922C224.268 57.9974 223.253 57.3073 222.367 56.4219C221.482 55.5495 220.792 54.5339 220.297 53.375C219.802 52.2161 219.555 50.9922 219.555 49.7031C219.555 48.4141 219.802 47.1901 220.297 46.0312C220.792 44.8594 221.482 43.8307 222.367 42.9453C223.253 42.0599 224.268 41.3763 225.414 40.8945C226.573 40.3997 227.797 40.1523 229.086 40.1523C230.362 40.1523 231.573 40.3932 232.719 40.875C233.878 41.3568 234.893 42.0339 235.766 42.9062C236.638 43.7656 237.322 44.7682 237.816 45.9141C238.324 47.0599 238.591 48.2708 238.617 49.5469V56.5586C238.617 57.3008 238.363 57.9258 237.855 58.4336C237.608 58.681 237.322 58.8698 236.996 59C236.671 59.1432 236.326 59.2148 235.961 59.2148C235.479 59.2148 235.049 59.1107 234.672 58.9023C234.307 58.681 234.008 58.375 233.773 57.9844C232.302 58.8047 230.74 59.2148 229.086 59.2148ZM229.086 54C229.672 54 230.232 53.8893 230.766 53.668C231.299 53.4466 231.762 53.1406 232.152 52.75C232.556 52.3464 232.868 51.8841 233.09 51.3633C233.311 50.8424 233.422 50.2891 233.422 49.7031C233.422 49.1172 233.311 48.5638 233.09 48.043C232.868 47.5221 232.556 47.0599 232.152 46.6562C231.762 46.2656 231.299 45.9596 230.766 45.7383C230.232 45.5169 229.672 45.4062 229.086 45.4062C228.513 45.4062 227.96 45.5169 227.426 45.7383C226.905 45.9596 226.449 46.2656 226.059 46.6562C225.655 47.0599 225.336 47.5221 225.102 48.043C224.88 48.5638 224.77 49.1172 224.77 49.7031C224.77 50.2891 224.88 50.8424 225.102 51.3633C225.336 51.8841 225.655 52.3464 226.059 52.75C226.449 53.1406 226.905 53.4466 227.426 53.668C227.96 53.8893 228.513 54 229.086 54ZM244.77 59C244.418 59 244.079 58.9349 243.754 58.8047C243.428 58.6745 243.148 58.4922 242.914 58.2578C242.667 58.0234 242.471 57.75 242.328 57.4375C242.185 57.125 242.113 56.793 242.113 56.4414V49.8789C242.152 48.5768 242.432 47.3398 242.953 46.168C243.487 44.9831 244.21 43.9414 245.121 43.043C246.02 42.1576 247.055 41.4609 248.227 40.9531C249.411 40.4453 250.661 40.1784 251.977 40.1523H252.133C252.979 40.1523 253.637 40.3932 254.105 40.875C254.587 41.3438 254.828 41.9622 254.828 42.7305C254.828 43.4466 254.568 44.0651 254.047 44.5859C253.799 44.8203 253.507 45.0026 253.168 45.1328C252.842 45.263 252.497 45.3281 252.133 45.3281H252.016C251.378 45.3411 250.779 45.4714 250.219 45.7188C249.659 45.9661 249.164 46.3112 248.734 46.7539C248.292 47.1966 247.947 47.7044 247.699 48.2773C247.452 48.8503 247.322 49.4557 247.309 50.0938V56.4414C247.309 56.806 247.243 57.1445 247.113 57.457C246.983 57.7695 246.801 58.0365 246.566 58.2578C246.072 58.7526 245.473 59 244.77 59Z" fill="white"/>
<defs>
<filter id="filter0_d_12_4" x="0" y="0" width="317.606" height="100.3" filterUnits="userSpaceOnUse" color-interpolation-filters="sRGB">
<feFlood flood-opacity="0" result="BackgroundImageFix"/>
<feColorMatrix in="SourceAlpha" type="matrix" values="0 0 0 0 0 0 0 0 0 0 0 0 0 0 0 0 0 0 127 0" result="hardAlpha"/>
<feOffset dx="4" dy="5"/>
<feGaussianBlur stdDeviation="0.65"/>
<feComposite in2="hardAlpha" operator="out"/>
<feColorMatrix type="matrix" values="0 0 0 0 0.876923 0 0 0 0 0.790385 0 0 0 0 0 0 0 0 1 0"/>
<feBlend mode="normal" in2="BackgroundImageFix" result="effect1_dropShadow_12_4"/>
<feBlend mode="normal" in="SourceGraphic" in2="effect1_dropShadow_12_4" result="shape"/>
</filter>
</defs>
</svg>
