<svg width="234" height="243" viewBox="0 0 234 243" fill="none" xmlns="http://www.w3.org/2000/svg">
<rect width="234" height="243" rx="12" fill="#189FE3"/>
<rect x="13" y="13" width="207" height="202" rx="8" fill="white"/>
<ellipse cx="116" cy="229.5" rx="6" ry="6.5" fill="#444444"/>
<path d="M108.468 112.115C102.985 117.692 86.5872 118.112 81.2931 113.63L73.1755 89.4115L68.7448 47.1077L161.649 46.2227C169.253 98.6277 147.957 108.964 138.603 111.415C129.249 113.864 117.447 123.827 116.142 115.989C115.208 110.481 108.468 112.115 108.468 112.115Z" fill="#D86964"/>
<mask id="mask0_10_569" style="mask-type:luminance" maskUnits="userSpaceOnUse" x="59" y="38" width="116" height="117">
<path d="M59 38H174.373V155H59V38Z" fill="white"/>
</mask>
<g mask="url(#mask0_10_569)">
<path d="M68.4877 105.162C63.9158 103.645 61.9792 96.3183 65.1285 92.0721C60.7665 89.9473 57.9213 82.4342 63.1937 77.9546C57.619 75.2017 59.134 69.8352 62.7955 66.2877C58.3412 64.9592 57.9213 58.1683 61.5828 54.715C54.5856 44.449 67.0651 34.4147 74.9728 40.6916C77.818 37.4481 85.3292 37.0282 89.293 41.2056C91.3238 38.9649 96.502 37.1459 98.9273 42.2318C101.26 39.5947 108.163 38.8726 110.1 43.0481C111.615 40.2029 117.4 37.8445 120.247 42.7458C123.604 39.1984 129.997 38.288 134.451 42.2318C136.084 39.0825 141.566 37.8445 143.991 40.8092C149.075 35.8391 155.864 38.8726 158.009 40.5051C164.19 34.6246 176.693 41.0192 171.305 50.8652C176.786 54.8326 172.518 58.6824 170.395 59.4045C175.877 64.7945 172.331 68.9483 168.762 69.7646C169.975 72.3076 172.121 77.8858 167.853 80.3347C172.214 84.1844 169.486 90.6007 165.52 92.1174C167.759 102.058 165.917 105.931 158.406 107.448C160.225 114.144 151.502 117.201 144.598 116.081C142.172 124.295 132.118 121.775 128.457 117.107C128.666 118.322 127.85 121.681 125.821 122.195C128.247 125.438 128.362 130.104 124.399 132.251C130.58 137.525 125.611 142.005 122.976 147.185C120.339 152.365 118.404 155 116.515 154.79C114.625 154.58 114.951 152.551 114.554 149.914C114.158 147.277 111.615 143.102 109.284 140.16C106.951 137.221 105.318 132.251 109.494 128.588C104.922 124.318 106.25 116.595 108.887 112.137C111.523 107.681 124.514 103.107 130.299 108.287C131.629 105.652 136.598 103.715 140.143 105.138C141.052 97.835 145.32 96.9246 147.863 98.6277C147.957 95.0821 150.708 91.5111 155.886 92.1174C149.495 86.541 152.132 79.5184 155.374 77.0913C153.741 73.0316 151.524 67.5493 157.707 62.1593C156.073 61.1312 153.741 58.3077 155.584 53.2218C152.645 57.0715 146.138 59.5222 141.075 55.5548C137.11 61.4353 129.202 61.3412 124.118 58.6118C120.667 64.3982 112.945 64.3982 108.281 60.4326C105.132 63.162 99.0432 65.8226 92.6523 58.4959C89.503 61.2253 82.9021 60.1285 80.1727 54.9485C79.4741 55.6489 78.1438 56.4652 76.2089 55.5548C78.0279 56.8851 78.9365 61.9493 77.4216 64.1882C81.5736 69.2741 80.7809 74.2442 77.4216 77.9781C80.6632 82.0378 81.3872 85.8188 78.6343 90.0649C81.2695 92.7943 82.3899 97.578 79.6605 101.848C85.9591 107.938 85.0252 124.481 81.3872 124.481C72.1257 124.457 62.2833 111.252 68.4877 105.162Z" fill="#FD9490"/>
</g>
<path d="M121.761 85.3989C121.879 85.7012 121.74 86.0523 121.436 86.1681C121.365 86.1916 121.296 86.2152 121.202 86.2152C120.969 86.2152 120.759 86.074 120.666 85.8423C119.103 82.0378 116 79.1455 111.919 77.6741C107.696 76.1591 102.962 76.4379 99.2295 78.398C97.9245 79.9383 96.3843 81.0351 94.8458 81.4315C94.0983 81.6179 93.3997 81.712 92.7463 81.712C91.5336 81.712 90.4839 81.3844 89.5029 80.7546C88.4766 80.0777 87.5445 79.0044 86.6341 77.4876C86.4477 78.1646 86.2142 78.865 85.9355 79.5184C85.8414 79.7283 85.6314 79.8677 85.3979 79.8677C85.3291 79.8677 85.235 79.8442 85.1644 79.8225C84.8622 79.6813 84.7445 79.3555 84.8622 79.0514C85.3291 77.9781 85.6314 76.8578 85.7943 75.761C85.7943 75.7157 85.7943 75.6686 85.8178 75.6451C86.2848 72.0524 85.2115 68.4814 83.7183 66.2425C82.6685 64.6787 81.4323 63.7918 80.3373 63.8153C80.0097 63.8153 79.7545 63.5583 79.731 63.2543C79.731 62.9285 79.9862 62.6715 80.2903 62.6479C80.3138 62.6479 80.3609 62.6479 80.3826 62.6479C81.8758 62.6479 83.416 63.6977 84.6758 65.5891C86.2848 67.9909 87.4269 71.8189 86.9852 75.6922C88.0332 77.7682 89.0377 79.075 90.1563 79.8225C91.3689 80.6387 92.7698 80.8016 94.5417 80.3347C98.0874 79.4243 102.355 73.7085 101.237 66.4977C101.19 66.1719 101.4 65.8678 101.725 65.8226C102.053 65.7755 102.355 65.9855 102.402 66.3113C102.565 67.4081 102.636 68.5284 102.565 69.6017C103.964 68.3185 105.809 67.8986 106.717 68.295C107.021 68.4343 107.137 68.7619 107.021 69.0642C106.88 69.3682 106.554 69.4859 106.25 69.3682C105.691 69.1112 103.591 69.6958 102.518 71.5148C102.473 71.609 102.402 71.6542 102.332 71.7013C102.029 73.3121 101.47 74.8741 100.699 76.2985C100.652 76.3908 100.607 76.4849 100.536 76.579C104.198 75.2252 108.444 75.2252 112.315 76.6008C116.724 78.141 120.06 81.2686 121.761 85.3989ZM109.097 73.5221C109.237 73.5221 109.376 73.475 109.494 73.3809C110.496 72.4958 111.266 71.4678 111.825 70.2081C113.714 70.1845 117.331 71.0243 117.914 77.5347C117.937 77.8388 118.194 78.0723 118.496 78.0723C118.52 78.0723 118.543 78.0723 118.543 78.0723C118.869 78.0487 119.103 77.7682 119.079 77.4424C118.8 74.4325 117.866 72.1682 116.304 70.7221C114.974 69.5076 113.481 69.1112 112.245 69.0642C112.665 67.7357 112.922 66.1248 113.061 64.1647C113.085 63.8389 112.851 63.5583 112.525 63.5348C112.2 63.5113 111.919 63.7448 111.895 64.0724C111.546 69.0425 110.357 71.0243 108.701 72.5175C108.467 72.7275 108.444 73.1022 108.654 73.3356C108.77 73.4515 108.933 73.5221 109.097 73.5221ZM126.17 79.9383C126.987 78.7474 127.43 77.2324 127.454 75.551C127.477 74.0343 127.15 72.4958 126.543 71.0949C126.59 69.3918 127.501 67.0823 129.18 66.9411C129.506 66.9176 129.74 66.6389 129.716 66.3113C129.693 65.9855 129.412 65.752 129.086 65.7755C128.199 65.8443 127.267 66.4289 126.567 67.3375C126.218 67.8045 125.821 68.4814 125.588 69.3918C124.351 67.571 122.648 66.3113 120.666 65.799C120.362 65.7049 120.037 65.8914 119.942 66.219C119.85 66.5212 120.037 66.8488 120.362 66.9411C122.601 67.5493 123.979 69.0642 124.748 70.2551C125.751 71.8189 126.31 73.732 126.265 75.551C126.218 78.608 124.608 80.8252 121.971 81.4315C121.646 81.5021 121.459 81.8279 121.53 82.1319C121.599 82.4107 121.832 82.5754 122.089 82.5754C122.136 82.5754 122.181 82.5754 122.228 82.5519C123.908 82.179 125.26 81.2686 126.17 79.9383ZM152.505 72.4723C150.311 70.6515 147.747 69.9275 144.923 70.3257C143.035 70.5809 141.028 71.3755 139.209 72.5881C139.186 71.9347 139.115 71.2578 138.976 70.5809C138.16 66.4054 135.197 62.2751 132.375 61.3882C132.073 61.2959 131.745 61.4588 131.629 61.7611C131.512 62.0651 131.698 62.3909 132.002 62.5086C134.17 63.1855 137.017 66.6859 137.81 70.8144C137.973 71.6542 138.067 72.6352 137.997 73.6379C137.997 73.685 137.997 73.7085 137.997 73.7555C137.834 75.808 136.97 78.0487 134.637 79.9383C134.38 80.1483 134.357 80.5211 134.567 80.7546C134.684 80.8958 134.847 80.9645 135.01 80.9645C135.151 80.9645 135.267 80.9175 135.385 80.8252C137.577 79.0279 138.836 76.6949 139.139 74.0343C141.005 72.6587 143.104 71.7248 145.064 71.4678C147.56 71.1185 149.799 71.7718 151.734 73.3592C151.991 73.5691 152.364 73.5221 152.552 73.2886C152.784 73.0551 152.739 72.6822 152.505 72.4723ZM138.999 60.8525C140.702 61.8787 140.75 64.3276 139.816 66.0778C139.676 66.3583 139.769 66.7076 140.049 66.8723C140.143 66.9176 140.236 66.9411 140.33 66.9411C140.54 66.9411 140.75 66.8253 140.842 66.6389C141.285 65.799 141.542 64.8181 141.566 63.8624C143.035 63.6289 144.737 63.6289 146.301 63.8624C148.167 64.1411 149.636 64.7022 150.453 65.4479C150.568 65.5656 150.708 65.6126 150.849 65.6126C151.012 65.6126 151.151 65.542 151.269 65.4244C151.502 65.1909 151.479 64.8181 151.245 64.5846C149.285 62.7421 144.807 62.2045 141.472 62.695C141.262 61.5511 140.655 60.5249 139.582 59.8715C139.303 59.7086 138.952 59.8009 138.766 60.0579C138.65 60.3385 138.742 60.6878 138.999 60.8525ZM117.494 94.4522C116.817 91.4188 115.394 89.2486 113.271 87.9889C110.076 86.0975 105.738 86.5174 101.633 87.4984C102.263 87.055 102.916 86.588 103.544 86.074C103.801 85.864 103.825 85.4912 103.639 85.2577C103.429 85.0007 103.056 84.979 102.822 85.1654C100.536 87.0079 98.2974 88.3147 96.0349 89.1075L95.7779 89.178C95.7309 89.178 95.7073 89.2016 95.6838 89.2251C93.8413 89.8314 91.9753 90.0884 90.1092 90.0179C86.5183 89.8785 83.6025 88.4776 81.4794 87.4749C81.1771 87.3355 80.826 87.4514 80.7102 87.7554C80.5708 88.0577 80.6867 88.4088 80.9907 88.5247C83.2749 89.598 86.6106 91.1853 90.7626 91.1853C92.4187 91.1853 94.1924 90.9283 96.082 90.3219C96.1037 90.3219 96.1273 90.3219 96.1273 90.2984L96.5019 90.1808C101.539 88.6188 108.444 86.4722 112.665 88.9916C114.507 90.0884 115.698 91.931 116.328 94.6386C115.302 94.8721 114.391 95.292 113.809 95.759C113.552 95.9689 113.528 96.3418 113.738 96.5753C113.856 96.7146 114.019 96.7852 114.181 96.7852C114.321 96.7852 114.438 96.7382 114.554 96.6441C115.885 95.5472 118.916 95.3608 119.313 95.7119C119.546 95.9454 119.919 95.9454 120.152 95.7119C120.386 95.4785 120.386 95.1056 120.152 94.8721C119.57 94.3346 118.286 94.3816 117.494 94.4522ZM105.972 97.0875C107.208 96.4576 108.397 95.6649 109.494 94.6622C109.727 94.4522 109.749 94.0776 109.517 93.8441C109.307 93.6106 108.933 93.5889 108.701 93.8205C106.998 95.3843 104.969 96.4106 103.079 97.064C103.032 97.064 103.009 97.0875 102.985 97.0875C101.072 97.7409 99.2766 98.0214 98.0404 98.1608C94.4259 98.5354 90.9038 98.0449 89.2929 96.9246C89.0377 96.7382 88.6631 96.8088 88.4766 97.064C88.2902 97.321 88.3608 97.6956 88.6178 97.8821C90.064 98.8848 92.6757 99.4676 95.615 99.4676C96.4313 99.4676 97.2947 99.4205 98.158 99.3282C99.463 99.1888 101.329 98.8848 103.334 98.2078C106.625 97.9508 109.843 99.0006 111.756 100.916C113.179 102.362 113.809 104.157 113.599 106.306C113.575 106.631 113.809 106.912 114.134 106.935C114.158 106.935 114.181 106.935 114.181 106.935C114.485 106.935 114.741 106.702 114.764 106.398C114.998 103.925 114.228 101.755 112.572 100.074C110.985 98.4649 108.583 97.3916 105.972 97.0875ZM107.324 107.518C104.198 105.884 104.221 104.391 104.245 102.477C104.245 102.315 104.245 102.128 104.245 101.965C104.245 101.638 103.988 101.381 103.662 101.381C103.334 101.381 103.079 101.638 103.079 101.965C103.079 102.128 103.079 102.291 103.079 102.477C103.056 103.388 103.056 104.345 103.429 105.301C99.0666 107.938 94.5417 108.662 90.2739 107.401C86.4006 106.235 83.5554 103.668 82.1799 101.638C81.9934 101.381 81.6423 101.312 81.3636 101.475C81.1066 101.661 81.036 102.011 81.2007 102.291C83.1355 105.138 86.3771 107.448 89.9228 108.521C91.1825 108.894 92.6992 109.174 94.4476 109.174C97.177 109.174 100.42 108.474 103.964 106.327C104.525 107.098 105.389 107.844 106.788 108.568C106.88 108.615 106.974 108.639 107.067 108.639C107.276 108.639 107.486 108.521 107.581 108.311C107.72 108.032 107.628 107.658 107.324 107.518ZM140.959 88.7581C135.874 89.2722 132.703 91.8151 131.488 96.3183C130.929 95.3156 130.207 94.4052 129.343 93.6577C127.43 91.978 125.121 91.254 122.811 91.6052C122.485 91.6522 122.275 91.9545 122.323 92.2821C122.368 92.6079 122.672 92.8178 122.998 92.7708C124.958 92.4685 126.94 93.0984 128.572 94.5445C130.509 96.2712 131.674 98.8612 131.606 101.359C131.606 101.685 131.839 101.942 132.165 101.965H132.189C132.514 101.965 132.771 101.708 132.771 101.404C132.795 100.331 132.632 99.2576 132.304 98.2314C132.655 95.8042 133.541 93.8911 134.918 92.5373C136.364 91.1147 138.44 90.2513 141.075 89.9708C141.401 89.9473 141.635 89.645 141.589 89.3409C141.542 89.0387 141.285 88.7346 140.959 88.7581ZM150.476 75.6686C150.243 75.4587 149.87 75.4822 149.66 75.7157L147.14 78.5157C145.437 77.3953 144.317 74.5483 144.293 74.5248C144.178 74.2225 143.828 74.0813 143.548 74.199C143.245 74.3148 143.104 74.6641 143.222 74.9447C143.267 75.0858 144.482 78.141 146.511 79.4949C145.367 81.6179 143.805 83.2975 141.845 84.465C140.049 85.5618 137.902 86.2387 135.477 86.4722C131.023 86.9156 126.475 85.7482 123.955 84.6279C123.651 84.4885 123.302 84.6279 123.186 84.9319C123.045 85.2342 123.186 85.5853 123.488 85.7012C125.845 86.7509 129.53 87.7554 133.448 87.7554C134.17 87.7554 134.871 87.7319 135.595 87.6613C141.191 87.102 145.414 84.3256 147.77 79.6342L150.545 76.532C150.731 76.275 150.708 75.9021 150.476 75.6686ZM90.4603 60.876C91.93 61.7158 93.1897 64.0018 93.7255 66.8959C94.3553 70.2316 93.8648 73.3592 92.4422 75.0623C92.2323 75.3175 92.2793 75.6922 92.5128 75.8786C92.6286 75.9709 92.7463 76.018 92.8857 76.018C93.0485 76.018 93.2114 75.9492 93.3291 75.808C95.2657 73.4515 95.3816 69.5547 94.8458 66.6859C94.2377 63.419 92.7915 60.876 90.9961 59.8715C90.7173 59.7086 90.3662 59.8009 90.2033 60.105C90.0875 60.362 90.1798 60.7113 90.4603 60.876Z" fill="#9E3030"/>
<path d="M80.0568 120.515C80.2197 120.794 80.1039 121.145 79.8233 121.308C79.731 121.355 79.6369 121.379 79.5446 121.379C79.3346 121.379 79.1247 121.261 79.0306 121.075C77.2804 117.784 75.5084 112.488 73.7582 105.348C72.9655 105.558 72.0569 105.744 71.0071 105.862C70.9836 105.862 70.9601 105.862 70.9365 105.862C70.6343 105.862 70.4008 105.652 70.3537 105.348C70.3067 105.02 70.5401 104.742 70.8659 104.695C71.5899 104.601 72.5003 104.461 73.456 104.204C72.6397 100.774 71.8705 97.0187 71.1229 93.0983C70.6795 93.1219 70.2379 93.1454 69.818 93.1454C68.5818 93.1454 67.4614 93.0042 66.6922 92.6549C66.3881 92.5155 66.2723 92.1644 66.4117 91.8839C66.551 91.5816 66.9022 91.464 67.1809 91.6051C67.9972 91.978 69.3981 92.0486 70.8895 91.9545C70.4008 89.2251 69.9338 86.4251 69.5139 83.5545C69.3275 82.2478 69.1411 80.941 68.9546 79.6577C67.532 79.6577 66.0388 79.5419 65.0361 79.1908C64.732 79.0985 64.5692 78.7473 64.6615 78.4451C64.7556 78.141 65.1049 77.9781 65.409 78.0722C66.1782 78.3274 67.4379 78.4686 68.7917 78.4686C68.2542 74.4089 67.8343 70.5356 67.532 67.0117C67.0886 67.0352 66.6452 67.0587 66.2488 67.0587C65.6189 67.0587 65.0361 67.0352 64.5692 66.9646C64.2434 66.9176 64.0334 66.6153 64.0787 66.3112C64.1257 65.9854 64.4298 65.7755 64.732 65.8225C65.456 65.9148 66.4117 65.9384 67.4379 65.8678C66.808 57.7484 66.8551 51.4951 67.6479 48.4851C67.742 48.1811 68.0442 47.9946 68.3718 48.0652C68.6741 48.1593 68.8605 48.4616 68.7917 48.7892C68.0442 51.6579 67.9972 57.819 68.627 65.7755C70.5166 65.5655 72.3827 65.1221 73.2225 64.561C73.4795 64.3746 73.8523 64.4452 74.0388 64.7022C74.2252 64.9592 74.1564 65.332 73.8994 65.5185C72.8496 66.2424 70.7736 66.7076 68.7447 66.9411C69.0469 70.5121 69.4669 74.3854 70.0044 78.4686C72.0804 78.3745 74.1564 78.0252 74.8786 77.5111C75.1356 77.3247 75.5084 77.3718 75.6949 77.6288C75.8813 77.8858 75.8342 78.2586 75.579 78.4451C74.4116 79.3084 71.6605 79.5419 70.5401 79.6107C70.4243 79.6107 70.3067 79.6342 70.1673 79.6342C70.3302 80.8722 70.5166 82.1319 70.703 83.3916C71.1465 86.2839 71.6134 89.1074 72.1021 91.8386C73.9465 91.6051 75.7184 91.1617 76.5111 90.6712C76.7917 90.5083 77.141 90.5789 77.3274 90.8576C77.4903 91.1382 77.4215 91.4875 77.141 91.6739C76.2324 92.235 74.3193 92.7472 72.3356 93.0042C73.0596 96.8775 73.8053 100.541 74.598 103.878C75.8342 103.411 77.0016 102.711 77.7003 101.685C77.8885 101.404 78.2378 101.335 78.5166 101.522C78.7736 101.708 78.8677 102.058 78.6813 102.338C78.0749 103.225 76.9546 104.275 74.8786 105.044C76.5582 111.882 78.3537 117.317 80.0568 120.515ZM169.625 59.942C168.552 58.8688 165.216 58.2389 164.214 58.076C164.143 58.0525 164.051 58.0525 163.957 58.0289C163.933 57.8642 163.933 57.6778 163.911 57.4914C163.888 57.2579 163.888 57.0244 163.864 56.7909C163.864 56.6751 163.841 56.5357 163.841 56.4181C163.817 56.0217 163.77 55.6489 163.747 55.2525C163.747 55.2054 163.747 55.1819 163.747 55.1348C163.725 54.762 163.678 54.4127 163.654 54.038C163.654 53.9692 163.631 53.8987 163.631 53.8281C163.631 53.7593 163.607 53.6887 163.607 53.5946C165.917 53.3846 167.783 52.7548 168.809 51.962C169.066 51.7756 169.111 51.4009 168.925 51.1457C168.738 50.8887 168.366 50.8417 168.109 51.0281C167.386 51.5892 165.754 52.219 163.491 52.429C163.397 51.6579 163.327 50.8887 163.234 50.096C163.234 50.0254 163.211 49.9783 163.211 49.9077C163.164 49.5584 163.117 49.2326 163.072 48.8815C163.048 48.7657 163.048 48.648 163.024 48.5322C162.977 48.2281 162.954 47.9258 162.907 47.6218C162.885 47.5059 162.885 47.3883 162.862 47.2725C162.815 46.8526 162.744 46.4544 162.697 46.0345C162.652 45.7322 162.395 45.5222 162.091 45.5458C162.069 45.5458 162.045 45.5458 162.022 45.5458C161.998 45.5458 161.975 45.5458 161.951 45.5458C161.671 45.6146 161.461 45.8951 161.508 46.1992C161.555 46.5014 161.602 46.829 161.649 47.1313C161.671 47.2254 161.671 47.3177 161.694 47.3883C161.718 47.6218 161.765 47.8788 161.788 48.1123C161.788 48.1811 161.812 48.2752 161.812 48.3458C161.859 48.648 161.881 48.9521 161.928 49.2779C161.928 49.3249 161.951 49.372 161.951 49.4426C161.975 49.6978 162.022 49.9783 162.045 50.2353C162.045 50.3059 162.069 50.3747 162.069 50.4688C162.138 51.0987 162.208 51.7285 162.277 52.3584C162.277 52.3819 162.277 52.4055 162.277 52.429C162.277 52.4525 162.277 52.4525 162.277 52.476C161.111 52.4978 159.828 52.4055 158.453 52.1484C158.127 52.0779 157.823 52.2878 157.776 52.6154C157.707 52.9412 157.917 53.2453 158.243 53.2923C159.526 53.5258 160.762 53.6416 161.904 53.6416C162.069 53.6416 162.232 53.6416 162.395 53.6416C162.534 55.0643 162.652 56.4416 162.744 57.819C161.298 57.6543 159.316 57.5384 158.127 57.9584C157.823 58.076 157.66 58.4018 157.776 58.7059C157.893 59.0081 158.219 59.171 158.523 59.0552C159.316 58.7746 160.925 58.7746 162.838 59.0081C162.954 60.9918 163.048 62.9284 163.072 64.7945C161.345 63.8624 159.946 63.4642 159.852 63.4425C159.549 63.3484 159.222 63.5348 159.13 63.8388C159.035 64.1411 159.222 64.4687 159.526 64.561C159.549 64.561 161.182 65.028 163.072 66.1483C163.095 70.465 162.862 74.5012 162.371 78.2351C160.038 77.8387 157.823 77.3247 157.799 77.3012C157.473 77.2324 157.169 77.4188 157.101 77.7446C157.03 78.0487 157.216 78.3745 157.542 78.4451C157.707 78.4921 159.899 79.0043 162.232 79.4007C161.602 83.6486 160.831 87.4749 159.526 90.9518C158.943 90.9047 158.219 90.8576 157.799 90.7889C157.473 90.7183 157.169 90.9282 157.101 91.254C157.03 91.5816 157.24 91.8839 157.566 91.9545C157.917 92.0251 158.568 92.1174 159.082 92.1644C158.08 95.4314 154.86 100.635 151.968 103.715C150.476 102.619 149.193 101.265 149.099 100.401C149.052 100.074 148.773 99.8422 148.445 99.8874C148.12 99.9345 147.886 100.215 147.933 100.541C148.12 101.989 149.752 103.761 150.988 104.671C149.776 106.631 144.923 109.408 141.566 110.224C141.191 109.198 140.75 107.752 140.771 106.327C140.771 106.001 140.516 105.744 140.188 105.744C139.863 105.744 139.606 106.001 139.606 106.327C139.582 107.891 139.886 109.384 140.283 110.528C139.863 110.667 139.49 110.762 138.952 110.762C135.128 110.901 131.396 111.087 128.06 111.554C128.131 110.505 128.433 109.547 128.923 108.964C129.133 108.731 129.11 108.358 128.853 108.148C128.619 107.938 128.246 107.962 128.037 108.219C127.22 109.151 126.894 110.528 126.871 111.764C125.658 111.974 124.491 112.208 123.418 112.535C118.567 113.934 115.932 116.409 115.347 120.094C114.625 124.785 115.302 128.097 116.187 131.131C114.158 130.477 112.478 129.614 111.803 128.845C111.593 128.588 111.219 128.564 110.987 128.774C110.753 128.984 110.706 129.357 110.916 129.59C111.825 130.64 113.948 131.715 116.583 132.461C116.607 132.555 116.63 132.624 116.654 132.718C117.727 136.264 118.753 139.625 117.89 144.991C117.843 145.317 118.053 145.621 118.381 145.668C118.404 145.668 118.449 145.668 118.473 145.668C118.753 145.668 119.01 145.458 119.056 145.178C119.919 139.788 118.94 136.195 117.914 132.81C119.197 133.091 120.386 133.254 121.342 133.254C122.066 133.254 122.672 133.185 123.115 133.02C123.418 132.904 123.582 132.579 123.465 132.275C123.349 131.97 123.021 131.808 122.719 131.925C121.761 132.251 119.756 132.112 117.494 131.527C116.538 128.307 115.745 125.111 116.491 120.282C117.003 117.038 119.289 114.937 123.722 113.654C124.701 113.375 125.774 113.142 126.916 112.955C126.987 113.562 127.267 115.055 128.131 115.685C128.223 115.755 128.341 115.8 128.456 115.8C128.643 115.8 128.829 115.708 128.947 115.545C129.133 115.288 129.063 114.915 128.806 114.727C128.551 114.541 128.223 113.864 128.084 112.814C128.084 112.791 128.084 112.791 128.084 112.767C131.465 112.278 135.314 112.092 139.046 111.974C139.535 111.951 140.143 111.905 140.795 111.788C141.542 113.21 142.498 114.238 143.385 114.984C143.501 115.078 143.618 115.125 143.758 115.125C143.921 115.125 144.083 115.055 144.201 114.915C144.411 114.658 144.364 114.284 144.131 114.097C143.408 113.514 142.637 112.675 142.009 111.578C143.245 111.274 144.668 110.785 146.23 109.991C148.445 108.872 150.521 107.332 152.411 105.442C154.23 106.515 155.794 106.981 156.587 106.981C156.634 106.981 156.657 106.981 156.702 106.981C157.03 106.957 157.263 106.678 157.263 106.351C157.24 106.025 156.959 105.791 156.634 105.791C156.074 105.839 154.744 105.372 153.251 104.555C153.555 104.228 153.857 103.878 154.161 103.506C156.726 100.425 158.825 96.6675 160.434 92.2821C160.599 92.2821 160.762 92.2821 160.925 92.2821C162.022 92.2821 163.117 92.2115 163.911 92.0015C164.214 91.9309 164.424 91.6051 164.331 91.3011C164.261 90.9988 163.933 90.7889 163.631 90.8812C162.93 91.0441 161.881 91.1382 160.833 91.1147C161.671 88.6423 162.348 86.0052 162.885 83.1582C163.095 82.0143 163.282 80.8722 163.444 79.6813C164.447 79.8224 165.403 79.9147 166.174 79.9147C166.384 79.9147 166.594 79.9147 166.757 79.8912C167.082 79.8677 167.316 79.5889 167.292 79.2614C167.269 78.9356 166.99 78.7021 166.662 78.7256C165.917 78.7944 164.796 78.6785 163.607 78.5157C164.051 74.9211 164.261 71.0714 164.284 67.0117C164.983 67.5257 165.683 68.1085 166.29 68.8089C166.407 68.9483 166.57 68.9954 166.733 68.9954C166.872 68.9954 167.014 68.9483 167.129 68.8542C167.363 68.6442 167.386 68.2714 167.177 68.0379C166.29 67.0352 165.263 66.2189 164.284 65.5891C164.261 63.5348 164.19 61.4352 164.051 59.2651C166.71 59.7086 168.389 60.3855 168.833 60.8054C168.948 60.9212 169.09 60.9683 169.253 60.9683C169.392 60.9683 169.555 60.9212 169.672 60.8054C169.859 60.5484 169.859 60.1755 169.625 59.942ZM109.097 51.3086C109.097 51.1693 109.121 51.0281 109.143 50.8887C110.379 50.9358 111.638 50.9358 112.898 50.9358C116.234 50.9358 119.617 50.8181 122.998 50.5611C123.651 53.6887 123.582 56.7692 123.582 56.8145C123.582 57.1421 123.837 57.3991 124.142 57.4226H124.165C124.491 57.4226 124.748 57.1656 124.748 56.8615C124.748 56.5593 124.818 53.9222 124.257 50.9358C124.234 50.7711 124.189 50.6317 124.165 50.4688C125.215 50.3747 126.288 50.2824 127.336 50.1647C131.115 49.7684 134.871 49.2326 138.65 48.5322C139.653 50.2589 140.422 52.0326 140.445 53.1059C140.445 53.4317 140.702 53.6887 141.028 53.6887C141.356 53.6887 141.611 53.4082 141.611 53.0824C141.589 51.915 140.865 50.096 139.863 48.2987C143.805 47.5277 147.747 46.5955 151.642 45.5222C153.111 46.8526 154.883 48.8815 155.886 51.705C155.98 51.9385 156.19 52.1014 156.447 52.1014C156.516 52.1014 156.587 52.1014 156.634 52.0779C156.936 51.962 157.101 51.6344 156.983 51.3322C156.096 48.8127 154.626 46.7584 152.97 45.1494C153.928 44.8689 154.907 44.5883 155.864 44.2861C156.167 44.1919 156.353 43.8643 156.261 43.5621C156.167 43.258 155.841 43.0716 155.537 43.1657C154.348 43.5386 153.159 43.8879 151.968 44.2155C149.729 42.3494 147.28 41.2526 145.53 40.8544C145.204 40.7856 144.902 40.9956 144.831 41.2978C144.76 41.6254 144.97 41.9277 145.274 41.9983C146.954 42.3711 148.865 43.3051 150.568 44.6118C146.813 45.6381 143.036 46.5014 139.256 47.2254C138.16 45.4987 136.876 43.9349 135.781 43.2128C135.501 43.0245 135.151 43.1186 134.965 43.3757C134.777 43.6544 134.871 44.0055 135.128 44.1919C136.013 44.7747 137.063 46.0127 138.02 47.4354C134.427 48.0887 130.837 48.601 127.267 48.9756C126.17 49.0915 125.05 49.1856 123.955 49.2779C123.302 46.782 122.299 44.9612 120.969 43.8879C120.712 43.6779 120.339 43.725 120.152 43.982C119.966 44.239 119.99 44.6118 120.247 44.7983C121.506 45.801 122.299 47.5277 122.788 49.372C118.194 49.7448 113.691 49.839 109.26 49.7213C109.539 47.5982 109.982 46.0127 110.473 45.4752C110.683 45.2417 110.659 44.8689 110.426 44.6589C110.192 44.449 109.819 44.4725 109.61 44.706C109.19 45.1711 108.491 46.4091 108.093 49.6978C106.531 49.6525 104.991 49.5584 103.452 49.4426C100.676 49.2326 97.9481 48.9521 95.2875 48.5557C96.2449 46.0815 97.2947 44.3078 98.2268 43.6327C98.4838 43.4444 98.5544 43.0716 98.3445 42.8146C98.158 42.5594 97.7834 42.4888 97.5282 42.6987C96.0585 43.772 94.8458 46.4544 94.0983 48.391C91.1825 47.9494 88.3844 47.3883 85.7943 46.7349C85.1192 46.572 84.4423 46.3856 83.7889 46.1992C84.931 44.7277 86.4242 43.5386 88.3138 42.9087C88.6178 42.8146 88.7807 42.4888 88.6866 42.1612C88.5943 41.8589 88.2667 41.696 87.9409 41.7883C85.655 42.5358 83.883 44.029 82.5763 45.848C79.7546 45.0082 77.398 44.0978 75.8342 43.2128C75.5555 43.0481 75.2044 43.1657 75.0415 43.4444C74.8786 43.725 74.9962 44.0761 75.275 44.239C76.8387 45.1023 79.1699 46.0127 81.9229 46.8526C80.7337 48.8344 80.0333 51.0751 79.7546 53.0118C79.7075 53.3394 79.941 53.6181 80.2432 53.6652C80.2668 53.6652 80.2903 53.6652 80.3374 53.6652C80.6161 53.6652 80.8731 53.4552 80.9202 53.1511C81.2007 51.2616 81.8993 49.0679 83.0885 47.1783C83.883 47.4118 84.6758 47.6218 85.5156 47.8317C88.0803 48.4616 90.8332 49.0227 93.702 49.4643C92.7698 52.1955 92.14 55.0643 92.0694 56.8145C92.0694 57.1421 92.3264 57.3991 92.6287 57.4226C92.6287 57.4226 92.6287 57.4226 92.6522 57.4226C92.9798 57.4226 93.235 57.1656 93.235 56.8615C93.2821 55.2054 93.9354 52.3113 94.8676 49.6761C97.6205 50.0724 100.466 50.3982 103.358 50.6082C104.875 50.7258 106.415 50.7946 107.953 50.8652C107.953 50.981 107.93 51.1222 107.93 51.238C107.72 54.038 107.791 56.9321 108.14 58.4488C108.21 58.7276 108.444 58.8923 108.701 58.8923C108.746 58.8923 108.793 58.8923 108.84 58.8688C109.166 58.7982 109.353 58.4724 109.284 58.1683C108.98 56.7909 108.887 53.9692 109.097 51.3086ZM125.704 121.542C122.882 122.195 118.777 120.747 117.984 119.791C117.774 119.534 117.4 119.511 117.168 119.721C116.911 119.931 116.887 120.305 117.097 120.537C117.68 121.237 119.103 121.938 120.806 122.405C121.575 122.615 122.835 122.872 124.189 122.872C124.795 122.872 125.401 122.825 126.008 122.684C126.333 122.615 126.52 122.287 126.451 121.985C126.333 121.657 126.008 121.471 125.704 121.542Z" fill="#A94744"/>
<path d="M98.464 170.31V177.672C98.464 178.356 98.62 178.884 98.932 179.256C99.256 179.628 99.742 179.814 100.39 179.814C101.038 179.814 101.524 179.628 101.848 179.256C102.184 178.872 102.352 178.344 102.352 177.672V170.31H105.88V177.672C105.88 178.836 105.634 179.832 105.142 180.66C104.65 181.476 103.978 182.094 103.126 182.514C102.286 182.922 101.35 183.126 100.318 183.126C99.286 183.126 98.362 182.922 97.546 182.514C96.742 182.094 96.106 181.476 95.638 180.66C95.182 179.844 94.954 178.848 94.954 177.672V170.31H98.464ZM112.124 183.126C111.212 183.126 110.396 182.976 109.676 182.676C108.968 182.364 108.404 181.944 107.984 181.416C107.576 180.876 107.348 180.27 107.3 179.598H110.72C110.768 179.922 110.918 180.174 111.17 180.354C111.422 180.534 111.734 180.624 112.106 180.624C112.394 180.624 112.622 180.564 112.79 180.444C112.958 180.324 113.042 180.168 113.042 179.976C113.042 179.724 112.904 179.538 112.628 179.418C112.352 179.298 111.896 179.166 111.26 179.022C110.54 178.878 109.94 178.716 109.46 178.536C108.98 178.356 108.56 178.062 108.2 177.654C107.852 177.246 107.678 176.694 107.678 175.998C107.678 175.398 107.84 174.858 108.164 174.378C108.488 173.886 108.962 173.496 109.586 173.208C110.222 172.92 110.984 172.776 111.872 172.776C113.192 172.776 114.23 173.1 114.986 173.748C115.742 174.396 116.18 175.248 116.3 176.304H113.114C113.054 175.98 112.91 175.734 112.682 175.566C112.466 175.386 112.172 175.296 111.8 175.296C111.512 175.296 111.29 175.35 111.134 175.458C110.99 175.566 110.918 175.716 110.918 175.908C110.918 176.148 111.056 176.334 111.332 176.466C111.608 176.586 112.052 176.712 112.664 176.844C113.396 177 114.002 177.174 114.482 177.366C114.974 177.558 115.4 177.87 115.76 178.302C116.132 178.722 116.318 179.298 116.318 180.03C116.318 180.618 116.144 181.146 115.796 181.614C115.46 182.082 114.974 182.454 114.338 182.73C113.714 182.994 112.976 183.126 112.124 183.126ZM128.385 172.902V183H124.839V181.56C124.539 182.016 124.125 182.388 123.597 182.676C123.069 182.952 122.463 183.09 121.779 183.09C120.603 183.09 119.673 182.706 118.989 181.938C118.317 181.158 117.981 180.102 117.981 178.77V172.902H121.491V178.32C121.491 178.896 121.641 179.352 121.941 179.688C122.253 180.012 122.661 180.174 123.165 180.174C123.681 180.174 124.089 180.012 124.389 179.688C124.689 179.352 124.839 178.896 124.839 178.32V172.902H128.385ZM134.695 183.126C133.783 183.126 132.967 182.976 132.247 182.676C131.539 182.364 130.975 181.944 130.555 181.416C130.147 180.876 129.919 180.27 129.871 179.598H133.291C133.339 179.922 133.489 180.174 133.741 180.354C133.993 180.534 134.305 180.624 134.677 180.624C134.965 180.624 135.193 180.564 135.361 180.444C135.529 180.324 135.613 180.168 135.613 179.976C135.613 179.724 135.475 179.538 135.199 179.418C134.923 179.298 134.467 179.166 133.831 179.022C133.111 178.878 132.511 178.716 132.031 178.536C131.551 178.356 131.131 178.062 130.771 177.654C130.423 177.246 130.249 176.694 130.249 175.998C130.249 175.398 130.411 174.858 130.735 174.378C131.059 173.886 131.533 173.496 132.157 173.208C132.793 172.92 133.555 172.776 134.443 172.776C135.763 172.776 136.801 173.1 137.557 173.748C138.313 174.396 138.751 175.248 138.871 176.304H135.685C135.625 175.98 135.481 175.734 135.253 175.566C135.037 175.386 134.743 175.296 134.371 175.296C134.083 175.296 133.861 175.35 133.705 175.458C133.561 175.566 133.489 175.716 133.489 175.908C133.489 176.148 133.627 176.334 133.903 176.466C134.179 176.586 134.623 176.712 135.235 176.844C135.967 177 136.573 177.174 137.053 177.366C137.545 177.558 137.971 177.87 138.331 178.302C138.703 178.722 138.889 179.298 138.889 180.03C138.889 180.618 138.715 181.146 138.367 181.614C138.031 182.082 137.545 182.454 136.909 182.73C136.285 182.994 135.547 183.126 134.695 183.126Z" fill="black"/>
</svg>
