<svg width="234" height="243" viewBox="0 0 234 243" fill="none" xmlns="http://www.w3.org/2000/svg">
<rect width="234" height="243" rx="12" fill="#189FE3"/>
<rect x="13" y="13" width="207" height="202" rx="8" fill="white"/>
<ellipse cx="116" cy="229.5" rx="6" ry="6.5" fill="#444444"/>
<path d="M108.128 53.3348C108.128 53.3348 102.994 52.0883 99.8495 52.8356C96.7048 53.5828 95.6433 55.6382 95.6263 57.2267C95.6078 58.8152 96.2241 60.0139 101.877 60.3852C107.529 60.7581 125.286 67.0844 125.286 67.0844L129.413 61.3559C129.413 61.3559 116.408 53.8324 108.128 53.3348Z" fill="#367EA9"/>
<mask id="mask0_10_567" style="mask-type:luminance" maskUnits="userSpaceOnUse" x="98" y="34" width="64" height="59">
<path d="M98.0005 34H162V92.67H98.0005V34Z" fill="white"/>
</mask>
<g mask="url(#mask0_10_567)">
<path d="M112.519 76.426C112.519 76.426 112.866 52.5876 128.329 54.1823C143.791 55.7754 138.653 68.8795 138.653 68.8795C138.653 68.8795 146.335 72.9147 147.432 79.8403C148.531 86.7659 148.531 86.7659 148.531 86.7659L153.518 92.4451C153.518 92.4451 156.211 88.7088 156.561 85.4209L161.998 84.3239L161.322 76.6695L154.466 77.05L153.501 73.2752L159.097 71.0827L155.812 64.3959L148.879 66.3388C148.879 66.3388 149.928 55.7816 146.81 50.8712C143.693 45.9609 139.755 44.3169 139.755 44.3169L142.895 39.2355L136.713 36.6224L133.428 42.5528L129.731 41.9796L131.222 34.0032H121.506L121.991 40.5344L117.254 41.9796L114.562 35.1002L106.541 36.6224L108.627 45.8114C108.627 45.8114 96.2565 55.1283 98.6508 73.0148L112.519 76.426Z" fill="#FF9999"/>
</g>
<path d="M109.824 72.765C109.824 72.765 122.543 71.3706 130.125 72.0177C137.707 72.6664 148.381 77.0498 151.672 83.4778C154.481 88.9597 156.835 104.538 157.466 108.994C157.581 109.808 157.566 110.633 157.421 111.441C156.875 114.474 155.292 122.255 152.87 125.626C149.827 129.862 145.936 141.918 142.295 146.054C138.653 150.189 131.593 156.467 123.452 154.424C117.551 152.944 113.439 148.819 111.621 146.662C110.817 145.707 109.837 144.916 108.733 144.333L100.534 139.989C97.654 138.464 95.0994 136.393 93.0163 133.889C89.2816 129.403 83.5978 121.727 81.0941 113.968C77.2037 101.911 75.2578 90.7516 78.5503 84.4238C81.8413 78.096 86.2818 74.0608 88.9257 73.3628C91.5696 72.6648 104.088 70.3229 109.824 72.765Z" fill="#F74F60"/>
<path d="M98.3425 81.6521C95.5907 83.0156 92.0671 87.9614 89.7729 93.3417C87.4772 98.7235 89.5233 115.065 84.5344 117.157C79.547 119.249 77.4516 112.774 74.9078 106.077C72.3641 99.3814 72.3641 91.7486 74.9078 87.2634C77.4516 82.7799 94.959 77.0499 94.959 77.0499C101.493 75.9528 101.094 80.2885 98.3425 81.6521ZM150.703 76.8742C142.999 66.1861 134.514 66.5867 129.413 66.5867C125.455 66.5867 122.212 73.4538 120.957 76.5337C120.538 77.5598 120.839 78.7416 121.703 79.4365C123.03 80.5011 125.712 81.5719 127.584 82.1836L125.885 90.3018L107.28 98.9223L100.225 110.452L103.239 111.677L109.474 101.313L115.908 97.9454L118.352 104.501L114.201 116.77L116.152 117.556L121.645 105.249L119.15 96.8407L126.483 93.1922C126.483 93.1922 126.931 99.7558 128.179 101.58C129.425 103.406 131.122 108.139 131.122 108.139L131.602 117.556C131.602 117.556 119.711 124.89 115.915 126.005C112.118 127.121 104.237 129.164 104.237 129.164C104.237 129.164 105.635 131.705 106.032 131.705C106.431 131.705 112.617 130.159 114.214 129.412C115.81 128.665 115.81 128.665 115.81 128.665L111.769 137.533L114.462 138.78L119.7 128.566L130.171 121.753L124.788 132.202L122.942 136.338L125.138 138.281L132.718 125.526C132.718 125.526 133.915 133.15 133.915 136.188L136.211 134.395C136.211 134.395 137.108 124.779 135.012 119.2L135.262 111.177L143.992 116.41L145.959 113.251C145.959 113.251 140.708 108.986 138.659 109.06L145.338 107.292L144.839 103.903L135.014 105.449C135.014 105.449 132.419 101.713 131.472 98.6727C130.524 95.6328 128.678 91.2494 128.678 91.2494L130.646 83.031C134.362 84.4578 137.479 89.1016 139.013 91.7378C140.721 94.6667 148.631 99.8683 154.231 97.2151C159.832 94.5619 158.407 87.5624 150.703 76.8742Z" fill="#C5264C"/>
<path d="M100.225 50.0577L92.9145 55.5258L97.3041 73.6126C97.3041 73.6126 90.3646 77.714 83.1848 77.6308L84.536 55.4272L80.0201 48.483L89.6312 43.3708L91.5772 46.9746L97.053 45.9269L100.225 50.0577ZM130.171 57.3485C125.104 59.6226 117.019 64.1077 111.846 67.0475C108.693 68.8393 106.322 71.7406 105.199 75.1857L104.088 78.5938L118.452 83.3778C118.452 83.3778 127.831 68.1814 133.915 65.1416C140.001 62.1032 154.838 61.356 154.838 61.356V52.5968C154.838 52.5968 138.097 53.7894 130.171 57.3485Z" fill="#367EA9"/>
<path d="M86.414 170.31V178.716C86.414 180.144 86.024 181.236 85.244 181.992C84.476 182.748 83.414 183.126 82.058 183.126C80.618 183.126 79.466 182.724 78.602 181.92C77.75 181.116 77.324 179.958 77.324 178.446H80.816C80.828 179.442 81.194 179.94 81.914 179.94C82.562 179.94 82.886 179.532 82.886 178.716V170.31H86.414ZM87.9437 177.942C87.9437 176.898 88.1297 175.986 88.5017 175.206C88.8857 174.426 89.4017 173.826 90.0497 173.406C90.7097 172.986 91.4417 172.776 92.2457 172.776C92.9417 172.776 93.5417 172.914 94.0457 173.19C94.5497 173.466 94.9397 173.838 95.2157 174.306V172.902H98.7437V183H95.2157V181.596C94.9397 182.064 94.5437 182.436 94.0277 182.712C93.5237 182.988 92.9297 183.126 92.2457 183.126C91.4417 183.126 90.7097 182.916 90.0497 182.496C89.4017 182.076 88.8857 181.476 88.5017 180.696C88.1297 179.904 87.9437 178.986 87.9437 177.942ZM95.2157 177.942C95.2157 177.294 95.0357 176.784 94.6757 176.412C94.3277 176.04 93.8957 175.854 93.3797 175.854C92.8517 175.854 92.4137 176.04 92.0657 176.412C91.7177 176.772 91.5437 177.282 91.5437 177.942C91.5437 178.59 91.7177 179.106 92.0657 179.49C92.4137 179.862 92.8517 180.048 93.3797 180.048C93.8957 180.048 94.3277 179.862 94.6757 179.49C95.0357 179.118 95.2157 178.602 95.2157 177.942ZM107.36 172.812C108.524 172.812 109.448 173.202 110.132 173.982C110.816 174.75 111.158 175.794 111.158 177.114V183H107.63V177.582C107.63 177.006 107.48 176.556 107.18 176.232C106.88 175.896 106.478 175.728 105.974 175.728C105.446 175.728 105.032 175.896 104.732 176.232C104.432 176.556 104.282 177.006 104.282 177.582V183H100.754V172.902H104.282V174.342C104.594 173.886 105.014 173.52 105.542 173.244C106.07 172.956 106.676 172.812 107.36 172.812ZM119.052 179.994V183H117.522C114.942 183 113.652 181.722 113.652 179.166V175.836H112.41V172.902H113.652V170.454H117.198V172.902H119.034V175.836H117.198V179.22C117.198 179.496 117.258 179.694 117.378 179.814C117.51 179.934 117.726 179.994 118.026 179.994H119.052ZM131.002 172.902V183H127.456V181.56C127.156 182.016 126.742 182.388 126.214 182.676C125.686 182.952 125.08 183.09 124.396 183.09C123.22 183.09 122.29 182.706 121.606 181.938C120.934 181.158 120.598 180.102 120.598 178.77V172.902H124.108V178.32C124.108 178.896 124.258 179.352 124.558 179.688C124.87 180.012 125.278 180.174 125.782 180.174C126.298 180.174 126.706 180.012 127.006 179.688C127.306 179.352 127.456 178.896 127.456 178.32V172.902H131.002ZM139.616 172.812C140.78 172.812 141.704 173.202 142.388 173.982C143.072 174.75 143.414 175.794 143.414 177.114V183H139.886V177.582C139.886 177.006 139.736 176.556 139.436 176.232C139.136 175.896 138.734 175.728 138.23 175.728C137.702 175.728 137.288 175.896 136.988 176.232C136.688 176.556 136.538 177.006 136.538 177.582V183H133.01V172.902H136.538V174.342C136.85 173.886 137.27 173.52 137.798 173.244C138.326 172.956 138.932 172.812 139.616 172.812ZM149.076 172.776C149.76 172.776 150.354 172.914 150.858 173.19C151.374 173.466 151.77 173.838 152.046 174.306V172.902H155.574V182.892C155.574 183.84 155.394 184.692 155.034 185.448C154.674 186.216 154.11 186.828 153.342 187.284C152.586 187.74 151.626 187.968 150.462 187.968C148.902 187.968 147.654 187.602 146.718 186.87C145.782 186.138 145.248 185.142 145.116 183.882H148.59C148.662 184.206 148.842 184.458 149.13 184.638C149.418 184.818 149.79 184.908 150.246 184.908C151.446 184.908 152.046 184.236 152.046 182.892V181.596C151.77 182.064 151.374 182.436 150.858 182.712C150.354 182.988 149.76 183.126 149.076 183.126C148.272 183.126 147.54 182.916 146.88 182.496C146.232 182.076 145.716 181.476 145.332 180.696C144.96 179.904 144.774 178.986 144.774 177.942C144.774 176.898 144.96 175.986 145.332 175.206C145.716 174.426 146.232 173.826 146.88 173.406C147.54 172.986 148.272 172.776 149.076 172.776ZM152.046 177.942C152.046 177.294 151.866 176.784 151.506 176.412C151.158 176.04 150.726 175.854 150.21 175.854C149.682 175.854 149.244 176.04 148.896 176.412C148.548 176.772 148.374 177.282 148.374 177.942C148.374 178.59 148.548 179.106 148.896 179.49C149.244 179.862 149.682 180.048 150.21 180.048C150.726 180.048 151.158 179.862 151.506 179.49C151.866 179.118 152.046 178.602 152.046 177.942Z" fill="black"/>
</svg>
