<svg width="234" height="243" viewBox="0 0 234 243" fill="none" xmlns="http://www.w3.org/2000/svg">
<rect width="234" height="243" rx="12" fill="#189FE3"/>
<rect x="13" y="13" width="207" height="202" rx="8" fill="white"/>
<ellipse cx="116" cy="229.5" rx="6" ry="6.5" fill="#444444"/>
<path d="M77.0978 107.151C77.0978 107.151 79.6982 101.423 92.2663 103.823C104.832 106.223 114.986 99.9464 118.869 93.2978C122.752 86.6492 121.469 70.7743 118.869 65.9722C118.869 65.9722 101.319 63.6321 95.9014 46.8919L110.202 38.4587C110.202 38.4587 112.803 46.8609 117.037 48.8933C117.037 48.8933 133.478 26.6425 158.789 38.4587C184.101 50.275 182.936 83.6998 178.52 97.1787C174.105 110.658 159.306 136.508 133.451 141.674C107.598 146.842 90.7792 140.375 82.0941 131.058C82.0941 131.058 76.8293 126.26 77.1061 120.906C77.1061 120.906 73.7828 123.583 74.1505 129.672C74.5202 135.763 78.1243 147.311 78.1243 147.311C78.1243 147.311 75.2616 151.555 66.3948 150.909C66.3948 150.909 60.5744 136.23 62.33 126.718C64.0856 117.207 68.6915 106.686 77.0978 107.151Z" fill="#F26552"/>
<path d="M104.196 47.6934C104.196 47.6934 107.152 54.7695 109.981 56.9237C112.811 59.0759 118.54 62.1554 118.051 63.3245C117.561 64.4935 114.445 63.9999 111.706 63.0167C108.967 62.0336 103.364 57.3265 102.333 55.0772C101.3 52.8301 99.3899 47.8152 104.196 47.6934Z" fill="#E24B3D"/>
<path d="M125.964 64.7846C125.964 64.7846 121.808 58.4128 123.84 51.6733C125.873 44.9338 130.501 40.962 134.461 41.784C138.422 42.6081 142.314 44.6178 142.495 55.8496C142.677 67.0793 135.198 87.308 132.428 89.6977C129.661 92.0895 125.869 94.4069 125.869 92.0069C125.869 89.6068 128.056 69.7127 125.964 64.7846Z" fill="#F47C6B"/>
<path d="M127.346 54.8231C127.346 54.8231 127.034 46.77 131.367 46.3982C135.7 46.0244 135.266 51.3842 134.401 54.094C133.534 56.8059 131.324 61.5398 129.661 61.5398C127.996 61.5398 126.899 59.1791 127.346 54.8231Z" fill="#F9B19D"/>
<path d="M84.3949 109.778C84.3949 109.778 83.5646 106.639 88.9677 107.518C94.3709 108.398 97.4174 109.043 101.205 107.795C104.993 106.548 110.905 102.165 113.075 102.671C115.246 103.179 116.446 104.569 114.878 106.205C113.309 107.843 105.27 112.643 100.598 113.516C95.9282 114.392 89.2362 114.487 87.113 113.516C84.9897 112.548 84.3949 109.778 84.3949 109.778Z" fill="#F47C6B"/>
<path d="M65.9527 141.8C65.9527 141.8 62.9186 131.337 64.2199 125.12C65.519 118.905 69.9473 110.594 72.4093 111.025C74.8712 111.459 69.024 119.334 67.729 122.841C66.434 126.351 66.56 138.599 66.8615 140.197C67.1651 141.796 66.3638 142.601 65.9527 141.8Z" fill="#F47C6B"/>
<path d="M76.7898 119.766L75.1912 113.24C75.1912 113.24 71.2483 126.103 71.3743 128.937C71.4982 131.768 73.2806 141.93 72.725 144.568C72.1715 147.205 68.3525 149 67.799 149.124C67.2434 149.25 67.9849 150.51 71.6985 149.403C75.4122 148.294 76.5295 147.063 76.5295 147.063C76.5295 147.063 72.8469 132.305 73.0018 128.751C73.1588 125.194 76.1578 119.793 76.7898 119.766Z" fill="#E24B3D"/>
<path d="M155.982 60.8003C155.982 60.8003 149.515 52.8609 150.994 47.6932C152.471 42.5255 154.689 40.3299 159.859 43.6305C165.029 46.931 175.197 62.6489 175.379 75.0187C175.56 87.3906 171.686 107.7 156.744 120.811C141.801 133.923 116.634 140.939 107.767 139.284C98.9001 137.63 93.5403 133.931 95.2939 133.375C97.0495 132.822 124.33 133.241 135.661 126.572C146.993 119.9 163.924 101.245 161.338 82.5988C158.75 63.9522 155.982 60.8003 155.982 60.8003Z" fill="#E24C3D"/>
<path d="M110.043 37.5065C110.157 37.7275 110.223 37.9712 110.235 38.2397C110.25 38.5062 110.213 38.7933 110.124 39.099C110.035 39.4046 109.897 39.7248 109.709 40.0552C109.521 40.3878 109.287 40.7265 109.007 41.0714C108.728 41.4164 108.408 41.7613 108.046 42.1062C107.687 42.4511 107.292 42.7878 106.865 43.1203C106.437 43.4508 105.983 43.7709 105.504 44.0746C105.026 44.3802 104.531 44.6673 104.021 44.9358C103.51 45.2023 102.992 45.446 102.469 45.6649C101.945 45.8859 101.426 46.076 100.91 46.2391C100.394 46.4023 99.8898 46.5345 99.4023 46.6336C98.9128 46.7348 98.446 46.8009 98.004 46.836C97.562 46.8691 97.1489 46.8691 96.771 46.834C96.3909 46.7988 96.0501 46.7307 95.7465 46.6315C95.445 46.5303 95.1868 46.3982 94.9741 46.2329C94.7613 46.0698 94.5981 45.8777 94.4825 45.6587C94.3668 45.4377 94.3028 45.194 94.2883 44.9255C94.2759 44.657 94.3131 44.3699 94.4019 44.0642C94.4907 43.7585 94.6291 43.4405 94.8171 43.1079C95.005 42.7754 95.2384 42.4387 95.5173 42.0938C95.7982 41.7489 96.1162 41.404 96.4777 41.059C96.8391 40.7141 97.2336 40.3754 97.6612 40.0449C98.0887 39.7124 98.541 39.3943 99.0202 39.0886C99.4994 38.7829 99.993 38.4958 100.503 38.2294C101.015 37.9609 101.532 37.7172 102.056 37.4982C102.579 37.2793 103.099 37.0872 103.616 36.9241C104.132 36.7609 104.634 36.6308 105.124 36.5296C105.611 36.4304 106.078 36.3623 106.52 36.3292C106.964 36.2962 107.375 36.2962 107.755 36.3313C108.135 36.3643 108.476 36.4325 108.777 36.5337C109.079 36.6349 109.337 36.7671 109.55 36.9303C109.762 37.0934 109.928 37.2855 110.043 37.5065Z" fill="#F2B69E"/>
<path d="M107.743 38.5207C107.821 38.6715 107.864 38.8409 107.871 39.0267C107.877 39.2126 107.846 39.413 107.78 39.6257C107.712 39.8405 107.608 40.0636 107.47 40.2949C107.332 40.5283 107.16 40.7658 106.958 41.0096C106.753 41.2533 106.52 41.497 106.26 41.7407C105.997 41.9865 105.712 42.2261 105.402 42.4615C105.093 42.697 104.766 42.9242 104.421 43.1431C104.076 43.3621 103.719 43.5665 103.351 43.7607C102.984 43.9528 102.612 44.1283 102.236 44.2874C101.86 44.4464 101.486 44.5869 101.117 44.7067C100.747 44.8265 100.386 44.9256 100.036 45C99.6874 45.0764 99.3528 45.1301 99.0368 45.159C98.7208 45.1879 98.4275 45.1941 98.157 45.1734C97.8885 45.1549 97.6447 45.1136 97.432 45.0475C97.2172 44.9814 97.0354 44.8926 96.8867 44.781C96.7359 44.6695 96.6223 44.5394 96.5418 44.3886C96.4633 44.2357 96.4199 44.0684 96.4137 43.8805C96.4075 43.6946 96.4385 43.4963 96.5067 43.2815C96.5728 43.0688 96.676 42.8457 96.8144 42.6123C96.9528 42.3789 97.1242 42.1414 97.3267 41.8977C97.5311 41.654 97.7645 41.4102 98.0248 41.1665C98.2871 40.9228 98.5721 40.6832 98.8819 40.4457C99.1917 40.2102 99.5181 39.983 99.863 39.7641C100.21 39.5472 100.565 39.3407 100.933 39.1486C101.301 38.9565 101.672 38.7789 102.048 38.6199C102.424 38.4608 102.798 38.3204 103.168 38.2006C103.539 38.0808 103.899 37.9837 104.248 37.9073C104.599 37.8309 104.932 37.7792 105.248 37.7503C105.564 37.7193 105.857 37.7152 106.127 37.7338C106.398 37.7524 106.64 37.7958 106.852 37.8619C107.067 37.9279 107.249 38.0168 107.4 38.1262C107.548 38.2378 107.662 38.3699 107.743 38.5207Z" fill="#AF383C"/>
<path d="M77.8173 180.3H81.7593V183H74.2893V170.31H77.8173V180.3ZM82.555 177.942C82.555 176.898 82.741 175.986 83.113 175.206C83.497 174.426 84.013 173.826 84.661 173.406C85.321 172.986 86.053 172.776 86.857 172.776C87.553 172.776 88.153 172.914 88.657 173.19C89.161 173.466 89.551 173.838 89.827 174.306V172.902H93.355V183H89.827V181.596C89.551 182.064 89.155 182.436 88.639 182.712C88.135 182.988 87.541 183.126 86.857 183.126C86.053 183.126 85.321 182.916 84.661 182.496C84.013 182.076 83.497 181.476 83.113 180.696C82.741 179.904 82.555 178.986 82.555 177.942ZM89.827 177.942C89.827 177.294 89.647 176.784 89.287 176.412C88.939 176.04 88.507 175.854 87.991 175.854C87.463 175.854 87.025 176.04 86.677 176.412C86.329 176.772 86.155 177.282 86.155 177.942C86.155 178.59 86.329 179.106 86.677 179.49C87.025 179.862 87.463 180.048 87.991 180.048C88.507 180.048 88.939 179.862 89.287 179.49C89.647 179.118 89.827 178.602 89.827 177.942ZM108.559 172.812C109.831 172.812 110.827 173.196 111.547 173.964C112.279 174.732 112.645 175.782 112.645 177.114V183H109.117V177.582C109.117 177.042 108.967 176.622 108.667 176.322C108.367 176.022 107.959 175.872 107.443 175.872C106.927 175.872 106.519 176.022 106.219 176.322C105.919 176.622 105.769 177.042 105.769 177.582V183H102.241V177.582C102.241 177.042 102.091 176.622 101.791 176.322C101.503 176.022 101.101 175.872 100.585 175.872C100.057 175.872 99.6434 176.022 99.3434 176.322C99.0434 176.622 98.8934 177.042 98.8934 177.582V183H95.3654V172.902H98.8934V174.234C99.2054 173.802 99.6074 173.46 100.099 173.208C100.603 172.944 101.179 172.812 101.827 172.812C102.571 172.812 103.231 172.974 103.807 173.298C104.395 173.622 104.857 174.078 105.193 174.666C105.553 174.114 106.027 173.67 106.615 173.334C107.203 172.986 107.851 172.812 108.559 172.812ZM118.106 174.306C118.382 173.826 118.772 173.454 119.276 173.19C119.78 172.914 120.374 172.776 121.058 172.776C121.862 172.776 122.588 172.986 123.236 173.406C123.896 173.826 124.412 174.426 124.784 175.206C125.168 175.986 125.36 176.898 125.36 177.942C125.36 178.986 125.168 179.904 124.784 180.696C124.412 181.476 123.896 182.076 123.236 182.496C122.588 182.916 121.862 183.126 121.058 183.126C120.374 183.126 119.78 182.994 119.276 182.73C118.772 182.454 118.382 182.076 118.106 181.596V183H114.578V169.68H118.106V174.306ZM121.778 177.942C121.778 177.282 121.598 176.772 121.238 176.412C120.89 176.04 120.458 175.854 119.942 175.854C119.426 175.854 118.988 176.04 118.628 176.412C118.28 176.784 118.106 177.294 118.106 177.942C118.106 178.602 118.28 179.118 118.628 179.49C118.988 179.862 119.426 180.048 119.942 180.048C120.458 180.048 120.89 179.862 121.238 179.49C121.598 179.106 121.778 178.59 121.778 177.942ZM137.145 172.902V183H133.599V181.56C133.299 182.016 132.885 182.388 132.357 182.676C131.829 182.952 131.223 183.09 130.539 183.09C129.363 183.09 128.433 182.706 127.749 181.938C127.077 181.158 126.741 180.102 126.741 178.77V172.902H130.251V178.32C130.251 178.896 130.401 179.352 130.701 179.688C131.013 180.012 131.421 180.174 131.925 180.174C132.441 180.174 132.849 180.012 133.149 179.688C133.449 179.352 133.599 178.896 133.599 178.32V172.902H137.145ZM145.759 172.812C146.923 172.812 147.847 173.202 148.531 173.982C149.215 174.75 149.557 175.794 149.557 177.114V183H146.029V177.582C146.029 177.006 145.879 176.556 145.579 176.232C145.279 175.896 144.877 175.728 144.373 175.728C143.845 175.728 143.431 175.896 143.131 176.232C142.831 176.556 142.681 177.006 142.681 177.582V183H139.153V172.902H142.681V174.342C142.993 173.886 143.413 173.52 143.941 173.244C144.469 172.956 145.075 172.812 145.759 172.812ZM155.218 172.776C155.902 172.776 156.496 172.914 157 173.19C157.516 173.466 157.912 173.838 158.188 174.306V172.902H161.716V182.892C161.716 183.84 161.536 184.692 161.176 185.448C160.816 186.216 160.252 186.828 159.484 187.284C158.728 187.74 157.768 187.968 156.604 187.968C155.044 187.968 153.796 187.602 152.86 186.87C151.924 186.138 151.39 185.142 151.258 183.882H154.732C154.804 184.206 154.984 184.458 155.272 184.638C155.56 184.818 155.932 184.908 156.388 184.908C157.588 184.908 158.188 184.236 158.188 182.892V181.596C157.912 182.064 157.516 182.436 157 182.712C156.496 182.988 155.902 183.126 155.218 183.126C154.414 183.126 153.682 182.916 153.022 182.496C152.374 182.076 151.858 181.476 151.474 180.696C151.102 179.904 150.916 178.986 150.916 177.942C150.916 176.898 151.102 175.986 151.474 175.206C151.858 174.426 152.374 173.826 153.022 173.406C153.682 172.986 154.414 172.776 155.218 172.776ZM158.188 177.942C158.188 177.294 158.008 176.784 157.648 176.412C157.3 176.04 156.868 175.854 156.352 175.854C155.824 175.854 155.386 176.04 155.038 176.412C154.69 176.772 154.516 177.282 154.516 177.942C154.516 178.59 154.69 179.106 155.038 179.49C155.386 179.862 155.824 180.048 156.352 180.048C156.868 180.048 157.3 179.862 157.648 179.49C158.008 179.118 158.188 178.602 158.188 177.942Z" fill="black"/>
</svg>
