<svg width="234" height="243" viewBox="0 0 234 243" fill="none" xmlns="http://www.w3.org/2000/svg">
<rect width="234" height="243" rx="12" fill="#189FE3"/>
<rect x="13" y="13" width="207" height="202" rx="8" fill="white"/>
<ellipse cx="116" cy="229.5" rx="6" ry="6.5" fill="#444444"/>
<path d="M108.695 87.6206C109.936 87.8624 111.098 88.6684 111.857 89.8137C112.082 90.1529 112.404 90.5728 112.743 90.3947C112.921 90.2991 113.017 90.0555 113.083 89.8474C113.664 87.8306 113.937 85.377 115.551 84.3461C115.679 84.2655 115.825 84.1849 115.889 84.0387C116.067 83.6357 115.566 83.2964 115.18 83.184C111.242 82.0874 107.501 80.0387 104.273 77.2478L88.4476 76.5205L82.3165 90.0086" fill="#3770AF"/>
<path d="M133.264 77.248C130.036 80.054 126.295 82.0877 122.359 83.1842C121.971 83.2967 121.47 83.636 121.648 84.039C121.712 84.1852 121.858 84.2658 121.988 84.3464C123.6 85.3773 123.875 87.8308 124.454 89.8477C124.52 90.0726 124.601 90.2994 124.794 90.395C125.133 90.5731 125.455 90.1532 125.682 89.8139C126.439 88.6537 127.601 87.8458 128.844 87.6209" fill="#3770AF"/>
<path d="M131.36 76.5054H148.525L135.039 88.7657L127.682 86.314" fill="#3770AF"/>
<path d="M96.8202 90.4753C96.0949 88.7827 96.6422 86.7003 97.6262 85.2008C98.6103 83.6994 99.9823 82.6029 101.191 81.3283C106.419 75.7464 108.097 66.2601 105.176 58.7907C102.256 51.3212 94.9327 46.4497 87.8176 47.2088C83.8345 47.6287 80.0913 49.6287 76.6218 51.9192C72.412 54.6783 68.3783 57.9847 65.4749 62.4382C60.6521 69.8252 59.4899 79.5383 59.4581 88.7659C59.4243 98.3159 60.6521 108.447 65.9584 115.804C68.1852 118.885 71.0249 121.32 74.1064 123.193C79.8495 126.677 86.8185 128.21 92.9328 125.628C99.047 123.047 103.774 115.706 102.756 108.366C101.821 101.559 96.4322 95.8154 97.1595 88.9908" fill="#D67A72"/>
<path d="M96.7718 87.8307C96.74 85.6208 99.2235 84.6836 101.145 84.6367C103.338 84.588 105.806 85.0078 107.145 86.9909C109.098 89.9112 107.484 94.0087 107.081 97.6393C106.226 105.302 111.098 112.093 113.049 119.482C115.131 127.403 113.615 136.437 109.13 142.906C107.823 139.777 108.371 136.115 108.629 132.679C109.178 125.676 108.436 118.546 106.468 111.883C105.21 107.575 103.418 103.285 103.677 98.7677C103.79 96.719 104.322 94.6066 103.741 92.6703C103.145 90.7341 100.644 89.4914 99.5797 91.1202" fill="#BC3D35"/>
<mask id="mask0_10_571" style="mask-type:luminance" maskUnits="userSpaceOnUse" x="130" y="46" width="48" height="82">
<path d="M130.745 46.9595H178V127.093H130.745V46.9595Z" fill="white"/>
</mask>
<g mask="url(#mask0_10_571)">
<path d="M140.733 90.4751C141.459 88.7825 140.909 86.7 139.925 85.2005C138.941 83.6992 137.571 82.6026 136.36 81.3281C131.134 75.7461 129.457 66.2599 132.375 58.7904C135.296 51.321 142.621 46.4494 149.734 47.2086C153.719 47.6284 157.462 49.6284 160.93 51.9189C165.141 54.678 169.175 57.9844 172.079 62.438C176.901 69.8249 178.063 79.538 178.095 88.7656C178.127 98.3156 176.901 108.447 171.595 115.804C169.368 118.885 166.528 121.32 163.447 123.193C157.704 126.677 150.735 128.21 144.621 125.627C138.506 123.046 133.779 115.706 134.795 108.366C135.732 101.558 141.119 95.8152 140.394 88.9906" fill="#D67A72"/>
</g>
<path d="M140.782 87.8307C140.814 85.6208 138.329 84.6836 136.409 84.6367C134.216 84.588 131.748 85.0078 130.407 86.9909C128.456 89.9112 130.07 94.0087 130.473 97.6393C131.328 105.302 126.456 112.093 124.503 119.482C122.423 127.403 123.939 136.437 128.424 142.906C129.731 139.777 129.182 136.115 128.925 132.679C128.376 125.676 129.118 118.546 131.086 111.883C132.344 107.575 134.136 103.285 133.877 98.7677C133.765 96.719 133.232 94.6066 133.811 92.6703C134.409 90.7341 136.91 89.4914 137.974 91.1202" fill="#BC3D35"/>
<mask id="mask1_10_571" style="mask-type:luminance" maskUnits="userSpaceOnUse" x="56" y="46" width="50" height="83">
<path d="M56 46H105.313V128.053H56V46Z" fill="white"/>
</mask>
<g mask="url(#mask1_10_571)">
<path d="M94.7548 90.4117C93.304 86.2806 97.8044 83.5552 100.046 80.8936C102.144 78.4081 103.548 75.3923 104.307 72.247C105.87 65.7935 104.805 58.7589 100.659 53.4844C96.7397 48.4835 90.4156 45.4658 84.0595 46.6598C80.2039 47.3852 76.7025 49.387 73.4767 51.5482C70.3634 53.6287 67.4112 55.9848 64.9426 58.8077C60.0055 64.5021 57.7956 71.7466 56.909 79.1017C56.0055 86.5711 56.0374 94.4285 57.3607 101.849C58.6353 109.028 61.5537 115.885 67.1525 120.756C72.6857 125.564 80.3651 128.824 87.7708 127.322C94.3686 125.984 99.5626 120.434 100.998 113.933C101.772 110.464 101.289 107.028 100.063 103.72C98.8522 100.445 97.094 97.3638 96.1587 93.9937C95.7069 92.348 95.497 90.6535 95.6264 88.9591C95.692 87.975 94.2224 88.0069 94.11 88.9591C93.304 95.7668 98.3536 101.366 99.5626 107.802C100.74 114.11 97.3358 120.917 91.8513 124.111C85.5271 127.791 77.6229 125.886 71.7673 122.192C68.7008 120.256 65.9435 117.755 63.9098 114.739C62.0223 111.948 60.7159 108.803 59.8124 105.561C57.908 98.6553 57.6981 91.2983 58.0542 84.185C58.4085 77.1017 59.6344 69.7297 63.3606 63.5836C65.2332 60.4852 67.7505 57.8555 70.5395 55.5818C73.3792 53.2745 76.5263 51.1602 79.8496 49.6288C82.9143 48.208 86.3013 47.4658 89.6583 48.1443C92.5767 48.7403 95.2871 50.193 97.482 52.2098C102.273 56.6146 104.192 63.1956 103.418 69.5685C103.047 72.7138 101.999 75.7952 100.305 78.4737C99.4014 79.9095 98.288 81.1035 97.1109 82.2975C95.9338 83.4896 94.8354 84.7005 94.2712 86.2974C93.7707 87.7014 93.6901 89.2177 94.288 90.5879C94.4005 90.8634 94.8522 90.6854 94.7548 90.4117Z" fill="#A94744"/>
</g>
<path d="M94.6742 87.8304C94.8354 85.7011 97.2721 85.1031 99.0471 85.1519C101.111 85.2006 103.386 85.6523 104.468 87.6354C105.548 89.6204 105.015 92.1209 104.612 94.2183C104.16 96.5257 103.774 98.7674 103.999 101.124C104.434 105.817 106.483 110.124 108.194 114.449C109.935 118.868 111.049 123.322 110.839 128.096C110.614 133.226 109.049 138.293 106.145 142.534C106.629 142.6 107.113 142.664 107.596 142.729C106.114 139.018 107.049 134.889 107.242 131.033C107.452 126.838 107.193 122.628 106.5 118.497C105.823 114.432 104.548 110.576 103.386 106.64C102.805 104.657 102.29 102.623 102.192 100.542C102.095 98.5744 102.547 96.6381 102.532 94.67C102.515 92.895 102.014 91.1537 100.451 90.1527C99.1277 89.298 97.5457 89.4424 96.6273 90.7507C96.0462 91.5717 97.3696 92.2989 97.9656 91.5248C98.7247 90.5239 100.161 91.7816 100.547 92.5238C101.355 94.1058 100.854 96.2183 100.693 97.8958C100.322 101.624 101.272 105.221 102.385 108.737C103.516 112.334 104.548 115.916 105.113 119.659C105.694 123.466 105.87 127.339 105.677 131.177C105.484 135.146 104.58 139.34 106.097 143.147C106.355 143.794 107.144 143.938 107.549 143.342C110.355 139.228 111.937 134.356 112.372 129.419C112.824 124.209 111.791 119.256 109.889 114.417C108.016 109.641 105.499 104.784 105.484 99.5416C105.467 95.2829 108.436 89.2324 104.644 85.7817C102.966 84.2484 100.354 83.8773 98.1755 84.2166C96.2712 84.5071 94.1906 85.6523 94.2712 87.8454C94.2393 88.1209 94.6592 88.104 94.6742 87.8304Z" fill="#A94744"/>
<path d="M101.724 77.4728C103.418 79.1016 105.257 80.5055 107.322 81.6358C108.306 82.1681 109.307 82.6517 110.34 83.0547C110.887 83.2646 111.452 83.4746 112.018 83.6526C112.113 83.6845 112.856 83.99 112.872 83.7482C112.872 83.797 112.436 84.0706 112.404 84.1044C111.017 85.3133 110.677 87.3133 110.226 89.0078C110.177 89.2008 110.05 89.4595 110.05 89.6694C110.355 89.7181 110.387 89.6525 110.162 89.4595C110.096 89.347 110.016 89.2496 109.935 89.1371C109.613 88.7172 109.259 88.3311 108.839 88.0068C108.113 87.4276 107.129 86.8466 106.177 87.0228C105.596 87.1371 105.628 87.8944 106.031 88.1849C106.548 88.556 107.21 88.6535 107.742 89.0246C108.258 89.3958 108.629 89.8625 109 90.3798C109.613 91.2027 110.726 91.5888 111.307 90.4604C111.776 89.5232 111.856 88.378 112.145 87.3789C112.308 86.8128 112.516 86.2337 112.841 85.7332C113.129 85.2965 113.534 85.0884 113.905 84.7323C114.792 83.8776 113.952 82.8448 113.034 82.5392C111.823 82.1194 110.597 81.7651 109.42 81.2647C106.822 80.1663 104.353 78.6836 102.112 76.9723C101.838 76.7155 101.467 77.2141 101.724 77.4728Z" fill="#A94744"/>
<path d="M138.636 90.6045C140.04 87.3299 137.813 84.329 135.604 82.1191C133.328 79.8436 131.602 77.2626 130.554 74.198C128.488 68.1812 128.94 61.1466 132.456 55.7427C135.716 50.725 141.652 47.1768 147.751 48.0146C151.575 48.547 155.043 50.5001 158.205 52.5806C161.14 54.5169 163.931 56.6781 166.319 59.291C171.271 64.7117 173.53 71.795 174.418 78.9739C175.29 86.0385 175.305 93.476 174.192 100.526C173.095 107.448 170.578 114.175 165.352 119.015C160.254 123.757 152.767 127.193 145.703 125.822C139.266 124.58 134.378 119.078 133.313 112.674C132.168 105.736 137.007 100.154 138.507 93.7178C138.878 92.1527 139.007 90.5726 138.814 88.9588C138.7 88.0066 137.215 87.9597 137.296 88.9588C137.813 96.2033 132.183 102.01 131.57 109.077C131.006 115.626 134.764 122.402 140.458 125.596C147.041 129.29 155.204 127.629 161.382 123.918C164.544 122.015 167.384 119.579 169.611 116.627C171.772 113.755 173.288 110.432 174.338 106.996C176.482 99.8977 176.773 92.2502 176.467 84.8782C176.145 77.4238 174.951 69.6638 171.11 63.1316C169.208 59.9039 166.675 57.1129 163.787 54.7418C160.867 52.3389 157.656 50.1289 154.237 48.4832C151.026 46.9331 147.51 46.0147 143.943 46.4983C140.846 46.9181 137.958 48.2564 135.523 50.1758C130.263 54.322 127.65 60.8879 127.941 67.5026C128.085 70.8109 128.891 74.1005 130.376 77.0695C131.086 78.5053 131.973 79.8286 133.022 81.0376C134.216 82.4246 135.667 83.5549 136.829 84.9738C138.055 86.4902 138.846 88.4583 138.168 90.3945C138.072 90.6682 138.524 90.8781 138.636 90.6045Z" fill="#A94744"/>
<path d="M138.685 87.8306C138.846 83.5551 132.263 83.6039 129.633 84.8785C124.681 87.2646 126.94 93.525 127.375 97.6543C127.956 102.931 125.729 107.883 123.778 112.642C122.794 115.062 121.81 117.513 121.229 120.063C120.664 122.482 120.423 124.968 120.471 127.451C120.599 133.065 122.23 138.696 125.407 143.342C125.81 143.939 126.601 143.794 126.859 143.148C128.198 139.809 127.65 136.179 127.375 132.694C127.084 128.838 127.165 124.951 127.633 121.112C128.102 117.32 129.005 113.643 130.151 110.012C131.247 106.56 132.424 103.043 132.344 99.3656C132.312 97.3319 131.65 95.1857 132.168 93.1708C132.392 92.2823 134.006 90.2505 134.974 91.525C135.555 92.2992 136.893 91.5719 136.312 90.7509C135.523 89.6038 134.231 89.3151 132.974 89.8793C131.633 90.4754 130.796 91.75 130.537 93.1708C130.183 95.1389 130.666 97.0901 130.747 99.0751C130.827 101.156 130.473 103.204 129.941 105.221C128.908 109.174 127.455 112.981 126.698 116.998C125.924 121.064 125.553 125.21 125.633 129.356C125.682 131.614 125.924 133.856 126.068 136.115C126.215 138.373 126.181 140.615 125.326 142.745C125.81 142.681 126.295 142.615 126.779 142.551C124.198 138.793 122.664 134.357 122.213 129.823C121.729 125.112 122.471 120.546 124.1 116.126C125.714 111.722 127.941 107.448 128.715 102.784C129.086 100.543 129.069 98.3159 128.666 96.0742C128.263 93.8474 127.521 91.4594 127.941 89.1858C128.408 86.6198 130.537 85.4258 132.989 85.2327C134.942 85.0884 138.072 85.3452 138.265 87.8794C138.265 88.1043 138.685 88.1211 138.685 87.8306Z" fill="#A94744"/>
<path d="M130.779 76.9572C128.554 78.6835 126.069 80.1661 123.471 81.2476C122.279 81.7481 121.068 82.1024 119.859 82.5222C118.938 82.8296 118.099 83.8605 118.987 84.7171C119.358 85.0714 119.744 85.2645 120.052 85.7162C120.374 86.2166 120.567 86.7808 120.745 87.3619C121.036 88.346 121.116 89.5081 121.583 90.4434C122.149 91.5718 123.263 91.2025 123.891 90.3628C124.262 89.8473 124.618 89.3787 125.15 89.0076C125.682 88.6196 126.342 88.539 126.86 88.1679C127.263 87.8942 127.294 87.1201 126.713 87.0076C125.763 86.8296 124.779 87.4275 124.052 87.9917C123.666 88.2972 123.343 88.6365 123.036 89.0245C122.987 89.0882 122.44 89.7667 122.713 89.6374C122.892 89.6843 122.907 89.6205 122.777 89.4275C122.745 89.315 122.713 89.2007 122.682 89.0882C122.23 87.3619 121.891 85.3132 120.472 84.0705C120.438 84.0555 120.003 83.7331 120.003 83.7162C120.003 83.9411 120.616 83.6993 120.728 83.6525C121.295 83.4744 121.859 83.2814 122.406 83.0714C123.456 82.6684 124.455 82.1998 125.439 81.6675C127.553 80.5223 129.424 79.0865 131.167 77.4408C131.457 77.214 131.086 76.7154 130.779 76.9572Z" fill="#A94744"/>
<path d="M82.3332 73.6659C84.0107 73.5684 85.4953 74.4231 86.8673 75.2947C88.0763 76.0688 89.319 76.828 90.3031 77.8758C92.1906 79.8926 93.1428 82.5861 94.0293 85.1353C94.3517 86.0556 95.8363 85.6526 95.497 84.7323C94.4323 81.8457 93.304 78.7961 90.9966 76.6499C89.8026 75.5534 88.3668 74.7624 86.931 74.052C85.4465 73.3116 83.9301 72.7793 82.2694 73.1336C81.962 73.1823 82.0276 73.6827 82.3332 73.6659Z" fill="#A94744"/>
<path d="M93.8852 72.5842C95.3359 73.9394 96.1101 75.7782 96.5131 77.6994C96.7399 78.7641 96.8205 79.8437 96.8842 80.9252C96.9011 81.4088 96.8523 81.9411 96.9179 82.4097C96.8523 82.7321 96.8842 82.7959 96.9985 82.6197C97.111 82.4735 97.0941 82.4903 96.9179 82.6347C96.8842 82.6834 96.8373 82.7321 96.8036 82.7809C96.4175 83.4425 97.1597 84.0704 97.7876 83.7649C98.708 83.3132 98.3368 81.7162 98.2731 80.9252C98.1925 79.6825 98.0313 78.4248 97.692 77.2308C97.1279 75.1821 95.9807 73.3583 94.2713 72.0687C93.9808 71.8419 93.6096 72.3274 93.8852 72.5842Z" fill="#A94744"/>
<path d="M80.8654 90.5408C83.5102 91.2174 86.318 91.1537 88.9309 90.3308C90.2224 89.9278 91.4482 89.3149 92.5616 88.5389C93.4163 87.9428 94.9814 87.0394 94.8202 85.8285C94.8034 85.6673 94.6253 85.5867 94.481 85.5717C93.8999 85.5399 93.5288 85.9091 93.1258 86.2803C92.6909 86.6851 92.2392 87.0563 91.7537 87.3937C90.7378 88.104 89.6244 88.6851 88.4642 89.12C86.1081 90.0234 83.5439 90.299 81.0435 89.8304C80.6068 89.7816 80.4137 90.4264 80.8654 90.5408Z" fill="#A94744"/>
<path d="M88.8017 101.058C90.5449 101.349 91.9001 100.333 92.8354 98.9458C93.4165 98.0911 93.8851 97.1389 94.3837 96.2355C94.7717 95.5251 95.3209 94.7997 94.498 94.2017C94.2881 94.0406 93.8682 94.0893 93.6901 94.2992C93.6751 94.3161 93.6583 94.3311 93.6414 94.348C93.3677 94.7022 93.4165 95.2514 93.9169 95.3807C93.9319 95.3807 93.9657 95.3957 93.9807 95.3957C93.8195 95.1858 93.6583 94.9777 93.4971 94.7509C93.4971 95.1858 92.9479 95.9449 92.7548 96.3479C92.4812 96.929 92.2056 97.4932 91.9001 98.0574C91.2872 99.2364 90.3837 100.511 88.8823 100.397C88.5112 100.382 88.4306 100.995 88.8017 101.058Z" fill="#A94744"/>
<path d="M61.732 92.8634C62.345 98.5428 63.1359 104.301 65.8294 109.431C66.9428 111.56 68.4105 113.577 70.1855 115.223C71.7506 116.676 74.0899 118.595 76.3316 118.644C76.8808 118.659 76.9446 117.982 76.5903 117.708C75.7187 117.03 74.6053 116.642 73.67 116.063C72.6859 115.465 71.7994 114.739 70.9596 113.948C69.2821 112.351 67.9119 110.496 66.7985 108.464C64.2006 103.673 63.1847 98.138 62.2812 92.8147C62.2325 92.4754 61.7002 92.541 61.732 92.8634Z" fill="#A94744"/>
<path d="M79.6718 120.483C80.429 120.949 81.2519 121.257 82.1403 121.369C82.7851 121.45 83.8498 121.579 84.1722 120.886C84.2378 120.724 84.2378 120.546 84.1084 120.417C83.6398 119.965 83.0757 120.224 82.4796 120.224C81.6399 120.241 80.8489 120.095 80.0916 119.74C79.608 119.514 79.1882 120.192 79.6718 120.483Z" fill="#A94744"/>
<path d="M172.756 77.0063C174.467 86.4101 173.386 96.4287 170.143 105.4C169.24 107.932 167.852 110.303 167.093 112.867C166.981 113.255 167.53 113.609 167.804 113.287C169.337 111.48 170.224 109.158 171.063 106.963C171.967 104.609 172.707 102.204 173.256 99.752C174.338 94.9779 174.773 90.0239 174.45 85.1355C174.257 82.3614 173.837 79.6023 173.256 76.877C173.193 76.5208 172.692 76.667 172.756 77.0063Z" fill="#A94744"/>
<path d="M165.384 114.659C165.076 115.562 164.463 116.385 163.674 116.932C163.012 117.384 162.012 117.482 161.464 118.031C161.269 118.224 161.318 118.546 161.545 118.676C162.463 119.225 163.802 118.402 164.512 117.821C165.432 117.062 166.045 116.046 166.255 114.884C166.368 114.336 165.577 114.11 165.384 114.659Z" fill="#A94744"/>
<path d="M142.218 72.3275C140.25 73.1166 138.668 74.9235 137.62 76.7154C137.071 77.6508 136.619 78.6667 136.329 79.7145C136.168 80.2955 136.038 80.8934 135.958 81.4895C135.926 81.7163 135.894 81.9581 135.877 82.183C135.86 82.3442 135.845 82.5223 135.828 82.6835C135.733 82.8765 135.733 82.8934 135.828 82.7491C135.667 82.8765 135.635 83.2008 135.748 83.377C136.346 84.2167 137.169 83.4895 137.264 82.7153C137.41 81.4089 137.555 80.2149 137.975 78.9741C138.734 76.7154 140.233 73.9713 142.443 72.8748C142.734 72.7136 142.524 72.1982 142.218 72.3275Z" fill="#A94744"/>
<path d="M134.36 74.1663C133.264 76.5055 132.553 79.2628 133.054 81.8457C133.183 82.4736 134.248 82.3443 134.199 81.6845C134.006 79.1503 133.972 76.7961 134.893 74.3762C135.022 74.0857 134.507 73.8589 134.36 74.1663Z" fill="#A94744"/>
<path d="M149.895 80.4249C147.412 84.0068 143.249 86.3461 138.878 86.4585C137.894 86.4904 137.894 88.0236 138.878 87.9918C143.734 87.8624 148.298 85.1352 150.574 80.8129C150.799 80.3761 150.171 80.0219 149.895 80.4249Z" fill="#A94744"/>
<path d="M146.154 93.8794C145.009 94.9609 142.863 94.4117 141.588 93.8306C140.927 93.542 140.314 93.1371 139.782 92.6535C139.232 92.1531 138.878 91.4595 138.185 91.169C137.797 91.0078 137.33 91.4108 137.345 91.7988C137.394 92.7191 138.314 93.4127 139.007 93.945C139.798 94.5579 140.685 95.0246 141.637 95.3152C143.315 95.8475 145.525 95.9131 146.816 94.5092C147.202 94.0893 146.589 93.4764 146.154 93.8794Z" fill="#A94744"/>
<path d="M141.847 101.009C140.782 100.736 139.83 100.106 139.168 99.2361C138.49 98.3327 138.475 97.2999 138.023 96.299C137.926 96.1059 137.635 95.9278 137.41 95.9447C136.602 96.0422 136.7 96.6701 136.91 97.283C137.168 98.0909 137.345 98.8481 137.845 99.5585C138.765 100.865 140.135 101.639 141.717 101.817C142.201 101.881 142.299 101.124 141.847 101.009Z" fill="#A94744"/>
<path d="M81.591 71.2947C82.6875 71.1654 83.7522 71.261 84.8018 71.6171C85.2704 71.7783 87.8983 72.9067 87.5441 73.634C87.4803 73.7633 87.5272 73.9395 87.6903 73.9882C87.7221 73.9882 87.754 74.0051 87.7859 74.0051C87.8833 74.037 88.0277 74.0051 88.0933 73.9245C88.8824 72.9236 86.7381 71.8102 86.0596 71.4878C84.6407 70.8111 83.0755 70.6162 81.5273 70.8917C81.3005 70.9236 81.3492 71.3266 81.591 71.2947Z" fill="#A94744"/>
<path d="M86.2211 71.0044C86.834 71.1 87.4151 71.3099 87.9324 71.6661C88.416 71.9885 88.7215 72.5358 89.207 72.8113C89.415 72.9406 89.6418 72.7307 89.5931 72.5208C89.4638 71.9229 88.7553 71.4243 88.2379 71.1169C87.6419 70.7457 86.9802 70.5358 86.2867 70.4552C85.9962 70.4065 85.9156 70.9557 86.2211 71.0044Z" fill="#A94744"/>
<path d="M87.8178 83.604C89.4148 84.5712 90.5282 86.0069 91.1411 87.7651C91.2554 87.6208 91.351 87.4746 91.4654 87.3453C91.2067 87.3134 90.9968 87.3303 90.7381 87.394C90.5938 87.4277 90.5938 87.6208 90.7062 87.6845C90.933 87.8457 91.1261 87.9263 91.3829 88.0069C91.6266 88.0725 91.8834 87.8457 91.8028 87.5889C91.158 85.7014 89.8347 84.1363 88.0934 83.1354C87.786 82.9573 87.5273 83.4259 87.8178 83.604Z" fill="#A94744"/>
<path d="M87.7538 85.9748C88.1418 86.1678 88.4642 86.4434 88.6892 86.8126C88.8822 87.1369 88.9478 87.523 89.2215 87.7817C89.3021 87.8454 89.4314 87.8454 89.4802 87.7498C89.722 87.3131 89.4633 86.8126 89.1896 86.4434C88.8991 86.0235 88.4961 85.6842 88.0275 85.4743C87.722 85.3131 87.4315 85.7967 87.7538 85.9748Z" fill="#A94744"/>
<path d="M84.3987 87.0228C82.365 87.362 80.3013 87.6526 78.2676 88.0406C78.4138 88.1212 78.5581 88.2018 78.7193 88.2974C78.6874 88.0406 78.6068 87.8456 78.4775 87.6207C78.3969 87.4745 78.2038 87.5232 78.1382 87.6694C78.0426 87.9262 78.0089 88.1362 78.0089 88.4117C78.0089 88.6685 78.2357 88.7978 78.4606 88.766C80.4944 88.4117 82.5112 87.96 84.528 87.572C84.8823 87.4745 84.7211 86.959 84.3987 87.0228Z" fill="#A94744"/>
<path d="M80.6727 84.7172C79.9942 84.571 79.3006 84.4904 78.5903 84.4735C78.0579 84.4735 77.3494 84.3779 76.9614 84.7809C76.8639 84.8784 76.8977 85.0227 76.9933 85.0883C77.43 85.362 77.9773 85.1839 78.4609 85.1839C79.1394 85.1839 79.8161 85.2645 80.4778 85.3938C80.9295 85.4913 81.1244 84.8128 80.6727 84.7172Z" fill="#A94744"/>
<path d="M90.2863 94.6536C89.6246 95.6714 88.8018 96.558 87.8177 97.2515C87.3828 97.5589 86.9311 97.8325 86.4625 98.0743C86.0108 98.3011 85.4785 98.4136 85.0923 98.736C84.8824 98.9141 85.0755 99.2027 85.2854 99.2196C86.3013 99.2852 87.5928 98.333 88.35 97.7351C89.3341 96.9609 90.1569 96.0088 90.8036 94.9291C90.9967 94.6386 90.4962 94.348 90.2863 94.6536Z" fill="#A94744"/>
<path d="M85.3023 95.5418C84.2527 96.0572 83.3005 96.7676 82.5601 97.6711C82.7213 97.6711 82.8975 97.6711 83.0587 97.6711C82.9312 97.5586 82.8975 97.4293 82.8338 97.2512C82.8019 97.1387 82.6557 97.0581 82.5432 97.1387C82.1721 97.3974 82.2359 97.881 82.5601 98.1715C82.6876 98.3009 82.9312 98.3159 83.0587 98.1715C83.801 97.3168 84.6238 96.6214 85.6247 96.0891C85.9959 95.896 85.6735 95.3637 85.3023 95.5418Z" fill="#A94744"/>
<path d="M67.6044 62.8563C62.6036 68.6163 61.6195 76.7962 62.2812 84.1513C62.4742 84.0388 62.6673 83.9263 62.8622 83.8139C62.7966 83.7333 62.7329 83.6358 62.6673 83.5552C62.6036 83.3134 62.2324 83.3134 62.1687 83.5552C62.0712 83.9263 62.135 84.1363 62.3936 84.4268C62.6204 84.6836 63.0722 84.4737 63.0553 84.1513C62.9091 80.2638 62.7816 76.425 63.5708 72.5844C64.2812 69.1805 65.6363 65.8254 67.8312 63.0981C67.9756 62.922 67.7506 62.6952 67.6044 62.8563Z" fill="#A94744"/>
<path d="M64.313 79.1016C64.3786 80.0219 64.3936 80.9741 64.5229 81.8776C64.5885 82.3293 65.3139 82.1513 65.2333 81.6845C65.1846 81.409 65.1358 81.1353 65.0402 80.8767C64.9746 80.7155 64.7497 80.6986 64.6841 80.8767C64.5885 81.1672 64.5548 81.4746 64.5229 81.7801C64.7647 81.7801 65.0065 81.7801 65.2483 81.7801C65.2014 80.8767 65.0402 79.9901 64.9259 79.1016C64.8622 78.7305 64.2811 78.7155 64.313 79.1016Z" fill="#A94744"/>
<path d="M98.0459 57.1938C99.2886 57.8404 100.046 58.9857 100.434 60.3071C100.546 60.6951 101.32 64.6482 100.612 64.7288C100.402 64.7438 100.224 65.0193 100.417 65.1805C100.902 65.6004 101.386 65.1805 101.547 64.6482C101.821 63.7448 101.53 62.4702 101.386 61.5499C101.079 59.5817 100.175 57.6136 98.3046 56.7102C98.014 56.5659 97.7404 57.0326 98.0459 57.1938Z" fill="#A94744"/>
<path d="M97.1112 61.4542C97.8853 62.502 98.1927 63.7447 97.9827 65.0343C98.1927 64.9706 98.4176 64.9218 98.6275 64.8581C98.3539 64.6482 98.1439 64.487 97.8215 64.3726C97.6116 64.3089 97.4973 64.5338 97.5629 64.6969C97.6922 64.9856 97.8534 65.1636 98.0783 65.3904C98.2733 65.5835 98.6763 65.5179 98.725 65.2124C98.9668 63.696 98.5638 62.2433 97.6116 61.0493C97.3848 60.7925 96.8844 61.1637 97.1112 61.4542Z" fill="#A94744"/>
<path d="M94.9646 63.4695C95.2233 64.2455 95.4164 65.0196 95.497 65.8424C95.5626 66.4385 95.4482 67.0514 95.7238 67.5838C95.8043 67.7449 96.0461 67.73 96.1267 67.5838C96.466 67.0196 96.3048 66.2773 96.2073 65.6325C96.0949 64.8247 95.8999 64.0505 95.6263 63.2764C95.4651 62.8734 94.8203 63.0515 94.9646 63.4695Z" fill="#A94744"/>
<path d="M96.6105 112.498C96.7399 113.497 96.6274 114.498 96.2713 115.45C95.9489 116.288 95.2722 117.74 94.142 117.482C93.9658 117.433 93.8196 117.626 93.9002 117.789C94.5618 119.062 96.0613 117.418 96.4325 116.756C97.2085 115.416 97.4165 113.868 97.1279 112.351C97.0791 111.997 96.5618 112.158 96.6105 112.498Z" fill="#A94744"/>
<path d="M93.9978 112.949C93.6266 114.222 93.0287 116.578 91.4317 116.675C91.2705 116.69 91.175 116.869 91.3024 116.998C91.9322 117.643 92.7869 117.047 93.2237 116.497C93.9659 115.562 94.337 114.256 94.6107 113.125C94.7082 112.722 94.1102 112.561 93.9978 112.949Z" fill="#A94744"/>
<path d="M91.4972 113.045C91.2554 113.513 90.9967 113.98 90.7549 114.449C90.6425 114.674 90.5281 114.884 90.4157 115.11C90.3519 115.24 90.2863 115.352 90.2226 115.482C90.2545 115.626 90.2376 115.675 90.1907 115.594C90.1251 115.53 90.0295 115.53 89.9471 115.562C89.9321 115.562 89.9152 115.577 89.9002 115.577C89.7859 115.626 89.739 115.787 89.7709 115.901C89.9002 116.466 90.5281 116.368 90.8037 115.982C91.336 115.206 91.6734 114.222 92.0782 113.367C92.2226 112.996 91.6903 112.674 91.4972 113.045Z" fill="#A94744"/>
<path d="M103.386 83.4747C104.29 83.6997 105.176 83.9902 106.031 84.3613C106.661 84.6369 107.274 85.1205 107.952 85.216C108.082 85.2329 108.177 85.0549 108.097 84.9593C107.662 84.3932 106.871 84.1514 106.226 83.8777C105.338 83.5066 104.434 83.2329 103.499 83.023C103.225 82.9424 103.096 83.3941 103.386 83.4747Z" fill="#A94744"/>
<path d="M105.498 83.2644C106.306 83.3619 107.08 83.5868 107.791 83.9898C108.323 84.2972 108.758 84.7808 109.354 84.9739C109.468 85.0076 109.598 84.8933 109.549 84.7808C109.065 83.3937 106.79 82.8445 105.498 82.749C105.176 82.7321 105.193 83.2325 105.498 83.2644Z" fill="#A94744"/>
<path d="M125.568 84.959C126.747 84.6684 127.907 84.3123 129.037 83.8774C129.973 83.5232 131.167 83.1839 131.909 82.5054C132.085 82.3442 131.892 82.0705 131.682 82.1193C130.634 82.3292 129.602 83.0227 128.601 83.4088C127.553 83.8137 126.488 84.1511 125.424 84.4266C125.084 84.5222 125.23 85.0396 125.568 84.959Z" fill="#A94744"/>
<path d="M127.827 82.378C129.118 81.9263 130.537 81.5701 131.731 80.8935C131.877 80.8129 131.763 80.6179 131.618 80.6348C130.263 80.8279 128.957 81.4258 127.682 81.8607C127.375 81.99 127.521 82.4905 127.827 82.378Z" fill="#A94744"/>
<path d="M132.957 86.9909C132.827 87.4276 132.619 87.8306 132.312 88.168C132.07 88.4436 131.699 88.6366 131.57 88.9759C131.538 89.0715 131.635 89.1521 131.716 89.169C132.151 89.2177 132.571 88.7341 132.812 88.4267C133.118 88.0406 133.345 87.6038 133.474 87.1371C133.587 86.7979 133.054 86.6516 132.957 86.9909Z" fill="#A94744"/>
<path d="M131.311 86.4754C131.328 86.8616 131.215 87.2327 130.956 87.5232C130.732 87.7819 130.407 87.9112 130.165 88.1361C130.085 88.2017 130.134 88.3461 130.231 88.3629C131.198 88.6197 131.86 87.2327 131.811 86.4754C131.779 86.153 131.296 86.153 131.311 86.4754Z" fill="#A94744"/>
<path d="M135.506 56.1948C134.393 57.55 133.538 59.0664 132.989 60.744C132.732 61.535 132.554 62.3578 132.441 63.1788C132.329 64.0017 132.134 65.1319 132.456 65.9229C132.554 66.1647 132.942 66.2284 133.022 65.9229C133.199 65.2294 133.054 64.4384 133.118 63.713C133.184 62.8564 133.345 62.0186 133.587 61.1957C134.055 59.5331 134.844 57.968 135.909 56.5978C136.104 56.3073 135.733 55.9193 135.506 56.1948Z" fill="#A94744"/>
<path d="M134.7 61.8725C134.587 62.6148 134.473 63.3571 134.378 64.0993C134.297 64.6972 134.119 65.3102 134.248 65.8894C134.297 66.0993 134.602 66.148 134.715 65.955C134.99 65.4226 134.974 64.7928 135.039 64.1968C135.12 63.4545 135.2 62.7123 135.281 61.97C135.313 61.6307 134.749 61.5501 134.7 61.8725Z" fill="#A94744"/>
<path d="M159.672 59.5328C161.416 60.7436 163.157 61.9863 164.578 63.5833C165.997 65.1803 166.803 67.0022 167.029 69.1165C167.078 69.5364 167.691 69.5514 167.706 69.1165C167.787 64.5018 163.286 61.4203 159.899 59.1616C159.657 59.0173 159.447 59.3884 159.672 59.5328Z" fill="#A94744"/>
<path d="M162.463 66.1796C162.786 66.712 163.076 67.2612 163.335 67.8422C163.528 68.2939 163.721 69.3586 164.109 69.5517C164.028 69.5029 163.931 69.5367 163.867 69.6173C163.85 69.6323 163.835 69.6491 163.835 69.681C163.786 69.7616 163.786 69.9078 163.867 69.9884C164.463 70.487 164.705 69.7129 164.561 69.2124C164.221 68.0521 163.608 66.9219 162.964 65.906C162.771 65.5667 162.27 65.8572 162.463 66.1796Z" fill="#A94744"/>
<path d="M160.996 68.5678C161.254 69.31 161.511 70.0523 161.77 70.7945C161.98 71.3906 162.109 72.0522 162.512 72.5358C162.656 72.6989 162.915 72.5696 162.915 72.3746C162.932 71.7298 162.561 71.0851 162.334 70.4871C162.077 69.7936 161.819 69.1001 161.56 68.4066C161.447 68.0523 160.883 68.1966 160.996 68.5678Z" fill="#A94744"/>
<path d="M149.895 76.9572C149.429 78.3761 148.799 79.7313 148.008 80.989C147.605 81.6506 147.153 82.2804 146.67 82.8765C146.267 83.377 145.766 83.8287 145.493 84.4097C145.412 84.5709 145.573 84.749 145.749 84.6684C146.943 84.0705 147.881 82.4098 148.557 81.3133C149.348 79.9899 149.961 78.5691 150.428 77.1015C150.525 76.7622 150.01 76.6348 149.895 76.9572Z" fill="#A94744"/>
<path d="M147.525 77.6022C147.3 78.6031 146.897 79.5385 146.316 80.3932C146.025 80.813 145.686 81.216 145.315 81.5703C145.024 81.8608 144.766 82.0389 144.621 82.425C144.558 82.5712 144.734 82.6687 144.846 82.6518C145.703 82.5225 146.428 81.3772 146.863 80.7156C147.444 79.8121 147.847 78.8112 148.057 77.7465C148.155 77.3923 147.622 77.248 147.525 77.6022Z" fill="#A94744"/>
<path d="M145.331 77.3284C145.009 78.0538 144.67 78.7792 144.331 79.5065C144.04 80.1513 143.62 80.8129 143.508 81.5064C143.476 81.7482 143.781 82.0388 143.991 81.7801C144.443 81.2159 144.653 80.5055 144.928 79.8439C145.251 79.1016 145.556 78.3762 145.879 77.634C146.057 77.2797 145.508 76.9404 145.331 77.3284Z" fill="#A94744"/>
<path d="M146.992 93.2178C147.944 93.2834 148.896 93.3471 149.849 93.3958C150.784 93.4596 151.768 93.6058 152.703 93.5252C152.994 93.4933 153.123 93.0247 152.784 92.961C151.881 92.7998 150.928 92.8316 150.01 92.8148C149.009 92.7829 147.993 92.751 146.992 92.7192C146.67 92.7023 146.67 93.1859 146.992 93.2178Z" fill="#A94744"/>
<path d="M148.621 91.8962C149.444 91.8625 150.252 91.8156 151.075 91.7819C151.736 91.75 152.43 91.8306 153.026 91.5401C153.219 91.4445 153.138 91.1689 152.977 91.1202C152.332 90.9121 151.59 91.0883 150.928 91.1371C150.171 91.2027 149.397 91.2495 148.638 91.3151C148.235 91.3301 148.235 91.9281 148.621 91.8962Z" fill="#A94744"/>
<path d="M137.684 115.643C138.524 117.272 139.588 118.756 140.91 120.031C141.281 120.385 141.879 121.095 142.475 120.998C142.912 120.917 143.136 120.497 142.927 120.128C142.863 120.014 142.67 120.031 142.636 120.16C142.46 120.837 141.088 119.433 140.91 119.257C140.555 118.9 140.216 118.546 139.911 118.16C139.2 117.32 138.587 116.4 138.055 115.416C137.926 115.191 137.555 115.401 137.684 115.643Z" fill="#A94744"/>
<path d="M141.071 116.901C141.62 117.465 142.169 118.031 142.717 118.595C143.105 118.998 143.54 119.692 144.121 119.74C144.218 119.74 144.314 119.66 144.299 119.562C144.25 118.966 143.557 118.546 143.154 118.16C142.589 117.611 142.023 117.062 141.459 116.515C141.2 116.256 140.814 116.642 141.071 116.901Z" fill="#A94744"/>
<path d="M142.895 116.095C143.378 116.481 143.862 116.885 144.347 117.272C144.733 117.579 145.153 118.078 145.654 118.175C145.83 118.207 145.944 118.046 145.864 117.901C145.654 117.433 145.073 117.11 144.67 116.805C144.201 116.434 143.749 116.063 143.283 115.707C143.024 115.45 142.604 115.853 142.895 116.095Z" fill="#A94744"/>
<path d="M147.444 103.495C148.025 103.849 148.589 104.205 149.17 104.577C149.622 104.865 150.105 105.302 150.654 105.317C150.816 105.317 150.913 105.141 150.832 105.011C150.557 104.528 149.944 104.318 149.477 104.044C148.896 103.705 148.315 103.366 147.734 103.026C147.412 102.833 147.138 103.302 147.444 103.495Z" fill="#A94744"/>
<path d="M149.913 102.64C150.333 102.833 150.736 103.075 151.124 103.349C151.478 103.624 151.8 104.01 152.203 104.205C152.333 104.269 152.543 104.156 152.479 103.995C152.155 103.14 150.961 102.528 150.187 102.171C149.864 102.01 149.591 102.494 149.913 102.64Z" fill="#A94744"/>
<path d="M151.832 119.982C152.977 120.417 154.251 120.546 155.462 120.29C156.349 120.112 157.946 119.628 158.268 118.676C158.317 118.547 158.173 118.434 158.058 118.466C157.623 118.547 157.284 118.901 156.898 119.128C156.398 119.401 155.865 119.611 155.316 119.74C154.188 119.999 153.057 119.934 151.961 119.547C151.67 119.45 151.575 119.885 151.832 119.982Z" fill="#A94744"/>
<path d="M153.929 117.53C155.558 117.481 157.882 116.739 158.544 115.078C158.591 114.949 158.415 114.82 158.302 114.883C157.672 115.32 157.155 115.901 156.478 116.272C155.687 116.707 154.833 116.932 153.929 116.966C153.575 116.981 153.575 117.545 153.929 117.53Z" fill="#A94744"/>
<path d="M72.5564 60.1308C71.3305 60.9367 70.1703 61.8571 69.2668 63.0342C68.3296 64.245 66.7664 66.3893 67.831 67.8907C68.249 68.4868 69.0719 69.0041 69.846 68.7136C70.9763 68.2619 71.2499 67.5833 71.5892 66.5018C71.7822 65.9226 71.9434 65.3247 72.1534 64.7605C72.5901 63.5834 73.1056 62.4381 73.816 61.3885C74.3314 60.6312 73.3155 59.6303 72.5564 60.1308Z" fill="#F7C8C9"/>
<path d="M66.6372 71.4241C66.5228 71.649 66.4104 71.8908 66.3298 72.1326C66.2979 72.1982 66.1048 72.7455 66.281 72.3744C65.9905 73.0211 65.7487 73.6171 65.9755 74.3425C66.2492 75.1991 67.0552 75.7633 67.9586 75.634C68.8789 75.5046 69.475 74.7624 69.5237 73.8589C69.5406 73.4878 69.46 73.1167 69.2819 72.8111C69.2182 72.6649 69.2013 72.6649 69.2669 72.7943C69.3138 72.9236 69.3138 72.9236 69.2501 72.7624C69.2332 72.7305 69.2182 72.6818 69.2013 72.6499C69.2332 72.843 69.2501 72.8599 69.2501 72.6649C69.2501 72.6162 69.2501 72.5843 69.2669 72.5356C69.2501 72.7137 69.2332 72.7137 69.2669 72.5356C69.3944 71.8271 69.1207 71.1336 68.4272 70.843C67.8143 70.5675 66.9427 70.7774 66.6372 71.4241Z" fill="#F7C8C9"/>
<path d="M144.394 51.6118C142.443 52.2735 138.846 54.742 140.297 57.1937C140.734 57.936 141.652 58.1309 142.395 57.7429C143.395 57.2275 143.459 56.2097 143.862 55.3062C144.153 54.6296 144.638 54.0166 145.217 53.5799C146.106 52.9033 145.654 51.177 144.394 51.6118Z" fill="#F7C8C9"/>
<path d="M139.7 59.7596C139.361 60.0989 139.151 60.5169 139.056 60.9855C139.007 61.2104 138.958 61.4541 138.958 61.6959C138.958 62.1944 139.183 62.6312 139.522 62.9704C140.055 63.5178 140.926 63.5496 141.522 63.0829C141.781 62.8898 141.991 62.6143 142.072 62.2919C142.169 61.8721 142.088 61.5178 141.91 61.1148C141.893 61.0979 141.893 61.0661 141.878 61.0492C141.927 61.1785 141.974 61.291 142.04 61.4203C141.91 61.0661 141.798 60.8561 141.556 60.5656C141.637 60.6631 141.717 60.7755 141.798 60.873C141.7 60.7268 141.685 60.5506 141.798 60.9367C141.813 61.0661 141.83 61.1954 141.847 61.3079C141.847 61.2104 141.847 61.1298 141.847 61.0492C141.83 61.1785 141.813 61.291 141.798 61.4203C141.813 61.3566 141.878 61.1785 141.781 61.3885C141.685 61.6153 141.781 61.4203 141.798 61.3735C142.152 60.8074 141.959 60.0333 141.459 59.6472C140.943 59.2592 140.169 59.291 139.7 59.7596Z" fill="#F7C8C9"/>
<path d="M102.212 174.486C102.008 174.15 101.726 173.892 101.366 173.712C101.018 173.532 100.604 173.442 100.124 173.442C99.2365 173.442 98.5345 173.73 98.0185 174.306C97.5145 174.882 97.2625 175.656 97.2625 176.628C97.2625 177.72 97.5325 178.554 98.0725 179.13C98.6245 179.694 99.4225 179.976 100.466 179.976C101.702 179.976 102.584 179.418 103.112 178.302H99.5665V175.764H106.154V179.184C105.878 179.856 105.47 180.486 104.93 181.074C104.402 181.662 103.73 182.148 102.914 182.532C102.098 182.904 101.168 183.09 100.124 183.09C98.8525 183.09 97.7245 182.82 96.7405 182.28C95.7685 181.728 95.0125 180.966 94.4725 179.994C93.9445 179.01 93.6805 177.888 93.6805 176.628C93.6805 175.38 93.9445 174.27 94.4725 173.298C95.0125 172.314 95.7685 171.552 96.7405 171.012C97.7125 170.46 98.8345 170.184 100.106 170.184C101.702 170.184 103.022 170.568 104.066 171.336C105.11 172.104 105.758 173.154 106.01 174.486H102.212ZM109.518 171.966C108.894 171.966 108.39 171.798 108.006 171.462C107.634 171.114 107.448 170.682 107.448 170.166C107.448 169.638 107.634 169.2 108.006 168.852C108.39 168.504 108.894 168.33 109.518 168.33C110.13 168.33 110.622 168.504 110.994 168.852C111.378 169.2 111.57 169.638 111.57 170.166C111.57 170.682 111.378 171.114 110.994 171.462C110.622 171.798 110.13 171.966 109.518 171.966ZM111.264 172.902V183H107.736V172.902H111.264ZM119.879 172.812C121.043 172.812 121.967 173.202 122.651 173.982C123.335 174.75 123.677 175.794 123.677 177.114V183H120.149V177.582C120.149 177.006 119.999 176.556 119.699 176.232C119.399 175.896 118.997 175.728 118.493 175.728C117.965 175.728 117.551 175.896 117.251 176.232C116.951 176.556 116.801 177.006 116.801 177.582V183H113.273V172.902H116.801V174.342C117.113 173.886 117.533 173.52 118.061 173.244C118.589 172.956 119.195 172.812 119.879 172.812ZM127.376 171.966C126.752 171.966 126.248 171.798 125.864 171.462C125.492 171.114 125.306 170.682 125.306 170.166C125.306 169.638 125.492 169.2 125.864 168.852C126.248 168.504 126.752 168.33 127.376 168.33C127.988 168.33 128.48 168.504 128.852 168.852C129.236 169.2 129.428 169.638 129.428 170.166C129.428 170.682 129.236 171.114 128.852 171.462C128.48 171.798 127.988 171.966 127.376 171.966ZM129.14 183.99C129.14 186.546 127.856 187.824 125.288 187.824H124.01V184.818H124.766C125.066 184.818 125.282 184.758 125.414 184.638C125.546 184.518 125.612 184.32 125.612 184.044V172.902H129.14V183.99ZM130.556 177.942C130.556 176.898 130.742 175.986 131.114 175.206C131.498 174.426 132.014 173.826 132.662 173.406C133.322 172.986 134.054 172.776 134.858 172.776C135.554 172.776 136.154 172.914 136.658 173.19C137.162 173.466 137.552 173.838 137.828 174.306V172.902H141.356V183H137.828V181.596C137.552 182.064 137.156 182.436 136.64 182.712C136.136 182.988 135.542 183.126 134.858 183.126C134.054 183.126 133.322 182.916 132.662 182.496C132.014 182.076 131.498 181.476 131.114 180.696C130.742 179.904 130.556 178.986 130.556 177.942ZM137.828 177.942C137.828 177.294 137.648 176.784 137.288 176.412C136.94 176.04 136.508 175.854 135.992 175.854C135.464 175.854 135.026 176.04 134.678 176.412C134.33 176.772 134.156 177.282 134.156 177.942C134.156 178.59 134.33 179.106 134.678 179.49C135.026 179.862 135.464 180.048 135.992 180.048C136.508 180.048 136.94 179.862 137.288 179.49C137.648 179.118 137.828 178.602 137.828 177.942ZM146.894 169.68V183H143.366V169.68H146.894Z" fill="black"/>
</svg>
