<svg width="342" height="275" viewBox="0 0 342 275" fill="none" xmlns="http://www.w3.org/2000/svg">
<path d="M147.531 116.957C150.997 117.617 154.249 119.852 156.381 123.039C157.012 123.983 157.917 125.151 158.862 124.65C159.357 124.381 159.621 123.7 159.802 123.119C161.399 117.484 162.134 110.634 166.625 107.739C166.98 107.512 167.387 107.286 167.563 106.877C168.055 105.75 166.655 104.81 165.576 104.5C154.574 101.487 144.11 95.8145 135.071 88.0647L90.9025 86.2223L73.9535 123.932" fill="#3770AF"/>
<path d="M215.967 87.723C206.994 95.5909 196.578 101.31 185.608 104.416C184.526 104.735 183.134 105.687 183.635 106.81C183.815 107.217 184.224 107.44 184.586 107.663C189.096 110.521 189.894 117.364 191.534 122.985C191.719 123.612 191.947 124.244 192.487 124.508C193.436 125.001 194.33 123.826 194.959 122.877C197.058 119.63 200.292 117.362 203.757 116.72" fill="#3770AF"/>
<path d="M210.644 85.6731L258.544 85.4704L221.056 119.841L200.498 113.087" fill="#3770AF"/>
<path d="M114.43 125.063C112.386 120.349 113.889 114.532 116.617 110.336C119.345 106.135 123.161 103.059 126.519 99.4877C141.041 83.8501 145.61 57.3597 137.373 36.5514C129.136 15.7431 108.643 2.23599 88.798 4.4383C77.6885 5.65694 67.2672 11.2819 57.613 17.7143C45.8983 25.463 34.6817 34.737 26.6326 47.1985C13.2622 67.8681 10.1342 94.9853 10.1542 120.735C10.1729 147.383 13.7184 175.639 28.6123 196.105C34.8623 204.677 42.8149 211.438 51.4357 216.627C67.5025 226.282 86.9669 230.478 103.998 223.198C121.028 215.924 134.133 195.386 131.206 174.917C128.515 155.931 113.411 139.969 115.359 120.917" fill="#D67A72"/>
<path d="M114.264 117.684C114.149 111.518 121.068 108.873 126.429 108.72C132.547 108.558 139.441 109.701 143.199 115.218C148.683 123.344 144.228 134.797 143.146 144.933C140.852 166.324 154.526 185.216 160.058 205.811C165.962 227.89 161.838 253.118 149.398 271.22C145.715 262.506 147.199 252.28 147.881 242.69C149.33 223.143 147.175 203.256 141.604 184.685C138.044 172.681 132.993 160.73 133.662 148.121C133.951 142.403 135.412 136.503 133.767 131.106C132.081 125.711 125.089 122.272 122.138 126.83" fill="#BC3D35"/>
<mask id="mask0_10_954" style="mask-type:luminance" maskUnits="userSpaceOnUse" x="208" y="2" width="134" height="225">
<path d="M208.58 3.23535L340.441 2.67724L341.388 226.284L209.526 226.842L208.58 3.23535Z" fill="white"/>
</mask>
<g mask="url(#mask0_10_954)">
<path d="M236.966 124.544C238.97 119.812 237.413 114.008 234.649 109.835C231.885 105.657 228.049 102.614 224.655 99.0713C210.007 83.5571 205.214 57.1063 213.269 36.2291C221.33 15.3518 241.712 1.67168 261.57 3.70594C272.695 4.83047 283.164 10.367 292.867 16.7175C304.652 24.3668 315.946 33.5454 324.101 45.9383C337.646 66.494 341.003 93.5838 341.201 119.332C341.403 145.98 338.102 174.265 323.382 194.856C317.204 203.481 309.309 210.309 300.733 215.57C284.748 225.361 265.32 229.722 248.228 222.587C231.137 215.457 217.859 195.031 220.607 174.537C223.142 155.529 238.106 139.44 236.001 120.405" fill="#D67A72"/>
</g>
<path d="M237.071 117.164C237.134 110.997 230.188 108.412 224.831 108.304C218.711 108.193 211.828 109.394 208.112 114.944C202.701 123.116 207.253 134.53 208.42 144.656C210.896 166.028 197.383 185.035 192.02 205.676C186.308 227.804 190.646 252.996 203.238 270.993C206.847 262.248 205.271 252.034 204.514 242.45C202.899 222.916 204.886 203.011 210.299 184.394C213.758 172.36 218.707 160.367 217.932 147.765C217.594 142.049 216.084 136.161 217.677 130.751C219.323 125.341 226.285 121.844 229.275 126.377" fill="#BC3D35"/>
<mask id="mask1_10_954" style="mask-type:luminance" maskUnits="userSpaceOnUse" x="0" y="0" width="139" height="231">
<path d="M0 1.44092L137.604 0.858502L138.573 229.821L0.969093 230.403L0 1.44092Z" fill="white"/>
</mask>
<g mask="url(#mask1_10_954)">
<path d="M108.666 124.91C104.569 113.4 117.095 105.742 123.319 98.2883C129.142 91.3282 133.024 82.896 135.105 74.1106C139.391 56.0841 136.337 36.4674 124.705 21.7982C113.71 7.89004 96.0271 -0.456071 78.3053 2.95071C67.5551 5.02037 57.8085 10.6477 48.8327 16.7163C40.1697 22.5588 31.9598 29.1681 25.1048 37.0741C11.3955 53.0221 5.31451 73.2634 2.92744 93.7976C0.49465 114.651 0.676366 136.576 4.4566 157.267C8.098 177.284 16.3226 196.382 32.003 209.91C47.4997 223.26 68.9667 232.265 89.6139 227.988C108.009 224.176 122.436 208.627 126.366 190.472C128.485 180.781 127.095 171.2 123.636 161.983C120.218 152.86 115.276 144.282 112.626 134.889C111.346 130.302 110.74 125.576 111.081 120.847C111.252 118.1 107.152 118.206 106.85 120.864C104.681 139.87 118.838 155.434 122.287 173.38C125.646 190.967 116.229 210.003 100.962 218.98C83.3588 229.322 61.2801 224.102 44.897 213.862C36.3173 208.495 28.594 201.55 22.8835 193.159C17.5837 185.393 13.901 176.632 11.3417 167.594C5.94613 148.348 5.27345 127.822 6.18319 107.969C7.08806 88.1992 10.4216 67.6139 20.7469 50.4197C25.9354 41.7518 32.9286 34.384 40.6844 28.0067C48.5811 21.5346 57.3378 15.5977 66.5931 11.2852C75.1278 7.28447 84.5702 5.17326 93.9457 7.02699C102.096 8.65576 109.677 12.6772 115.825 18.2791C129.246 30.5138 134.679 48.8547 132.594 66.647C131.596 75.4278 128.709 84.0388 124.012 91.5329C121.508 95.55 118.415 98.8949 115.145 102.24C111.874 105.581 108.824 108.973 107.268 113.436C105.888 117.359 105.681 121.591 107.366 125.408C107.683 126.175 108.941 125.673 108.666 124.91Z" fill="#A94744"/>
</g>
<path d="M108.411 117.708C108.836 111.765 115.628 110.067 120.582 110.182C126.341 110.294 132.696 111.528 135.737 117.048C138.773 122.575 137.317 129.558 136.218 135.416C134.984 141.859 133.933 148.119 134.589 154.691C135.858 167.783 141.625 179.778 146.452 191.824C151.363 204.137 154.522 216.551 153.993 229.875C153.426 244.193 149.118 258.349 141.067 270.219C142.417 270.397 143.767 270.569 145.117 270.746C140.936 260.408 143.497 248.874 143.99 238.113C144.527 226.405 143.755 214.661 141.771 203.142C139.835 191.805 136.233 181.061 132.944 170.091C131.299 164.565 129.836 158.896 129.54 153.091C129.245 147.601 130.482 142.192 130.417 136.701C130.349 131.748 128.932 126.895 124.558 124.12C120.856 121.751 116.443 122.172 113.895 125.834C112.284 128.132 115.985 130.145 117.639 127.978C119.745 125.176 123.767 128.669 124.853 130.735C127.126 135.14 125.754 141.041 125.324 145.724C124.333 156.131 127.027 166.157 130.175 175.956C133.372 185.98 136.296 195.962 137.914 206.401C139.581 217.017 140.118 227.82 139.625 238.534C139.133 249.609 136.662 261.325 140.938 271.93C141.667 273.732 143.871 274.125 144.994 272.457C152.775 260.943 157.132 247.331 158.287 233.549C159.486 219.004 156.545 205.197 151.179 191.715C145.898 178.41 138.816 164.888 138.712 150.259C138.615 138.376 146.828 121.458 136.207 111.874C131.508 107.615 124.212 106.61 118.139 107.583C112.828 108.416 107.036 111.636 107.287 117.755C107.201 118.524 108.372 118.472 108.411 117.708Z" fill="#A94744"/>
<path d="M127.96 88.7227C132.707 93.2479 137.855 97.1436 143.632 100.273C146.384 101.747 149.183 103.085 152.069 104.197C153.599 104.776 155.176 105.355 156.757 105.845C157.025 105.933 159.099 106.777 159.144 106.102C159.144 106.238 157.929 107.007 157.84 107.101C153.984 110.491 153.061 116.076 151.82 120.81C151.687 121.349 151.334 122.072 151.337 122.658C152.19 122.79 152.278 122.607 151.648 122.071C151.464 121.758 151.238 121.487 151.011 121.174C150.107 120.006 149.114 118.933 147.938 118.033C145.907 116.425 143.155 114.816 140.5 115.319C138.88 115.644 138.977 117.757 140.105 118.563C141.553 119.593 143.401 119.857 144.891 120.886C146.333 121.916 147.374 123.214 148.416 124.653C150.136 126.942 153.247 128.006 154.856 124.85C156.152 122.23 156.363 119.033 157.157 116.242C157.605 114.66 158.179 113.042 159.078 111.641C159.878 110.419 161.006 109.834 162.037 108.836C164.501 106.44 162.146 103.568 159.579 102.727C156.195 101.569 152.771 100.595 149.48 99.2128C142.218 96.1785 135.312 92.0705 129.036 87.3217C128.27 86.6083 127.24 88.004 127.96 88.7227Z" fill="#A94744"/>
<path d="M231.116 124.929C234.995 115.776 228.746 107.428 222.553 101.288C216.177 94.965 211.329 87.7832 208.369 79.244C202.534 62.4791 203.712 42.8444 213.46 27.7239C222.496 13.6839 239.019 3.71276 256.048 5.97867C266.724 7.41892 276.423 12.828 285.271 18.5963C293.485 23.9645 301.298 29.9621 307.993 37.2249C321.875 52.2925 328.261 72.0312 330.825 92.0528C333.341 111.756 333.47 132.509 330.447 152.194C327.469 171.522 320.524 190.323 305.999 203.89C291.829 217.183 270.979 226.858 251.25 223.118C233.275 219.727 219.569 204.433 216.523 186.574C213.245 167.23 226.684 151.597 230.792 133.619C231.809 129.247 232.151 124.836 231.593 120.335C231.263 117.68 227.12 117.566 227.357 120.353C228.886 140.562 213.243 156.832 211.616 176.558C210.119 194.839 220.686 213.702 236.613 222.547C255.026 232.779 277.784 228.048 294.979 217.619C303.78 212.273 311.675 205.44 317.854 197.176C323.851 189.138 328.043 179.846 330.931 170.247C336.831 150.414 337.551 129.071 336.612 108.504C335.624 87.7069 332.201 66.0675 321.407 47.8853C316.06 38.9011 308.961 31.1431 300.873 24.5609C292.695 17.8901 283.71 11.7615 274.15 7.20966C265.173 2.92211 255.35 0.400787 245.402 1.79233C236.767 3.0005 228.722 6.76905 221.951 12.1536C207.324 23.7852 200.11 42.1379 200.999 60.5922C201.441 69.822 203.729 78.9917 207.906 87.259C209.905 91.257 212.395 94.9391 215.338 98.3003C218.686 102.157 222.748 105.293 226.007 109.239C229.446 113.456 231.676 118.938 229.806 124.349C229.542 125.114 230.805 125.694 231.116 124.929Z" fill="#A94744"/>
<path d="M231.219 117.189C231.618 105.256 213.25 105.47 205.927 109.058C192.136 115.774 198.513 133.217 199.775 144.734C201.459 159.451 195.304 173.295 189.915 186.598C187.198 193.362 184.481 200.215 182.89 207.335C181.344 214.094 180.698 221.032 180.864 227.962C181.286 243.625 185.903 259.318 194.823 272.246C195.954 273.905 198.16 273.493 198.874 271.685C202.569 262.354 200.999 252.23 200.189 242.51C199.333 231.754 199.512 220.906 200.774 210.189C202.037 199.602 204.514 189.33 207.667 179.185C210.686 169.538 213.929 159.712 213.661 149.451C213.548 143.776 211.676 137.795 213.096 132.167C213.713 129.685 218.192 123.996 220.906 127.541C222.537 129.695 226.263 127.649 224.632 125.365C222.416 122.174 218.809 121.384 215.306 122.973C211.574 124.652 209.251 128.218 208.546 132.186C207.58 137.682 208.953 143.121 209.201 148.659C209.451 154.464 208.486 160.185 207.025 165.819C204.189 176.862 200.181 187.502 198.115 198.719C196.003 210.073 195.017 221.647 195.291 233.215C195.453 239.517 196.154 245.77 196.584 252.07C197.018 258.371 196.951 264.627 194.591 270.579C195.94 270.395 197.293 270.206 198.642 270.023C191.396 259.567 187.065 247.205 185.751 234.558C184.346 221.42 186.363 208.67 190.856 196.318C195.307 184.007 201.47 172.056 203.575 159.034C204.584 152.774 204.511 146.561 203.36 140.31C202.209 134.101 200.11 127.446 201.255 121.097C202.527 113.931 208.454 110.574 215.293 110.007C220.741 109.581 229.479 110.26 230.048 117.33C230.05 117.957 231.222 117.999 231.219 117.189Z" fill="#A94744"/>
<path d="M209.029 86.9406C202.842 91.784 195.924 95.9505 188.687 98.9991C185.367 100.41 181.992 101.412 178.623 102.598C176.059 103.467 173.728 106.354 176.217 108.733C177.257 109.717 178.337 110.252 179.2 111.509C180.105 112.901 180.651 114.473 181.155 116.093C181.977 118.835 182.216 122.077 183.529 124.681C185.122 127.823 188.224 126.78 189.966 124.429C190.996 122.986 191.984 121.675 193.465 120.633C194.946 119.544 196.786 119.311 198.225 118.269C199.347 117.501 199.426 115.34 197.804 115.034C195.15 114.548 192.411 116.228 190.388 117.811C189.314 118.668 188.419 119.618 187.566 120.705C187.43 120.883 185.911 122.783 186.673 122.419C187.171 122.548 187.212 122.37 186.849 121.832C186.758 121.519 186.668 121.2 186.578 120.887C185.297 116.075 184.326 110.362 180.352 106.911C180.258 106.87 179.04 105.975 179.04 105.928C179.043 106.556 180.75 105.874 181.064 105.742C182.641 105.238 184.213 104.693 185.738 104.101C188.662 102.964 191.444 101.644 194.184 100.147C200.07 96.9267 205.273 92.8982 210.118 88.2854C210.926 87.6491 209.884 86.2622 209.029 86.9406Z" fill="#A94744"/>
<path d="M73.8067 78.3286C78.4867 78.0369 82.6392 80.4043 86.4781 82.8202C89.8608 84.9661 93.3374 87.0697 96.0957 89.9818C101.386 95.5873 104.075 103.092 106.579 110.195C107.49 112.759 111.627 111.617 110.67 109.053C107.665 101.011 104.48 92.5144 98.0165 86.553C94.6718 83.5074 90.6561 81.3171 86.6412 79.3518C82.4901 77.3033 78.2525 75.8358 73.6226 76.844C72.7654 76.9836 72.9544 78.3793 73.8067 78.3286Z" fill="#A94744"/>
<path d="M106.029 75.1741C110.093 78.9384 112.275 84.0602 113.422 89.4166C114.068 92.3847 114.305 95.3964 114.496 98.4135C114.549 99.7628 114.419 101.249 114.607 102.556C114.428 103.456 114.518 103.633 114.835 103.14C115.147 102.731 115.1 102.778 114.61 103.183C114.517 103.32 114.386 103.456 114.293 103.592C113.223 105.443 115.302 107.187 117.05 106.327C119.613 105.055 118.559 100.604 118.371 98.3971C118.132 94.9304 117.667 91.4228 116.706 88.0951C115.108 82.385 111.885 77.3094 107.1 73.7312C106.287 73.1017 105.257 74.4608 106.029 75.1741Z" fill="#A94744"/>
<path d="M69.9112 125.434C77.2991 127.291 85.1334 127.08 92.4147 124.753C96.0136 123.613 99.427 121.888 102.525 119.71C104.903 118.037 109.259 115.497 108.795 112.12C108.746 111.671 108.248 111.448 107.845 111.408C106.224 111.326 105.192 112.36 104.072 113.401C102.864 114.536 101.608 115.577 100.257 116.524C97.4304 118.518 94.3305 120.153 91.098 121.38C84.5342 123.929 77.3824 124.728 70.3996 123.45C69.1804 123.319 68.6493 125.12 69.9112 125.434Z" fill="#A94744"/>
<path d="M92.181 154.688C97.0486 155.479 100.818 152.628 103.412 148.746C105.023 146.354 106.319 143.692 107.7 141.165C108.774 139.178 110.298 137.147 107.995 135.489C107.407 135.041 106.236 135.182 105.742 135.77C105.7 135.817 105.653 135.859 105.606 135.907C104.847 136.899 104.989 138.43 106.387 138.785C106.429 138.785 106.524 138.827 106.565 138.826C106.113 138.243 105.661 137.664 105.208 137.033C105.214 138.246 103.69 140.371 103.156 141.498C102.399 143.123 101.637 144.7 100.791 146.278C99.0949 149.575 96.5889 153.143 92.3981 152.841C91.3623 152.804 91.1446 154.515 92.181 154.688Z" fill="#A94744"/>
<path d="M16.5486 132.141C18.326 147.982 20.6012 164.04 28.1777 178.324C31.3097 184.252 35.4288 189.863 40.4013 194.434C44.7858 198.469 51.3359 203.797 57.5919 203.907C59.1246 203.942 59.2944 202.053 58.3027 201.294C55.8625 199.411 52.7512 198.341 50.1344 196.736C47.3814 195.079 44.8989 193.066 42.5464 190.868C37.8464 186.432 34.0011 181.27 30.8703 175.614C23.5646 162.276 20.6644 146.842 18.0805 131.999C17.9405 131.053 16.4559 131.242 16.5486 132.141Z" fill="#A94744"/>
<path d="M66.934 208.999C69.0525 210.292 71.3523 211.14 73.8328 211.443C75.6329 211.661 78.6053 212.009 79.4967 210.07C79.6779 209.619 79.6758 209.122 79.3133 208.763C78.0004 207.508 76.4292 208.237 74.7659 208.244C72.4229 208.301 70.214 207.902 68.0968 206.922C66.7447 206.295 65.5811 208.194 66.934 208.999Z" fill="#A94744"/>
<path d="M326.163 86.5822C331.049 112.802 328.149 140.771 319.207 165.842C316.716 172.919 312.873 179.551 310.785 186.715C310.476 187.799 312.013 188.781 312.773 187.879C317.03 182.819 319.476 176.328 321.793 170.193C324.287 163.613 326.324 156.894 327.828 150.046C330.789 136.712 331.944 122.883 330.987 109.246C330.415 101.507 329.211 93.8134 327.558 86.2154C327.376 85.2224 325.981 85.6363 326.163 86.5822Z" fill="#A94744"/>
<path d="M306.036 191.735C305.189 194.26 303.488 196.563 301.293 198.1C299.452 199.368 296.66 199.652 295.139 201.191C294.598 201.732 294.737 202.631 295.372 202.989C297.941 204.511 301.666 202.199 303.641 200.569C306.2 198.44 307.899 195.598 308.471 192.352C308.778 190.824 306.568 190.2 306.036 191.735Z" fill="#A94744"/>
<path d="M240.895 73.887C235.412 76.1122 231.019 81.1729 228.117 86.1855C226.595 88.8019 225.347 91.6421 224.548 94.5692C224.105 96.1925 223.752 97.8625 223.534 99.5267C223.448 100.16 223.361 100.835 223.317 101.463C223.272 101.913 223.232 102.41 223.187 102.86C222.923 103.4 222.923 103.447 223.188 103.043C222.739 103.401 222.654 104.306 222.97 104.796C224.649 107.132 226.936 105.093 227.194 102.932C227.586 99.2847 227.975 95.9513 229.132 92.4838C231.223 86.1723 235.375 78.4975 241.529 75.4116C242.338 74.9584 241.746 73.5225 240.895 73.887Z" fill="#A94744"/>
<path d="M218.99 79.1107C215.958 85.6511 214.009 93.3533 215.436 100.555C215.804 102.305 218.773 101.932 218.629 100.091C218.061 93.0223 217.939 86.4534 220.478 79.6902C220.836 78.878 219.395 78.2512 218.99 79.1107Z" fill="#A94744"/>
<path d="M262.413 96.3912C255.525 106.416 243.936 112.992 231.74 113.358C228.995 113.458 229.013 117.737 231.759 117.636C245.309 117.218 258.012 109.554 264.311 97.4659C264.933 96.2446 263.177 95.2635 262.413 96.3912Z" fill="#A94744"/>
<path d="M252.133 133.979C248.95 137.011 242.955 135.504 239.392 133.897C237.542 133.1 235.827 131.977 234.336 130.634C232.797 129.244 231.801 127.313 229.862 126.51C228.777 126.065 227.48 127.195 227.526 128.278C227.673 130.845 230.249 132.77 232.191 134.247C234.405 135.948 236.885 137.24 239.545 138.039C244.233 139.505 250.4 139.662 253.987 135.729C255.059 134.553 253.342 132.85 252.133 133.979Z" fill="#A94744"/>
<path d="M240.197 153.925C237.223 153.174 234.559 151.428 232.702 149.009C230.798 146.496 230.744 143.614 229.472 140.827C229.197 140.289 228.385 139.796 227.757 139.846C225.504 140.127 225.783 141.878 226.376 143.586C227.108 145.837 227.608 147.948 229.013 149.924C231.597 153.559 235.429 155.703 239.846 156.181C241.196 156.353 241.459 154.239 240.197 153.925Z" fill="#A94744"/>
<path d="M71.7082 71.7212C74.7664 71.3473 77.7383 71.6015 80.6715 72.5829C81.981 73.0271 89.3272 76.1448 88.3473 78.1783C88.171 78.5399 88.3038 79.031 88.7594 79.1651C88.8483 79.1647 88.9374 79.2114 89.0263 79.211C89.2987 79.2988 89.7011 79.2082 89.8832 78.9825C92.0733 76.1802 86.0767 73.0987 84.1795 72.2071C80.2122 70.3357 75.8426 69.8103 71.5256 70.5974C70.8931 70.689 71.0338 71.8129 71.7082 71.7212Z" fill="#A94744"/>
<path d="M84.6249 70.8566C86.3363 71.1161 87.9602 71.695 89.408 72.6827C90.7612 73.5766 91.6202 75.1002 92.9781 75.8634C93.5602 76.2218 94.1906 75.6333 94.0521 75.0481C93.6842 73.3812 91.7012 71.9983 90.254 71.1466C88.5864 70.118 86.7376 69.54 84.8015 69.3233C83.9902 69.1908 83.7718 70.7242 84.6249 70.8566Z" fill="#A94744"/>
<path d="M89.2294 105.996C93.697 108.676 96.8208 112.669 98.5519 117.568C98.8692 117.164 99.1342 116.755 99.4518 116.392C98.7296 116.306 98.144 116.356 97.423 116.537C97.0206 116.633 97.0229 117.171 97.3375 117.348C97.9723 117.795 98.5119 118.018 99.2294 118.24C99.9101 118.42 100.624 117.784 100.396 117.068C98.5746 111.809 94.8635 107.457 89.9927 104.685C89.1328 104.192 88.4166 105.502 89.2294 105.996Z" fill="#A94744"/>
<path d="M89.079 112.611C90.164 113.146 91.0668 113.911 91.6988 114.938C92.2414 115.841 92.429 116.918 93.1957 117.636C93.4213 117.813 93.7822 117.811 93.9171 117.544C94.5866 116.323 93.8589 114.929 93.0909 113.902C92.2753 112.734 91.1468 111.792 89.8367 111.212C88.9823 110.766 88.1773 112.118 89.079 112.611Z" fill="#A94744"/>
<path d="M79.7281 115.576C74.0573 116.547 68.3021 117.382 62.6318 118.488C63.0407 118.712 63.4444 118.935 63.8954 119.2C63.8034 118.483 63.5762 117.94 63.2127 117.314C62.986 116.907 62.4479 117.046 62.2665 117.454C62.0028 118.172 61.9112 118.758 61.9144 119.527C61.9175 120.244 62.5518 120.602 63.1791 120.51C68.8498 119.498 74.4723 118.213 80.0955 117.107C81.0829 116.831 80.627 115.394 79.7281 115.576Z" fill="#A94744"/>
<path d="M69.3043 109.186C67.4092 108.786 65.473 108.57 63.4905 108.531C62.0051 108.537 60.0269 108.279 58.949 109.408C58.6782 109.681 58.774 110.083 59.0416 110.265C60.2634 111.024 61.7886 110.52 63.138 110.515C65.0314 110.507 66.9205 110.724 68.7683 111.077C70.03 111.343 70.5659 109.448 69.3043 109.186Z" fill="#A94744"/>
<path d="M96.247 136.799C94.4127 139.647 92.1271 142.131 89.3893 144.078C88.1795 144.941 86.9223 145.709 85.6176 146.39C84.3597 147.028 82.8756 147.348 81.802 148.252C81.2183 148.752 81.7605 149.555 82.3464 149.599C85.182 149.77 88.7745 147.098 90.8805 145.421C93.6172 143.249 95.9021 140.582 97.6938 137.562C98.2291 136.749 96.8292 135.944 96.247 136.799Z" fill="#A94744"/>
<path d="M82.3508 139.337C79.4279 140.787 76.7793 142.781 74.724 145.311C75.1738 145.309 75.6655 145.307 76.1153 145.305C75.7583 144.992 75.6626 144.632 75.4827 144.136C75.3925 143.822 74.9835 143.599 74.6707 143.825C73.6381 144.552 73.8217 145.9 74.7299 146.707C75.0871 147.066 75.7672 147.105 76.1212 146.701C78.1823 144.307 80.4702 142.357 83.2569 140.86C84.2902 140.317 83.3843 138.835 82.3508 139.337Z" fill="#A94744"/>
<path d="M32.5802 48.3396C18.6938 64.4714 16.0445 87.3082 17.9776 107.824C18.515 107.508 19.0524 107.192 19.5951 106.876C19.411 106.652 19.2321 106.38 19.048 106.156C18.8674 105.482 17.8318 105.487 17.6568 106.162C17.3892 107.199 17.5695 107.784 18.2947 108.592C18.9306 109.305 20.1886 108.714 20.1378 107.815C19.6839 96.969 19.2829 86.2588 21.4395 75.5326C23.3816 66.026 27.1235 56.6477 33.2159 49.0117C33.6166 48.5183 32.9863 47.8881 32.5802 48.3396Z" fill="#A94744"/>
<path d="M23.5877 93.7097C23.7816 96.277 23.8347 98.9338 24.2063 101.453C24.3947 102.713 26.4167 102.208 26.1863 100.906C26.047 100.138 25.9078 99.3749 25.638 98.6542C25.453 98.2052 24.8252 98.1608 24.6443 98.6584C24.3809 99.4702 24.2904 100.328 24.2051 101.181C24.8798 101.178 25.5545 101.176 26.2292 101.173C26.0878 98.6523 25.6275 96.1803 25.298 93.7025C25.1158 92.6676 23.4942 92.6326 23.5877 93.7097Z" fill="#A94744"/>
<path d="M117.457 32.1797C120.933 33.9695 123.059 37.1563 124.158 40.839C124.476 41.9204 126.683 52.942 124.707 53.1752C124.121 53.2196 123.627 53.9905 124.168 54.4381C125.528 55.6039 126.872 54.4266 127.316 52.9393C128.069 50.4151 127.243 46.8619 126.829 44.2955C125.948 38.8073 123.404 33.3261 118.173 30.8272C117.361 30.4279 116.603 31.7335 117.457 32.1797Z" fill="#A94744"/>
<path d="M114.899 44.0788C117.072 46.9934 117.944 50.4575 117.373 54.0584C117.958 53.8781 118.586 53.7395 119.171 53.5592C118.404 52.9766 117.817 52.5293 116.916 52.214C116.329 52.0387 116.013 52.6677 116.198 53.1219C116.562 53.9259 117.014 54.4209 117.644 55.0511C118.191 55.5875 119.314 55.3997 119.447 54.5466C120.104 50.3124 118.962 46.2636 116.291 42.9432C115.655 42.2293 114.263 43.2708 114.899 44.0788Z" fill="#A94744"/>
<path d="M108.934 49.7277C109.665 51.89 110.212 54.0478 110.447 56.343C110.637 58.0054 110.325 59.7171 111.1 61.1993C111.327 61.6481 112.002 61.6034 112.225 61.1945C113.165 59.6162 112.706 57.5469 112.427 55.7488C112.104 53.4958 111.55 51.338 110.778 49.1811C110.323 48.0585 108.526 48.563 108.934 49.7277Z" fill="#A94744"/>
<path d="M114.105 186.517C114.478 189.303 114.176 192.097 113.194 194.759C112.304 197.1 110.433 201.162 107.276 200.453C106.784 200.319 106.378 200.86 106.605 201.314C108.466 204.858 112.631 200.253 113.659 198.402C115.808 194.653 116.371 190.331 115.547 186.103C115.407 185.115 113.965 185.571 114.105 186.517Z" fill="#A94744"/>
<path d="M106.82 187.808C105.799 191.364 104.159 197.945 99.7037 198.236C99.2541 198.28 98.9895 198.778 99.3467 199.137C101.112 200.929 103.49 199.256 104.702 197.718C106.762 195.099 107.782 191.449 108.532 188.292C108.8 187.167 107.129 186.724 106.82 187.808Z" fill="#A94744"/>
<path d="M99.8436 188.104C99.1745 189.415 98.4582 190.72 97.789 192.031C97.4778 192.66 97.1613 193.247 96.8501 193.881C96.6738 194.243 96.4921 194.557 96.3158 194.919C96.4064 195.321 96.3599 195.457 96.2282 195.233C96.0444 195.056 95.7777 195.057 95.5479 195.147C95.5061 195.147 95.4592 195.189 95.4173 195.189C95.0988 195.327 94.97 195.777 95.0603 196.096C95.4278 197.669 97.1788 197.389 97.9431 196.308C99.4193 194.137 100.349 191.387 101.469 188.997C101.867 187.96 100.378 187.066 99.8436 188.104Z" fill="#A94744"/>
<path d="M132.67 105.451C135.194 106.068 137.671 106.868 140.061 107.894C141.821 108.655 143.537 109.997 145.432 110.256C145.793 110.301 146.058 109.803 145.832 109.538C144.611 107.963 142.401 107.298 140.599 106.542C138.115 105.517 135.591 104.764 132.979 104.189C132.214 103.967 131.859 105.229 132.67 105.451Z" fill="#A94744"/>
<path d="M138.561 104.839C140.816 105.101 142.979 105.72 144.966 106.836C146.455 107.688 147.674 109.032 149.34 109.564C149.659 109.656 150.019 109.336 149.882 109.023C148.516 105.158 142.16 103.652 138.555 103.401C137.655 103.357 137.708 104.754 138.561 104.839Z" fill="#A94744"/>
<path d="M194.583 109.33C197.869 108.506 201.102 107.498 204.251 106.272C206.857 105.272 210.185 104.311 212.248 102.409C212.738 101.957 212.196 101.196 211.61 101.334C208.689 101.932 205.815 103.88 203.027 104.969C200.108 106.111 197.141 107.065 194.174 107.847C193.228 108.118 193.642 109.559 194.583 109.33Z" fill="#A94744"/>
<path d="M200.856 102.102C204.454 100.826 208.409 99.8158 211.733 97.9136C212.14 97.687 211.818 97.1444 211.416 97.1931C207.637 97.7479 203.998 99.4318 200.447 100.66C199.591 101.025 200.004 102.42 200.856 102.102Z" fill="#A94744"/>
<path d="M215.225 114.913C214.869 116.133 214.293 117.26 213.439 118.205C212.768 118.977 211.735 119.52 211.378 120.468C211.29 120.736 211.563 120.959 211.788 121.005C213.002 121.136 214.168 119.782 214.839 118.921C215.687 117.84 216.315 116.619 216.67 115.315C216.98 114.367 215.493 113.965 215.225 114.913Z" fill="#A94744"/>
<path d="M210.626 113.494C210.678 114.571 210.368 115.608 209.65 116.422C209.025 117.147 208.122 117.511 207.45 118.142C207.226 118.326 207.363 118.728 207.636 118.774C210.337 119.479 212.167 115.601 212.022 113.488C211.93 112.589 210.58 112.595 210.626 113.494Z" fill="#A94744"/>
<path d="M221.975 28.9497C218.884 32.7444 216.517 36.9858 215.004 41.6734C214.297 43.8837 213.81 46.1819 213.506 48.4741C213.202 50.7715 212.671 53.9277 213.58 56.1311C213.855 56.8046 214.938 56.9779 215.159 56.1244C215.643 54.1871 215.231 51.9816 215.4 49.9567C215.573 47.5657 216.013 45.2258 216.678 42.9269C217.966 38.2821 220.149 33.9054 223.104 30.0695C223.644 29.2565 222.604 28.1782 221.975 28.9497Z" fill="#A94744"/>
<path d="M219.792 44.8022C219.487 46.8747 219.177 48.9473 218.919 51.0196C218.701 52.689 218.211 54.4014 218.579 56.0161C218.718 56.6013 219.571 56.7337 219.882 56.1936C220.645 54.705 220.59 52.9478 220.766 51.2838C220.983 49.2116 221.199 47.1394 221.415 45.0673C221.5 44.1202 219.924 43.902 219.792 44.8022Z" fill="#A94744"/>
<path d="M289.448 37.9781C294.326 41.3363 299.2 44.7834 303.183 49.2229C307.161 53.6624 309.432 58.7367 310.09 64.6338C310.231 65.8048 311.941 65.8394 311.978 64.6258C312.148 51.7478 299.554 43.2024 290.076 36.9398C289.4 36.54 288.818 37.578 289.448 37.9781Z" fill="#A94744"/>
<path d="M297.314 56.4929C298.22 57.9745 299.037 59.5036 299.766 61.1219C300.31 62.3801 300.861 65.3487 301.946 65.8828C301.721 65.7478 301.449 65.8431 301.272 66.0687C301.225 66.1108 301.184 66.158 301.184 66.2469C301.049 66.4724 301.051 66.8804 301.276 67.1043C302.946 68.4886 303.611 66.3256 303.202 64.9308C302.242 61.6972 300.518 58.5506 298.707 55.7234C298.165 54.779 296.771 55.5956 297.314 56.4929Z" fill="#A94744"/>
<path d="M293.247 63.1738C293.978 65.242 294.703 67.3102 295.434 69.3783C296.027 71.0391 296.395 72.8838 297.526 74.2285C297.93 74.6818 298.65 74.3179 298.648 73.7739C298.688 71.9745 297.644 70.1797 297.004 68.5139C296.28 66.5817 295.55 64.6495 294.82 62.7174C294.502 61.7302 292.929 62.1396 293.247 63.1738Z" fill="#A94744"/>
<path d="M262.372 86.7153C261.087 90.6802 259.345 94.4691 257.153 97.988C256.036 99.8391 254.783 101.602 253.441 103.271C252.322 104.672 250.931 105.938 250.174 107.563C249.951 108.014 250.403 108.509 250.894 108.282C254.218 106.599 256.814 101.954 258.689 98.8864C260.881 95.1844 262.574 91.2126 263.859 87.1118C264.127 86.1639 262.687 85.8143 262.372 86.7153Z" fill="#A94744"/>
<path d="M255.764 88.5431C255.148 91.3388 254.035 93.9534 252.424 96.3453C251.618 97.5203 250.676 98.6489 249.645 99.6418C248.837 100.456 248.118 100.956 247.719 102.035C247.543 102.444 248.036 102.714 248.35 102.665C250.738 102.294 252.749 99.0899 253.955 97.2385C255.565 94.7106 256.678 91.9129 257.251 88.9396C257.519 87.9499 256.032 87.5534 255.764 88.5431Z" fill="#A94744"/>
<path d="M249.641 87.8048C248.75 89.8327 247.812 91.8609 246.874 93.8943C246.071 95.6969 244.907 97.5482 244.602 99.4847C244.515 100.16 245.371 100.967 245.954 100.243C247.208 98.663 247.785 96.6782 248.546 94.8286C249.437 92.7536 250.281 90.7259 251.172 88.6509C251.665 87.6603 250.128 86.7201 249.641 87.8048Z" fill="#A94744"/>
<path d="M254.463 132.123C257.121 132.295 259.778 132.461 262.436 132.586C265.047 132.753 267.794 133.149 270.403 132.913C271.214 132.821 271.569 131.512 270.621 131.338C268.099 130.899 265.442 130.999 262.879 130.963C260.086 130.886 257.25 130.809 254.457 130.732C253.557 130.688 253.563 132.038 254.463 132.123Z" fill="#A94744"/>
<path d="M258.993 128.416C261.288 128.312 263.542 128.172 265.838 128.068C267.684 127.972 269.62 128.188 271.28 127.371C271.817 127.101 271.589 126.334 271.139 126.2C269.337 125.627 267.268 126.127 265.422 126.271C263.31 126.463 261.15 126.603 259.033 126.795C257.908 126.841 257.915 128.51 258.993 128.416Z" fill="#A94744"/>
<path d="M228.754 194.808C231.116 199.343 234.105 203.473 237.807 207.014C238.847 207.998 240.524 209.973 242.186 209.694C243.404 209.464 244.026 208.29 243.436 207.262C243.257 206.944 242.719 206.993 242.626 207.354C242.142 209.245 238.297 205.343 237.798 204.854C236.805 203.864 235.855 202.88 234.997 201.806C233.005 199.471 231.284 196.91 229.787 194.171C229.423 193.545 228.39 194.135 228.754 194.808Z" fill="#A94744"/>
<path d="M238.221 198.278C239.76 199.846 241.299 201.419 242.833 202.987C243.921 204.107 245.142 206.037 246.764 206.166C247.036 206.165 247.302 205.939 247.259 205.667C247.116 204.004 245.176 202.841 244.047 201.768C242.466 200.242 240.88 198.717 239.299 197.196C238.574 196.477 237.501 197.559 238.221 198.278Z" fill="#A94744"/>
<path d="M243.299 196.007C244.653 197.079 246.008 198.203 247.367 199.274C248.448 200.128 249.625 201.514 251.023 201.78C251.515 201.867 251.832 201.416 251.606 201.014C251.014 199.709 249.389 198.816 248.261 197.968C246.949 196.938 245.684 195.908 244.377 194.92C243.653 194.206 242.486 195.336 243.299 196.007Z" fill="#A94744"/>
<path d="M255.844 160.796C257.469 161.777 259.048 162.764 260.674 163.793C261.937 164.593 263.292 165.806 264.825 165.842C265.275 165.84 265.544 165.347 265.318 164.987C264.543 163.641 262.831 163.062 261.525 162.304C259.9 161.364 258.274 160.425 256.649 159.485C255.747 158.95 254.989 160.261 255.844 160.796Z" fill="#A94744"/>
<path d="M262.724 158.38C263.898 158.914 265.026 159.584 266.112 160.343C267.103 161.108 268.007 162.181 269.134 162.72C269.496 162.897 270.08 162.58 269.901 162.131C268.986 159.75 265.647 158.054 263.482 157.069C262.581 156.623 261.823 157.976 262.724 158.38Z" fill="#A94744"/>
<path d="M268.283 206.75C271.484 207.95 275.042 208.296 278.418 207.565C280.89 207.057 285.34 205.689 286.229 203.028C286.363 202.667 285.959 202.355 285.64 202.445C284.428 202.675 283.485 203.668 282.411 204.305C281.017 205.075 279.534 205.667 278.003 206.034C274.858 206.769 271.703 206.599 268.639 205.535C267.827 205.266 267.565 206.481 268.283 206.75Z" fill="#A94744"/>
<path d="M274.107 199.882C278.652 199.727 285.129 197.628 286.955 192.986C287.085 192.625 286.591 192.266 286.278 192.445C284.526 193.671 283.089 195.299 281.206 196.343C279.004 197.565 276.621 198.203 274.101 198.308C273.112 198.354 273.119 199.928 274.107 199.882Z" fill="#A94744"/>
<path d="M46.3663 40.6758C42.9552 42.9394 39.7285 45.5211 37.2214 48.8165C34.6206 52.2063 30.2838 58.2082 33.2724 62.3852C34.4458 64.0435 36.748 65.4773 38.9047 64.6575C42.0532 63.3836 42.8088 61.487 43.7427 58.4651C44.2746 56.8467 44.7173 55.1763 45.2965 53.5995C46.5012 50.3097 47.926 47.1079 49.8959 44.1705C51.3253 42.0514 48.4787 39.2704 46.3663 40.6758Z" fill="#F7C8C9"/>
<path d="M29.9823 72.2587C29.6659 72.8876 29.355 73.5637 29.1329 74.2393C29.0448 74.4228 28.5125 75.9523 28.9998 74.9146C28.1967 76.7225 27.5291 78.3886 28.1705 80.4101C28.9442 82.7971 31.1999 84.3619 33.7194 83.9903C36.286 83.6186 37.9404 81.5403 38.0657 79.0187C38.1084 77.9829 37.8791 76.9483 37.3787 76.0979C37.1991 75.6906 37.152 75.6908 37.3366 76.051C37.4689 76.4113 37.4689 76.4113 37.2892 75.9622C37.2417 75.8735 37.1993 75.7377 37.1519 75.649C37.243 76.1873 37.2903 76.2342 37.288 75.6903C37.2874 75.5543 37.2871 75.4654 37.3336 75.3292C37.2886 75.8263 37.2415 75.8265 37.3336 75.3292C37.6809 73.3506 36.909 71.4186 34.9704 70.6161C33.2568 69.8545 30.8272 70.4506 29.9823 72.2587Z" fill="#F7C8C9"/>
<path d="M246.723 16.0561C241.286 17.9255 231.278 24.8563 235.355 31.6804C236.583 33.7464 239.148 34.2795 241.214 33.1881C244.001 31.7379 244.167 28.8971 245.281 26.3714C246.084 24.4798 247.431 22.7637 249.042 21.5382C251.513 19.6396 250.232 14.8278 246.723 16.0561Z" fill="#F7C8C9"/>
<path d="M233.721 38.8472C232.778 39.7979 232.197 40.9668 231.936 42.2755C231.803 42.9037 231.67 43.5842 231.673 44.2589C231.679 45.6502 232.311 46.8662 233.262 47.8089C234.754 49.3298 237.186 49.4085 238.844 48.0991C239.564 47.5573 240.146 46.786 240.367 45.8854C240.634 44.7126 240.405 43.7251 239.903 42.6027C239.856 42.5558 239.856 42.4669 239.814 42.42C239.951 42.7803 240.083 43.0936 240.268 43.4537C239.903 42.4667 239.587 41.8822 238.908 41.0744C239.135 41.3454 239.361 41.6582 239.587 41.9293C239.313 41.5225 239.269 41.031 239.588 42.1071C239.631 42.4678 239.68 42.8285 239.728 43.1421C239.727 42.8702 239.726 42.6453 239.725 42.4203C239.679 42.7814 239.634 43.0955 239.593 43.4565C239.634 43.2785 239.815 42.7809 239.546 43.3678C239.282 44.0018 239.546 43.4567 239.593 43.3258C240.575 41.742 240.027 39.5842 238.626 38.5127C237.183 37.4361 235.023 37.5341 233.721 38.8472Z" fill="#F7C8C9"/>
</svg>
