<svg width="250" height="339" viewBox="0 0 250 339" fill="none" xmlns="http://www.w3.org/2000/svg">
<path d="M98.2495 54.5882C98.2495 54.5882 83.9095 51.1707 75.1435 53.293C66.3775 55.4153 63.4395 61.1631 63.411 65.5959C63.3782 70.0287 65.112 73.3663 80.8905 74.3357C96.6648 75.3094 146.289 92.7526 146.289 92.7526L157.739 76.719C157.739 76.719 121.36 55.8791 98.2495 54.5882Z" fill="#367EA9"/>
<mask id="mask0_10_951" style="mask-type:luminance" maskUnits="userSpaceOnUse" x="69" y="0" width="181" height="165">
<path d="M69.7622 0.755981L248.346 0.000116483L249.039 163.714L70.4551 164.469L69.7622 0.755981Z" fill="white"/>
</mask>
<g mask="url(#mask0_10_951)">
<path d="M110.775 118.971C110.775 118.971 111.461 52.4476 154.628 56.7148C197.794 60.9777 183.611 97.604 183.611 97.604C183.611 97.604 205.095 108.773 208.238 128.086C211.385 147.398 211.385 147.398 211.385 147.398L225.369 163.186C225.369 163.186 232.84 152.729 233.777 143.55L248.936 140.425L246.958 119.074L227.831 120.216L225.095 109.695L240.684 103.511L231.439 84.8903L212.115 90.3936C212.115 90.3936 214.919 60.9224 206.159 47.2573C197.403 33.5922 186.395 29.0514 186.395 29.0514L195.097 14.8351L177.817 7.61652L168.721 24.2034L158.396 22.6477L162.464 0.372548L135.352 0.487298L136.784 18.7063L123.58 22.7951L115.988 3.63042L93.6241 7.97287L99.5539 33.5893C99.5539 33.5893 65.1449 59.7334 72.0373 109.616L110.775 118.971Z" fill="#FF9999"/>
</g>
<path d="M103.213 108.786C103.213 108.786 138.687 104.745 159.852 106.462C181.016 108.182 210.854 120.287 220.113 138.185C228.015 153.449 234.768 196.892 236.579 209.318C236.911 211.586 236.878 213.891 236.484 216.146C234.998 224.617 230.67 246.348 223.951 255.783C215.51 267.638 204.797 301.326 194.686 312.908C184.572 324.491 164.946 342.094 142.205 336.489C125.721 332.427 114.197 320.966 109.099 314.969C106.843 312.313 104.1 310.119 101.014 308.502L78.0823 296.479C70.0289 292.257 62.8762 286.509 57.034 279.547C46.5595 267.072 30.6088 245.72 23.5308 224.098C12.5327 190.502 6.97088 159.385 16.0837 141.689C25.1923 123.993 37.5352 112.68 44.9045 110.701C52.2739 108.723 87.178 102.04 103.213 108.786Z" fill="#F74F60"/>
<path d="M71.2788 133.721C63.6164 137.558 53.8423 151.401 47.5042 166.441C41.1618 181.486 47.0643 227.06 33.1679 232.957C19.2758 238.855 13.3523 220.809 6.17504 202.155C-1.00218 183.5 -1.09233 162.201 5.95284 149.656C12.998 137.115 61.7832 120.919 61.7832 120.919C80.0036 117.781 78.9413 129.883 71.2788 133.721ZM217.33 119.77C195.707 90.037 172.035 91.255 157.8 91.3152C146.756 91.362 137.787 110.562 134.323 119.171C133.166 122.04 134.018 125.334 136.439 127.263C140.153 130.218 147.651 133.174 152.881 134.859L148.235 157.532L96.423 181.806L76.8727 214.061L85.2966 217.444L102.573 188.453L120.488 178.979L127.384 197.243L115.946 231.528L121.398 233.697L136.58 199.29L129.52 175.858L149.937 165.59C149.937 165.59 151.266 183.9 154.77 188.976C158.27 194.056 163.059 207.243 163.059 207.243L164.512 233.515C164.512 233.515 131.416 254.12 120.836 257.278C110.256 260.435 88.2891 266.229 88.2891 266.229C88.2891 266.229 92.2185 273.302 93.3277 273.297C94.4413 273.293 111.685 268.907 116.13 266.803C120.575 264.699 120.575 264.699 120.575 264.699L109.403 289.494L116.933 292.94L131.43 264.378L160.567 245.243L145.669 274.465L140.567 286.026L146.717 291.421L167.719 255.742C167.719 255.742 171.149 277.001 171.185 285.479L177.57 280.448C177.57 280.448 179.958 253.605 174.045 238.062L174.647 215.673L199.069 230.17L204.522 221.333C204.522 221.333 189.819 209.495 184.102 209.725L202.719 204.711L201.286 195.262L173.887 199.691C173.887 199.691 166.603 189.295 163.923 180.824C161.243 172.353 156.041 160.143 156.041 160.143L161.434 137.187C171.821 141.125 180.573 154.046 184.886 161.384C189.685 169.537 211.819 183.958 227.415 176.488C243.012 169.019 238.952 149.504 217.33 119.77Z" fill="#C5264C"/>
<path d="M76.1599 45.5371L55.8243 60.8817L68.2866 111.299C68.2866 111.299 48.971 122.826 28.9353 122.679L32.4436 60.7055L19.7603 41.3818L46.5189 27.0032L51.9915 37.0363L67.2588 34.0481L76.1599 45.5371ZM159.807 65.5277C145.694 71.9334 123.188 84.5441 108.786 92.8083C100.011 97.8457 93.4283 105.969 90.3348 115.596L87.2752 125.119L127.414 138.299C127.414 138.299 153.404 95.7838 170.346 87.2294C187.293 78.6793 228.686 76.4189 228.686 76.4189L228.583 51.9773C228.583 51.9773 181.881 55.5027 159.807 65.5277Z" fill="#367EA9"/>
</svg>
