<svg width="334" height="326" viewBox="0 0 334 326" fill="none" xmlns="http://www.w3.org/2000/svg">
<path d="M42.9812 202.557C42.9812 202.557 50.1696 186.544 85.2681 193.093C120.361 199.641 148.619 182.006 159.376 163.408C170.133 144.81 166.366 100.528 159.053 87.1588C159.053 87.1588 110.054 80.8362 94.7393 34.1881L134.545 10.4873C134.545 10.4873 141.901 33.902 153.74 39.5231C153.74 39.5231 199.353 -22.7599 270.123 9.91345C340.893 42.5868 338.037 135.869 325.874 173.533C313.711 211.197 272.722 283.506 200.637 298.226C128.558 312.951 81.5502 295.105 57.2052 269.209C57.2052 269.209 42.4577 255.882 43.1667 240.941C43.1667 240.941 33.9251 248.449 35.0229 265.435C36.1264 282.427 46.3199 314.608 46.3199 314.608C46.3199 314.608 38.382 326.485 13.6322 324.786C13.6322 324.786 -2.78235 283.894 2.00418 257.333C6.79072 230.772 19.5188 201.359 42.9812 202.557Z" fill="#F26552"/>
<path d="M117.894 36.3265C117.894 36.3265 126.225 56.037 134.146 62.0147C142.068 67.9868 158.092 76.5123 156.739 79.7801C155.387 83.048 146.685 81.7073 139.031 78.9963C131.377 76.2853 115.685 63.2168 112.783 56.9526C109.875 50.6943 104.484 36.7233 117.894 36.3265Z" fill="#E24B3D"/>
<path d="M178.836 83.7609C178.836 83.7609 167.165 66.03 172.756 47.2001C178.348 28.3702 191.217 17.2326 202.275 19.4796C213.339 21.7324 224.221 27.2942 224.861 58.6333C225.5 89.9666 204.87 146.501 197.17 153.202C189.475 159.909 178.921 166.42 178.892 159.723C178.864 153.026 184.733 97.4876 178.836 83.7609Z" fill="#F47C6B"/>
<path d="M182.575 55.948C182.575 55.948 181.609 33.4803 193.697 32.3917C205.784 31.2974 204.637 46.2585 202.254 53.8302C199.865 61.4078 193.754 74.6435 189.115 74.6632C184.47 74.6828 181.381 68.1083 182.575 55.948Z" fill="#F9B19D"/>
<path d="M63.3736 209.801C63.3736 209.801 61.0196 201.05 76.107 203.442C91.1944 205.833 99.703 207.595 110.258 204.07C120.814 200.544 137.257 188.244 143.32 189.63C149.383 191.023 152.748 194.887 148.393 199.47C144.032 204.059 121.658 217.548 108.631 220.041C95.6108 222.54 76.9386 222.884 71.0023 220.201C65.0662 217.523 63.3736 209.801 63.3736 209.801Z" fill="#F47C6B"/>
<path d="M12.2907 299.374C12.2907 299.374 3.70074 270.213 7.25824 252.85C10.81 235.492 23.0685 212.248 29.9436 213.424C36.8186 214.605 20.5955 236.65 17.0233 246.451C13.4511 256.258 13.9473 290.434 14.8077 294.891C15.6738 299.348 13.4471 301.606 12.2907 299.374Z" fill="#F47C6B"/>
<path d="M42.2705 237.763L37.7325 219.57C37.7325 219.57 26.8822 255.511 27.2672 263.417C27.6465 271.317 32.7403 299.651 31.2211 307.018C29.7076 314.384 19.0724 319.438 17.5292 319.79C15.9804 320.148 18.0643 323.655 28.4138 320.522C38.7632 317.383 41.8667 313.935 41.8667 313.935C41.8667 313.935 31.4163 272.799 31.8066 262.879C32.2026 252.952 40.5072 237.846 42.2705 237.763Z" fill="#E24B3D"/>
<path d="M262.553 72.2887C262.553 72.2887 244.415 50.2106 248.48 35.7732C252.54 21.3358 258.704 15.1831 273.169 24.3319C287.633 33.4808 316.192 77.2199 316.845 111.735C317.499 146.255 306.926 202.972 265.389 239.735C223.846 276.497 153.702 296.372 128.94 291.861C104.178 287.349 89.1788 277.09 94.0654 275.519C98.9577 273.954 175.085 274.801 206.624 256.058C238.169 237.308 285.191 185.053 277.755 133.052C270.314 81.0509 262.553 72.2887 262.553 72.2887Z" fill="#E24C3D"/>
<path d="M134.09 7.83203C134.409 8.44737 134.597 9.12667 134.634 9.87576C134.678 10.6191 134.577 11.4206 134.333 12.2746C134.089 13.1287 133.707 14.0236 133.186 14.948C132.666 15.8781 132.018 16.8261 131.239 17.7919C130.465 18.7576 129.575 19.7239 128.571 20.6907C127.572 21.6574 126.475 22.6015 125.286 23.5344C124.097 24.4616 122.833 25.3603 121.499 26.2132C120.172 27.0718 118.792 27.8788 117.371 28.634C115.951 29.3835 114.507 30.0697 113.052 30.6868C111.59 31.3097 110.146 31.846 108.707 32.3074C107.268 32.7689 105.864 33.1437 104.505 33.4261C103.14 33.7142 101.838 33.9042 100.605 34.0074C99.3721 34.1048 98.2195 34.1097 97.1644 34.0162C96.1035 33.9227 95.1517 33.7365 94.3033 33.4635C93.4607 33.1846 92.7387 32.8188 92.1431 32.3603C91.5476 31.9075 91.09 31.3734 90.7647 30.7639C90.4393 30.1485 90.2578 29.4692 90.2142 28.7201C90.1765 27.9711 90.2768 27.1695 90.5211 26.3155C90.7653 25.4615 91.1477 24.5723 91.6682 23.6421C92.1887 22.712 92.836 21.7698 93.61 20.804C94.3898 19.8382 95.2732 18.872 96.2778 17.9053C97.2823 16.9385 98.3791 15.9886 99.5682 15.0615C100.757 14.1285 102.016 13.2356 103.349 12.377C104.683 11.5183 106.057 10.7114 107.477 9.96188C108.903 9.2066 110.341 8.52042 111.803 7.90331C113.258 7.28622 114.708 6.74408 116.147 6.28267C117.586 5.82126 118.985 5.45225 120.35 5.16406C121.709 4.88166 123.01 4.68595 124.243 4.58852C125.482 4.49106 126.629 4.48621 127.69 4.5797C128.751 4.66742 129.703 4.85359 130.545 5.13243C131.388 5.41128 132.11 5.77708 132.705 6.22988C133.301 6.68267 133.764 7.21671 134.09 7.83203Z" fill="#F2B69E"/>
<path d="M127.682 10.6892C127.903 11.109 128.026 11.5811 128.045 12.0997C128.065 12.6183 127.981 13.1777 127.799 13.7722C127.611 14.3724 127.326 14.996 126.942 15.6431C126.559 16.296 126.083 16.9609 125.521 17.6433C124.954 18.3258 124.305 19.0087 123.582 19.6918C122.853 20.3807 122.06 21.0527 121.199 21.7133C120.337 22.374 119.429 23.0119 118.469 23.6268C117.509 24.2418 116.515 24.8166 115.491 25.3627C114.467 25.9031 113.432 26.3973 112.385 26.8456C111.338 27.2938 110.296 27.6901 109.266 28.0288C108.236 28.3674 107.229 28.6483 106.255 28.8599C105.282 29.0773 104.349 29.2311 103.468 29.3155C102.586 29.3999 101.768 29.4207 101.013 29.3662C100.263 29.3175 99.5828 29.2051 98.9884 29.0232C98.3882 28.8413 97.88 28.5957 97.4637 28.2862C97.0416 27.9767 96.7231 27.615 96.4966 27.1952C96.2758 26.7697 96.1527 26.3033 96.1332 25.7789C96.1138 25.2603 96.1979 24.7067 96.3855 24.1065C96.5674 23.5121 96.853 22.8884 97.2364 22.2355C97.6197 21.5826 98.0953 20.9178 98.6572 20.2353C99.2249 19.5528 99.8733 18.87 100.597 18.1868C101.326 17.5037 102.118 16.8318 102.98 16.1653C103.842 15.5046 104.75 14.8668 105.709 14.2518C106.675 13.6425 107.664 13.062 108.688 12.5217C109.711 11.9813 110.747 11.4813 111.794 11.0331C112.841 10.5849 113.882 10.1885 114.912 9.8499C115.948 9.51123 116.95 9.23611 117.923 9.01874C118.902 8.80135 119.829 8.65334 120.711 8.56892C121.592 8.47873 122.411 8.46374 123.166 8.51242C123.921 8.56109 124.596 8.67927 125.19 8.86118C125.79 9.04308 126.299 9.28875 126.721 9.59243C127.137 9.9019 127.455 10.2694 127.682 10.6892Z" fill="#AF383C"/>
</svg>
