<svg width="171" height="99" viewBox="0 0 171 99" fill="none" xmlns="http://www.w3.org/2000/svg">
<mask id="mask0_10_331" style="mask-type:luminance" maskUnits="userSpaceOnUse" x="0" y="0" width="171" height="99">
<path d="M0 0H170.486V99H0V0Z" fill="white"/>
</mask>
<g mask="url(#mask0_10_331)">
<path d="M170.068 51.9214C168.514 42.9826 159.794 37.8655 151.746 36.0237C149.956 35.6133 148.199 35.3658 146.561 35.2729C145.699 35.2234 144.868 35.2193 144.082 35.2564C142.849 30.6468 140.068 26.5919 136.269 23.56C134.923 22.4793 133.444 21.5305 131.86 20.7344C128.265 18.9214 124.123 17.8881 119.714 17.8881C119.516 17.8881 119.318 17.8984 119.12 17.9026C116.643 7.6932 106.621 0.0516357 94.6254 0.0516357C88.3637 0.0516357 82.6382 2.13682 78.243 5.5812C76.8591 6.66814 75.6071 7.88707 74.514 9.22151C72.93 11.1479 71.6719 13.3114 70.8201 15.6421C66.759 13.0784 61.8296 11.5686 56.5104 11.5686C42.9103 11.5686 31.8429 21.3923 31.4346 33.6498C31.4284 33.8808 31.4242 34.1097 31.4242 34.3428C31.0777 34.2623 30.7271 34.1881 30.3744 34.12H30.3703C28.6667 33.7838 26.9012 33.6106 25.0882 33.6106C23.0299 33.6106 21.0272 33.8374 19.1152 34.2623H19.1111C17.5869 34.5985 16.1184 35.0646 14.718 35.6442H14.7159C8.61506 38.1625 3.82594 42.8238 1.51387 48.5699V48.574C1.023 49.7971 0.6435 51.0696 0.385687 52.3814C0.132 53.6808 0 55.0173 0 56.3826C0 58.8432 0.433125 61.2151 1.22719 63.4364L3.65681 68.2214C6.60619 72.6166 11.1581 76.0341 16.5763 77.8058C17.0383 77.9564 17.5086 78.0987 17.9871 78.2266C18.1273 79.7363 18.4284 81.2028 18.8781 82.6135C20.5569 87.9183 24.3086 92.431 29.2854 95.3804C30.591 96.1559 31.9791 96.82 33.4414 97.3645C36.3784 98.4638 39.6 99.0681 42.9742 99.0681C48.9761 99.0681 54.4809 97.1521 58.7998 93.9593C58.905 93.8809 59.0122 93.8026 59.1174 93.7221C60.4869 94.7678 61.9822 95.6877 63.5807 96.4529C67.0684 98.1214 71.0428 99.0681 75.2606 99.0681C79.8909 99.0681 84.2263 97.9276 87.9491 95.9393C89.0113 95.3742 90.0178 94.741 90.9727 94.0439C91.6802 94.5595 92.4186 95.0442 93.1879 95.4897C97.0839 97.7543 101.716 99.0681 106.685 99.0681C110.426 99.0681 114.547 98.5339 118.538 97.4924C119.763 97.1727 120.972 96.8097 122.158 96.3951C130.261 93.5777 137.138 88.5906 138.144 81.7266C140.805 82.0546 143.668 81.9432 146.557 81.4111C148.288 81.0976 150.026 80.6335 151.732 80.023C162.808 76.0836 172.532 66.1383 170.068 51.9214Z" fill="white"/>
</g>
<mask id="mask1_10_331" style="mask-type:luminance" maskUnits="userSpaceOnUse" x="33" y="44" width="107" height="27">
<path d="M139.862 44.55H33.7342V70.95H139.862V44.55Z" fill="white"/>
</mask>
<g mask="url(#mask1_10_331)">
<mask id="mask2_10_331" style="mask-type:luminance" maskUnits="userSpaceOnUse" x="33" y="44" width="18" height="20">
<path d="M33.7756 44.5913H50.1023V63.5581H33.7756V44.5913Z" fill="white"/>
</mask>
<g mask="url(#mask2_10_331)">
<path d="M34.0964 63.2743L38.3204 45.05L45.6629 44.786L49.8869 63.2743H44.4749L43.8396 59.7598H40.1436L39.5084 63.2743H34.0964ZM43.4684 57.1445L42.6516 51.947H41.3316L40.5149 57.1445H43.4684Z" fill="#189FE3"/>
</g>
<path d="M55.7779 50.0661L55.5882 53.8198C55.7635 53.3248 55.9945 52.8504 56.2812 52.3926C56.5452 51.9368 56.8525 51.5243 57.2052 51.1551C57.5352 50.8044 57.9023 50.5198 58.3107 50.3053C58.7005 50.097 59.1047 49.9918 59.5234 49.9918C60.7939 49.9918 61.753 50.2125 62.4027 50.6518C63.04 51.1097 63.4793 51.8563 63.7227 52.8958C63.9537 53.9353 64.0527 55.3007 64.0197 56.9878C63.964 58.6997 63.8836 60.7952 63.7804 63.2743H58.5252C58.5747 62.9072 58.6345 62.4225 58.7067 61.8223C58.7603 61.2407 58.8139 60.6158 58.8634 59.9496C58.9006 59.2793 58.9294 58.6007 58.9459 57.9118C58.9624 57.225 58.9542 56.6001 58.9212 56.0391C58.8655 55.4946 58.7768 55.047 58.6572 54.6943C58.5293 54.3437 58.3457 54.1663 58.1044 54.1663C57.5372 54.1663 57.0257 54.3066 56.5699 54.5871C56.0914 54.8841 55.7305 55.2368 55.4892 55.6431L55.0932 63.2743H50.7619C50.7619 61.779 50.7619 60.2631 50.7619 58.7286C50.7392 57.2168 50.7289 55.8452 50.7289 54.6118C50.7124 53.1495 50.6959 51.7408 50.6794 50.3878L55.7779 50.0661Z" fill="#189FE3"/>
<path d="M65.0444 60.2135C65.0444 59.6855 65.1393 59.2462 65.3332 58.8935C65.525 58.5429 65.7808 58.2583 66.1004 58.0438C66.4181 57.8355 66.7893 57.687 67.2142 57.5983C67.6308 57.5117 68.0804 57.4663 68.5589 57.4663C69.4004 57.4663 70.244 57.5632 71.0917 57.755C71.9167 57.9654 72.6118 58.184 73.1789 58.415V55.0078L65.5724 55.6678V50.066C67.1936 50.0887 68.726 50.1155 70.1677 50.1485C71.5908 50.1877 72.851 50.231 73.9462 50.2805C75.2105 50.3362 76.3799 50.3878 77.4524 50.4373L77.3204 63.2743H73.2862L73.2037 61.451C72.587 62.0182 71.8754 62.4575 71.0669 62.771C70.2358 63.1072 69.4252 63.2743 68.6332 63.2743C68.0392 63.2743 67.5112 63.1877 67.0492 63.0103C66.5913 62.8515 66.2242 62.6308 65.9437 62.3503C65.6405 62.0698 65.4198 61.746 65.2837 61.3768C65.1228 61.0035 65.0444 60.6157 65.0444 60.2135ZM68.4517 60.3455C68.4517 60.659 68.5754 60.888 68.8229 61.0303C69.0704 61.1912 69.3943 61.2695 69.7964 61.2695C70.0109 61.2695 70.2213 61.218 70.4317 61.1128C70.6235 61.0262 70.8071 60.9189 70.9844 60.791C71.1598 60.6714 71.3351 60.5229 71.5124 60.3455C71.3351 60.1702 71.1598 60.0114 70.9844 59.867C70.8071 59.7474 70.6235 59.6319 70.4317 59.5205C70.2213 59.4339 70.0109 59.3885 69.7964 59.3885C69.3943 59.3885 69.0704 59.469 68.8229 59.6278C68.5754 59.8052 68.4517 60.0444 68.4517 60.3455Z" fill="#189FE3"/>
<mask id="mask3_10_331" style="mask-type:luminance" maskUnits="userSpaceOnUse" x="78" y="44" width="12" height="20">
<path d="M78.0862 44.5912H89.7022V63.5579H78.0862V44.5912Z" fill="white"/>
</mask>
<g mask="url(#mask3_10_331)">
<path d="M78.3797 50.5445L80.8629 50.495L80.7557 45.3965L85.9284 44.7612L85.6644 50.2805L89.1789 50.066L88.9727 55.1397L85.7222 55.1645V63.2742H80.7062L80.9454 55.2717L78.5117 55.4285L78.3797 50.5445Z" fill="#189FE3"/>
</g>
<path d="M89.4437 56.963C89.4437 56.138 89.4788 55.3109 89.551 54.4798C89.6211 53.6713 89.85 52.9246 90.2357 52.2358C90.6194 51.5654 91.236 51.0106 92.0837 50.5693C92.9129 50.1299 94.0926 49.8742 95.623 49.802H96.1757C97.638 49.802 98.7662 50.0248 99.5582 50.4703C100.35 50.9281 100.938 51.4994 101.324 52.1863C101.697 52.8916 101.918 53.6548 101.984 54.4798C102.054 55.3274 102.091 56.138 102.091 56.9135C102.091 57.7715 102.037 58.6089 101.934 59.4215C101.829 60.2465 101.565 60.9869 101.142 61.6408C100.717 62.2904 100.074 62.8081 99.2117 63.1918C98.3537 63.5981 97.1657 63.8023 95.6477 63.8023C94.2555 63.8023 93.1562 63.5981 92.3477 63.1918C91.5227 62.7916 90.8978 62.2636 90.475 61.6078C90.0336 60.9766 89.751 60.2465 89.6252 59.4215C89.5035 58.6089 89.4437 57.788 89.4437 56.963ZM95.7055 54.191C95.2806 54.2632 94.963 54.3519 94.7485 54.455C94.5216 54.5767 94.3649 54.752 94.2782 54.983C94.173 55.2099 94.1091 55.5007 94.0885 55.8575C94.072 56.2102 94.0637 56.666 94.0637 57.227C94.0637 57.7715 94.072 58.2479 94.0885 58.6543C94.1091 59.0564 94.173 59.3885 94.2782 59.6525C94.3649 59.9392 94.5216 60.1434 94.7485 60.263C94.963 60.4074 95.2806 60.4775 95.7055 60.4775C96.1448 60.4775 96.4769 60.4074 96.7037 60.263C96.9347 60.1434 97.1018 59.9392 97.207 59.6525C97.3101 59.3885 97.374 59.0564 97.3967 58.6543C97.3967 58.2479 97.3967 57.7715 97.3967 57.227C97.3967 56.732 97.405 56.2927 97.4215 55.907C97.4215 55.5172 97.3926 55.1893 97.339 54.9253C97.2895 54.6613 97.1843 54.4612 97.0255 54.323C96.8646 54.1807 96.6254 54.1085 96.3077 54.1085C96.1469 54.1085 95.9468 54.1374 95.7055 54.191Z" fill="#189FE3"/>
<mask id="mask4_10_331" style="mask-type:luminance" maskUnits="userSpaceOnUse" x="102" y="44" width="16" height="20">
<path d="M102.902 44.5912H117.686V63.5579H102.902V44.5912Z" fill="white"/>
</mask>
<g mask="url(#mask4_10_331)">
<path d="M108.717 44.786L108.693 52.5245C109.082 52.5245 109.462 52.5163 109.831 52.4998C110.198 52.4833 110.524 52.4049 110.805 52.2605C111.089 52.1409 111.32 51.9388 111.498 51.6583C111.65 51.3943 111.729 51.0148 111.729 50.5198C111.729 50.0639 111.72 49.5174 111.704 48.878C111.687 48.2469 111.663 47.6488 111.63 47.0878C111.59 46.4174 111.555 45.7389 111.522 45.05L117.198 44.786L117.174 49.67C117.174 50.6064 116.996 51.3571 116.646 51.9223C116.293 52.4998 115.87 52.9494 115.375 53.267C114.864 53.5805 114.344 53.7929 113.816 53.9023C113.288 54.0074 112.846 54.059 112.496 54.059C113.919 54.059 114.996 54.2611 115.722 54.6613C116.441 55.0696 116.943 55.6595 117.223 56.435C117.504 57.227 117.644 58.1964 117.644 59.339V63.2743H112.735C112.719 62.1151 112.702 61.1189 112.686 60.2878C112.646 59.4628 112.547 58.778 112.389 58.2335C112.234 57.7055 111.997 57.3095 111.679 57.0455C111.343 56.798 110.866 56.6743 110.252 56.6743C109.843 56.6743 109.289 56.7444 108.585 56.8805L108.75 63.2743H103.495L103.173 45.05L108.717 44.786Z" fill="#189FE3"/>
</g>
<path d="M118.567 54.8263L123.665 54.5045L123.508 63.2743H118.649L118.567 54.8263ZM118.41 50.4373C118.41 49.3978 118.612 48.678 119.02 48.2758C119.404 47.8695 120.144 47.6653 121.24 47.6653C121.838 47.6653 122.304 47.7457 122.634 47.9045C122.968 48.0819 123.215 48.3005 123.376 48.5645C123.535 48.8285 123.632 49.1214 123.665 49.439C123.682 49.769 123.69 50.0949 123.69 50.4125C123.69 50.7652 123.673 51.1097 123.64 51.4438C123.585 51.7965 123.469 52.1038 123.294 52.3678C123.1 52.6483 122.828 52.869 122.477 53.0278C122.124 53.2052 121.631 53.2918 121 53.2918C120.417 53.2918 119.957 53.2052 119.623 53.0278C119.27 52.869 119.006 52.6565 118.831 52.3925C118.653 52.1285 118.542 51.8212 118.492 51.4685C118.437 51.1344 118.41 50.79 118.41 50.4373Z" fill="#189FE3"/>
<mask id="mask5_10_331" style="mask-type:luminance" maskUnits="userSpaceOnUse" x="124" y="44" width="15" height="20">
<path d="M124.022 44.5912H138.278V63.5579H124.022V44.5912Z" fill="white"/>
</mask>
<g mask="url(#mask5_10_331)">
<path d="M124.247 56.303C124.247 55.4739 124.317 54.6736 124.462 53.9023C124.598 53.1268 124.862 52.4399 125.254 51.8398C125.637 51.2416 126.182 50.7652 126.887 50.4125C127.574 50.0619 128.482 49.8845 129.61 49.8845C130.121 49.8845 130.542 49.9381 130.872 50.0413C131.206 50.1526 131.491 50.2846 131.722 50.4373C131.947 50.6146 132.138 50.8085 132.299 51.023C132.442 51.2499 132.574 51.485 132.695 51.7325H132.885L132.753 45.1078L138.058 44.786V57.0125C138.058 57.9489 138.066 58.7945 138.083 59.5535C138.083 60.3084 138.093 60.9684 138.116 61.5335C138.132 62.1832 138.149 62.7628 138.165 63.2743H133.595L133.883 60.2135C133.762 60.9024 133.553 61.4469 133.256 61.847C132.937 62.2719 132.592 62.5874 132.225 62.7958C131.85 63.0103 131.478 63.1423 131.111 63.1918C130.726 63.2639 130.402 63.299 130.138 63.299H129.767C129.711 63.2825 129.668 63.2743 129.635 63.2743C128.682 63.2743 127.89 63.0989 127.259 62.7463C126.625 62.4121 126.114 61.979 125.724 61.451C125.322 60.9395 125.015 60.3847 124.8 59.7845C124.431 58.7677 124.247 57.6065 124.247 56.303ZM129.321 56.8063C129.321 57.3838 129.329 57.8849 129.346 58.3078C129.362 58.7326 129.43 59.0833 129.552 59.3638C129.661 59.6443 129.837 59.8567 130.08 59.999C130.328 60.1434 130.678 60.2135 131.136 60.2135C131.631 60.2135 132.011 60.1434 132.275 59.999C132.539 59.8567 132.732 59.6443 132.86 59.3638C132.963 59.0833 133.025 58.7326 133.042 58.3078C133.058 57.8849 133.067 57.3838 133.067 56.8063V55.5358C133.067 55.1851 133.042 54.884 132.992 54.6365C132.937 54.4117 132.838 54.2364 132.695 54.1085C132.541 54.0054 132.303 53.9518 131.986 53.9518C131.771 53.9518 131.487 53.9806 131.136 54.0343C130.678 54.1003 130.328 54.1786 130.08 54.2653C129.837 54.3539 129.661 54.4859 129.552 54.6613C129.43 54.8593 129.362 55.115 129.346 55.4285C129.329 55.7647 129.321 56.2246 129.321 56.8063Z" fill="#189FE3"/>
</g>
</g>
</svg>
