<svg width="324" height="328" viewBox="0 0 324 328" fill="none" xmlns="http://www.w3.org/2000/svg">
<path d="M138.91 207.591C123.678 223.216 77.9256 224.582 63.1 212.139L40.1626 144.655L27.2994 26.6621L286.53 23.0951C308.366 169.237 249.064 198.332 222.992 205.28C196.92 212.224 164.104 240.166 160.37 218.308C157.699 202.951 138.91 207.591 138.91 207.591Z" fill="#D86964"/>
<mask id="mask0_10_950" style="mask-type:luminance" maskUnits="userSpaceOnUse" x="0" y="0" width="324" height="328">
<path d="M0 1.36255L321.937 -6.58192e-05L323.319 326.478L1.38183 327.84L0 1.36255Z" fill="white"/>
</mask>
<g mask="url(#mask0_10_950)">
<path d="M27.268 188.659C14.4926 184.481 9.00209 164.06 17.7398 152.174C5.54303 146.296 -2.48505 125.365 12.1741 112.803C-3.4139 105.187 0.749965 90.1947 10.9252 80.2525C-1.51973 76.5981 -2.77165 57.6536 7.40468 47.9741C-12.2417 19.4104 22.4628 -8.73681 44.6025 8.68484C52.5035 -0.399213 73.458 -1.65963 84.5679 9.95005C90.2081 3.67358 104.636 -1.46331 111.464 12.6999C117.943 5.31379 137.197 3.21712 142.65 14.8457C146.844 6.88845 162.957 0.239361 170.959 13.8824C180.286 3.94384 198.114 1.32795 210.589 12.2803C215.108 3.47322 230.391 -0.0460556 237.194 8.19798C251.322 -5.73067 270.302 2.65374 276.306 7.18394C293.484 -9.29806 328.448 8.39761 313.529 35.9358C328.869 46.9418 317.005 57.7345 311.09 59.7747C326.451 74.7503 316.606 86.383 306.656 88.7029C310.07 95.7845 316.126 111.325 304.246 118.208C316.458 128.899 308.923 146.835 297.875 151.115C304.24 178.825 299.144 189.655 278.203 193.976C283.357 212.641 259.055 221.275 239.775 218.23C233.104 241.178 205.019 234.266 194.747 221.284C195.347 224.671 193.109 234.054 187.453 235.512C194.259 244.534 194.637 257.553 183.602 263.59C200.912 278.234 187.101 290.792 179.809 305.278C172.512 319.763 167.144 327.14 161.869 326.576C156.593 326.013 157.478 320.347 156.341 312.993C155.204 305.64 148.059 294.018 141.519 285.839C134.974 277.664 130.36 263.815 141.968 253.543C129.16 241.683 132.776 220.117 140.082 207.647C147.383 195.181 183.581 182.265 199.784 196.652C203.465 189.282 217.305 183.82 227.216 187.747C229.665 167.358 241.563 164.767 248.679 169.49C248.9 159.595 256.535 149.598 270.991 151.228C253.092 135.743 260.368 116.116 269.385 109.305C264.781 97.9965 258.53 82.7247 275.718 67.6114C271.146 64.762 264.607 56.9108 269.689 42.6972C261.532 53.4743 243.405 60.3895 229.231 49.3786C218.235 65.8345 196.169 65.6652 181.95 58.1092C172.387 74.2963 150.841 74.3875 137.78 63.377C129.024 71.0303 112.066 78.5264 94.1458 58.1576C85.3902 65.8109 66.9582 62.8283 59.2809 48.406C57.3397 50.3688 53.6372 52.6623 48.2275 50.1448C53.3189 53.8354 55.9141 67.9559 51.7133 74.2212C63.3591 88.364 61.2057 102.242 51.8761 112.701C60.9695 123.991 63.0343 134.533 55.4027 146.414C62.7884 153.999 65.9712 167.334 58.4055 179.28C76.0531 196.2 73.6424 242.373 63.491 242.416C37.6474 242.46 10.0269 205.728 27.268 188.659Z" fill="#FD9490"/>
</g>
<path d="M175.69 132.884C176.022 133.726 175.637 134.707 174.79 135.034C174.593 135.101 174.401 135.167 174.139 135.168C173.487 135.171 172.9 134.779 172.64 134.134C168.231 123.536 159.54 115.502 148.134 111.445C136.333 107.267 123.125 108.101 112.734 113.615C109.111 117.928 104.826 121.007 100.537 122.131C98.4537 122.66 96.5053 122.931 94.6821 122.939C91.2983 122.953 88.3651 122.051 85.6203 120.305C82.7487 118.428 80.1351 115.445 77.5768 111.223C77.0645 113.114 76.4213 115.071 75.6513 116.898C75.3911 117.485 74.8069 117.876 74.1554 117.879C73.9635 117.88 73.7006 117.815 73.5033 117.755C72.6582 117.365 72.3261 116.457 72.6508 115.608C73.9412 112.607 74.7713 109.477 75.2129 106.415C75.2124 106.288 75.2118 106.157 75.2772 106.091C76.5378 96.0605 73.5007 86.1086 69.3076 79.8788C66.3599 75.5276 62.8999 73.0675 59.8447 73.1461C58.9305 73.1499 58.2154 72.4358 58.1461 71.5876C58.1423 70.6785 58.8514 69.9583 59.6996 69.8891C59.7652 69.8888 59.8965 69.8882 59.9571 69.888C64.1238 69.8703 68.4341 72.7814 71.9716 78.0443C76.4898 84.7273 79.7219 95.3955 78.5353 106.209C81.4841 111.989 84.3025 115.624 87.4326 117.696C90.826 119.96 94.737 120.398 99.6759 119.074C109.559 116.492 121.401 100.492 118.194 80.384C118.059 79.4755 118.641 78.6245 119.55 78.4944C120.463 78.3592 121.309 78.9415 121.444 79.8501C121.912 82.9087 122.122 86.0341 121.938 89.0299C125.827 85.4326 130.968 84.2391 133.508 85.3344C134.358 85.7197 134.685 86.6325 134.366 87.4773C133.975 88.3274 133.068 88.6596 132.218 88.3349C130.654 87.6243 124.803 89.2804 121.829 94.3688C121.704 94.632 121.508 94.7591 121.311 94.8912C120.487 99.3897 118.945 103.755 116.81 107.739C116.68 107.997 116.555 108.26 116.359 108.523C126.56 104.702 138.408 104.652 149.227 108.445C161.549 112.691 170.894 121.379 175.69 132.884ZM140.211 99.8921C140.6 99.8904 140.989 99.7575 141.316 99.4935C144.103 97.0119 146.238 94.1342 147.783 90.6125C153.056 90.5245 163.156 92.8252 164.86 110.985C164.929 111.833 165.649 112.482 166.492 112.478C166.558 112.478 166.624 112.477 166.624 112.477C167.532 112.408 168.181 111.622 168.111 110.714C167.298 102.318 164.665 96.0108 160.289 91.9939C156.563 88.6207 152.392 87.5323 148.941 87.4156C150.098 83.7036 150.796 79.2056 151.161 73.7343C151.223 72.8249 150.568 72.0449 149.659 71.9831C148.75 71.9213 147.97 72.5761 147.908 73.4905C146.992 87.3632 143.697 92.9076 139.093 97.0938C138.444 97.6824 138.383 98.7281 138.972 99.3771C139.296 99.699 139.752 99.894 140.211 99.8921ZM187.928 117.594C190.192 114.262 191.411 110.029 191.457 105.337C191.505 101.104 190.573 96.8153 188.864 92.9134C188.975 88.1603 191.489 81.7051 196.174 81.2914C197.083 81.2219 197.731 80.4413 197.661 79.5275C197.592 78.6187 196.806 77.9705 195.897 78.04C193.423 78.2424 190.829 79.8847 188.886 82.4283C187.916 83.7354 186.818 85.629 186.177 88.1721C182.706 83.106 177.939 79.6109 172.403 78.2051C171.553 77.946 170.646 78.4701 170.388 79.3853C170.134 80.2298 170.658 81.1418 171.568 81.3955C177.822 83.066 181.684 87.277 183.844 90.5911C186.661 94.9429 188.244 100.275 188.139 105.351C188.044 113.882 183.58 120.088 176.229 121.811C175.321 122.011 174.804 122.923 175.005 123.77C175.2 124.547 175.853 125.004 176.571 125.001C176.702 125.001 176.828 125 176.959 124.934C181.642 123.874 185.404 121.317 187.928 117.594ZM261.325 96.4501C255.182 91.3953 248.017 89.4054 240.143 90.5498C234.878 91.2842 229.286 93.5251 224.225 96.9304C224.152 95.1075 223.947 93.2194 223.55 91.3322C221.223 79.6904 212.906 68.2002 205.022 65.7588C204.178 65.5048 203.265 65.9632 202.946 66.808C202.621 67.6578 203.145 68.5647 203.995 68.8894C210.054 70.7527 218.039 80.4867 220.3 91.9975C220.765 94.339 221.039 97.0752 220.854 99.874C220.854 100.005 220.855 100.071 220.855 100.202C220.425 105.931 218.042 112.194 211.554 117.494C210.84 118.083 210.778 119.124 211.367 119.773C211.697 120.166 212.152 120.356 212.607 120.354C213.001 120.352 213.324 120.219 213.651 119.96C219.746 114.919 223.233 108.394 224.045 100.967C229.236 97.1062 235.084 94.4753 240.55 93.735C247.511 92.7308 253.766 94.5276 259.183 98.934C259.903 99.5168 260.943 99.3811 261.465 98.7273C262.109 98.0731 261.979 97.0332 261.325 96.4501ZM223.501 64.1856C228.265 67.0291 228.425 73.8618 225.84 78.7567C225.455 79.5411 225.716 80.5148 226.501 80.9711C226.764 81.0962 227.022 81.1608 227.285 81.1597C227.87 81.1572 228.455 80.8315 228.71 80.3102C229.938 77.9615 230.643 75.2212 230.698 72.5542C234.796 71.8854 239.543 71.8653 243.91 72.4983C249.12 73.254 253.228 74.8023 255.514 76.8735C255.839 77.2004 256.228 77.3301 256.622 77.3284C257.077 77.3265 257.465 77.1279 257.792 76.7982C258.441 76.1439 258.37 75.1038 257.716 74.455C252.225 69.3368 239.724 67.8897 230.421 69.2978C229.822 66.1084 228.118 63.2519 225.115 61.4414C224.336 60.9901 223.357 61.2518 222.84 61.9712C222.52 62.7554 222.782 63.729 223.501 64.1856ZM163.888 158.197C161.963 149.74 157.968 143.701 152.029 140.211C143.092 134.971 130.991 136.194 119.548 138.98C121.301 137.735 123.118 136.424 124.865 134.983C125.579 134.394 125.641 133.353 125.118 132.704C124.529 131.989 123.488 131.933 122.839 132.456C116.482 137.624 110.25 141.297 103.946 143.536L103.23 143.736C103.099 143.737 103.033 143.802 102.968 143.868C97.8335 145.582 92.6295 146.321 87.4217 146.146C77.3999 145.8 69.247 141.925 63.311 139.152C62.4659 138.767 61.4875 139.094 61.1678 139.944C60.7825 140.789 61.1099 141.768 61.9597 142.087C68.3461 145.055 77.6729 149.445 89.2587 149.396C93.8798 149.377 98.8263 148.639 104.092 146.924C104.152 146.924 104.218 146.924 104.218 146.858L105.262 146.525C119.299 142.107 138.541 136.036 150.349 143.016C155.503 146.055 158.848 151.183 160.637 158.731C157.777 159.394 155.241 160.577 153.62 161.887C152.906 162.475 152.844 163.516 153.433 164.165C153.763 164.553 154.218 164.748 154.673 164.746C155.062 164.744 155.39 164.611 155.712 164.347C159.411 161.271 167.868 160.715 168.978 161.69C169.633 162.339 170.673 162.335 171.322 161.68C171.97 161.026 171.966 159.986 171.312 159.337C169.679 157.844 166.099 157.99 163.888 158.197ZM131.768 165.686C135.21 163.914 138.518 161.688 141.567 158.877C142.216 158.288 142.272 157.243 141.623 156.594C141.034 155.945 139.989 155.889 139.345 156.538C134.611 160.922 128.962 163.809 123.697 165.655C123.565 165.655 123.5 165.721 123.434 165.721C118.104 167.567 113.097 168.371 109.649 168.775C99.5676 169.863 89.7336 168.536 85.2255 165.429C84.5111 164.911 83.4665 165.113 82.9493 165.827C82.4322 166.547 82.6336 167.591 83.3529 168.108C87.4001 170.889 94.6948 172.485 102.897 172.45C105.175 172.44 107.583 172.299 109.991 172.031C113.631 171.627 118.834 170.756 124.422 168.844C133.601 168.088 142.593 170.979 147.954 176.3C151.941 180.318 153.72 185.321 153.159 191.318C153.097 192.228 153.752 193.008 154.661 193.069C154.727 193.069 154.793 193.069 154.793 193.069C155.641 193.065 156.351 192.411 156.413 191.562C157.035 184.66 154.863 178.614 150.222 173.942C145.774 169.47 139.059 166.504 131.768 165.686ZM135.663 194.776C126.922 190.252 126.97 186.086 127.013 180.747C127.011 180.292 127.009 179.772 127.007 179.318C127.003 178.403 126.283 177.689 125.374 177.693C124.46 177.697 123.751 178.417 123.754 179.331C123.756 179.786 123.758 180.24 123.761 180.761C123.706 183.301 123.717 185.973 124.769 188.635C112.628 196.045 100.01 198.119 88.0865 194.649C77.2648 191.442 69.2951 184.314 65.4328 178.664C64.9095 177.949 63.9289 177.761 63.1531 178.219C62.4381 178.742 62.2453 179.718 62.7082 180.499C68.1408 188.42 77.2134 194.827 87.12 197.78C90.6395 198.805 94.8751 199.57 99.7539 199.549C107.37 199.517 116.412 197.524 126.276 191.493C127.85 193.637 130.268 195.708 134.181 197.712C134.439 197.842 134.702 197.906 134.959 197.905C135.545 197.903 136.13 197.572 136.39 196.985C136.776 196.206 136.514 195.161 135.663 194.776ZM229.3 142.031C215.114 143.525 206.296 150.658 202.96 163.238C201.388 160.447 199.362 157.915 196.944 155.84C191.586 151.175 185.133 149.182 178.692 150.189C177.784 150.325 177.202 151.17 177.337 152.084C177.467 152.993 178.318 153.575 179.226 153.44C184.692 152.573 190.23 154.307 194.803 158.323C200.227 163.119 203.51 170.332 203.348 177.303C203.352 178.212 204.006 178.926 204.916 178.988L204.981 178.988C205.89 178.984 206.604 178.264 206.601 177.415C206.654 174.42 206.187 171.427 205.26 168.567C206.212 161.79 208.659 156.441 212.486 152.647C216.505 148.661 222.287 146.227 229.637 145.413C230.546 145.344 231.194 144.497 231.064 143.649C230.929 142.807 230.209 141.961 229.3 142.031ZM255.701 105.393C255.047 104.81 254.007 104.88 253.423 105.534L246.426 113.377C241.661 110.271 238.501 102.34 238.435 102.274C238.108 101.432 237.132 101.042 236.35 101.374C235.508 101.701 235.118 102.677 235.45 103.459C235.578 103.852 239.003 112.363 244.68 116.117C241.513 122.054 237.175 126.76 231.719 130.04C226.722 133.122 220.74 135.037 213.975 135.717C201.551 137.007 188.845 133.803 181.802 130.706C180.952 130.321 179.979 130.714 179.659 131.564C179.269 132.409 179.667 133.387 180.512 133.707C187.1 136.608 197.394 139.368 208.329 139.321C210.344 139.313 212.298 139.239 214.317 139.033C229.927 137.407 241.677 129.609 248.197 116.491L255.903 107.802C256.42 107.082 256.35 106.042 255.701 105.393ZM88.0573 64.8245C92.1682 67.1506 95.7103 73.5145 97.2394 81.5838C99.0364 90.8844 97.7046 99.6174 93.7551 104.387C93.1722 105.101 93.308 106.146 93.9617 106.664C94.286 106.92 94.6149 107.05 95.0037 107.048C95.4583 107.046 95.912 106.852 96.2386 106.457C101.615 99.8585 101.892 88.9834 100.363 80.9848C98.6276 71.8758 94.5623 64.797 89.5403 62.0152C88.7606 61.5639 87.7819 61.8257 87.331 62.6761C87.0108 63.3946 87.2725 64.3682 88.0573 64.8245Z" fill="#9E3030"/>
<path d="M59.7317 231.366C60.1895 232.141 59.8704 233.123 59.0895 233.58C58.8325 233.713 58.5701 233.78 58.3126 233.781C57.7267 233.783 57.1395 233.457 56.8746 232.938C51.952 223.777 46.945 209.02 41.9769 189.117C39.7672 189.712 37.2341 190.243 34.3062 190.584C34.2406 190.584 34.1749 190.584 34.1092 190.585C33.2658 190.588 32.6118 190.005 32.4769 189.157C32.3417 188.244 32.99 187.463 33.8985 187.328C35.9176 187.057 38.4563 186.657 41.1199 185.929C38.8017 176.368 36.6108 165.897 34.4787 154.966C33.2416 155.037 32.0096 155.108 30.8379 155.113C27.3884 155.128 24.2605 154.747 22.1099 153.781C21.2598 153.396 20.9324 152.418 21.318 151.633C21.7033 150.788 22.6817 150.456 23.4611 150.846C25.7433 151.877 29.6532 152.058 33.8137 151.777C32.4178 144.167 31.0817 136.359 29.8761 128.354C29.3405 124.71 28.8048 121.066 28.2695 117.487C24.2998 117.504 20.1318 117.198 17.3297 116.231C16.4801 115.977 16.0214 114.999 16.2754 114.154C16.5345 113.305 17.5073 112.846 18.3569 113.105C20.5063 113.808 24.0231 114.187 27.8009 114.171C26.253 102.849 25.0355 92.0461 24.1505 82.2164C22.9134 82.2873 21.6763 82.3582 20.5702 82.3629C18.8127 82.3703 17.1861 82.3115 15.8823 82.1201C14.9726 81.9926 14.3832 81.1517 14.5059 80.3026C14.6333 79.393 15.4793 78.8035 16.3233 78.9313C18.3446 79.1803 21.0115 79.2347 23.8743 79.0256C22.0209 56.3766 22.0783 38.9266 24.2549 30.5183C24.5139 29.6687 25.3551 29.145 26.2701 29.3381C27.1146 29.5971 27.6384 30.4384 27.4504 31.3533C25.3984 39.3671 25.3399 56.5595 27.1914 78.754C32.4616 78.1458 37.6634 76.8864 40.0002 75.3108C40.7152 74.7876 41.7564 74.9802 42.2796 75.6951C42.8029 76.4101 42.6154 77.4513 41.9004 77.9745C38.9797 80.0071 33.1923 81.3296 27.5334 82.0051C28.419 91.9661 29.6365 102.769 31.1847 114.157C36.9765 113.87 42.7653 112.87 44.7743 111.427C45.4893 110.904 46.5303 111.031 47.0535 111.746C47.5767 112.461 47.4498 113.502 46.7399 114.025C43.4925 116.448 35.8186 117.132 32.6931 117.337C32.3699 117.339 32.0419 117.406 31.653 117.407C32.1222 120.86 32.6573 124.373 33.1923 127.886C34.4639 135.951 35.8002 143.824 37.1961 151.44C42.3398 150.766 47.279 149.508 49.4853 148.13C50.2662 147.672 51.2418 147.865 51.7653 148.641C52.2231 149.422 52.0353 150.397 51.2547 150.921C48.726 152.497 43.3937 153.949 37.8614 154.69C39.9273 165.489 42.0514 175.702 44.3029 185.006C47.7469 183.688 50.9962 181.72 52.9335 178.848C53.4555 178.063 54.4294 177.867 55.2094 178.384C55.9287 178.901 56.1955 179.875 55.6786 180.66C53.9972 183.142 50.8833 186.084 45.0995 188.255C49.8671 207.316 54.9414 222.462 59.7317 231.366ZM308.949 61.2835C305.942 58.3012 296.626 56.583 293.826 56.1403C293.629 56.0755 293.371 56.0766 293.108 56.012C293.041 55.5527 293.039 55.0325 292.976 54.5126C292.907 53.8614 292.905 53.2098 292.836 52.5586C292.835 52.2354 292.768 51.8468 292.766 51.5185C292.696 50.4127 292.56 49.3729 292.49 48.2671C292.489 48.1358 292.489 48.0701 292.488 47.9388C292.423 46.8987 292.288 45.9245 292.218 44.8793C292.217 44.6874 292.151 44.4907 292.15 44.2937C292.149 44.1018 292.082 43.9051 292.081 43.6425C298.523 43.0294 303.723 41.2498 306.577 39.0255C307.292 38.5023 307.414 37.4563 306.891 36.7464C306.367 36.0314 305.327 35.9045 304.612 36.4278C302.603 38.0019 298.055 39.7788 291.744 40.3914C291.473 38.241 291.267 36.0954 291 33.8843C290.999 33.6874 290.933 33.5563 290.932 33.3594C290.796 32.3852 290.661 31.4766 290.531 30.4974C290.464 30.1744 290.462 29.8462 290.395 29.5232C290.26 28.6753 290.191 27.8321 290.056 26.9842C289.994 26.6612 289.993 26.333 289.926 26.01C289.79 24.8388 289.588 23.7286 289.452 22.5574C289.322 21.7145 288.602 21.1317 287.754 21.201C287.693 21.2012 287.628 21.2015 287.562 21.2018C287.496 21.202 287.431 21.2023 287.365 21.2026C286.583 21.3978 286.001 22.1831 286.135 23.0311C286.27 23.8739 286.406 24.7875 286.54 25.6304C286.602 25.8928 286.603 26.1503 286.67 26.347C286.738 26.9983 286.872 27.7149 286.941 28.3661C286.942 28.558 287.008 28.8204 287.009 29.0173C287.144 29.8602 287.208 30.7084 287.344 31.617C287.344 31.7483 287.41 31.8793 287.411 32.0763C287.48 32.7881 287.614 33.5704 287.683 34.2873C287.684 34.4842 287.75 34.6759 287.752 34.9385C287.951 36.6953 288.155 38.452 288.355 40.2087C288.355 40.2744 288.355 40.3401 288.355 40.4057C288.356 40.4714 288.356 40.4714 288.356 40.537C285.104 40.6114 281.522 40.369 277.681 39.6681C276.771 39.4749 275.925 40.0644 275.797 40.9791C275.609 41.889 276.199 42.735 277.108 42.8624C280.692 43.4988 284.143 43.8074 287.329 43.7939C287.789 43.792 288.244 43.7901 288.698 43.7881C289.104 47.7562 289.448 51.5982 289.722 55.4405C285.685 54.998 280.153 54.6982 276.84 55.8839C275.993 56.2158 275.542 57.1268 275.869 57.9739C276.201 58.816 277.112 59.2667 277.959 58.9398C280.168 58.1477 284.658 58.1286 289.999 58.7576C290.345 64.2915 290.631 69.6944 290.719 74.9012C285.89 72.3206 281.981 71.226 281.718 71.1665C280.873 70.9074 279.961 71.4315 279.707 72.2811C279.448 73.1256 279.972 74.0376 280.822 74.2915C280.888 74.2913 285.449 75.575 290.735 78.6789C290.851 90.724 290.247 101.989 288.923 112.414C282.408 111.336 276.22 109.928 276.154 109.862C275.244 109.674 274.398 110.198 274.21 111.108C274.017 111.957 274.541 112.864 275.451 113.057C275.911 113.187 282.033 114.59 288.548 115.668C286.84 127.529 284.734 138.215 281.134 147.933C279.507 147.808 277.486 147.685 276.314 147.498C275.404 147.305 274.558 147.895 274.37 148.805C274.177 149.72 274.766 150.561 275.676 150.754C276.657 150.946 278.476 151.196 279.911 151.322C277.151 160.45 268.228 175.008 260.194 183.638C256.019 180.595 252.422 176.832 252.15 174.424C252.014 173.511 251.234 172.867 250.32 172.998C249.412 173.133 248.764 173.918 248.899 174.827C249.436 178.865 254.012 183.79 257.473 186.316C254.112 191.8 240.604 199.605 231.245 201.922C230.188 199.063 228.939 195.033 228.982 191.058C228.978 190.149 228.263 189.435 227.349 189.438C226.44 189.442 225.726 190.163 225.73 191.072C225.683 195.435 226.549 199.599 227.668 202.786C226.498 203.18 225.459 203.447 223.959 203.453C213.289 203.887 202.877 204.451 193.575 205.794C193.759 202.864 194.591 200.188 195.953 198.556C196.536 197.902 196.466 196.862 195.746 196.279C195.092 195.696 194.052 195.766 193.469 196.486C191.203 199.097 190.31 202.944 190.259 206.394C186.878 206.994 183.623 207.659 180.632 208.586C167.113 212.547 159.789 219.482 158.201 229.772C156.241 242.871 158.169 252.106 160.675 260.56C155.005 258.761 150.308 256.371 148.415 254.233C147.826 253.518 146.781 253.457 146.137 254.046C145.488 254.634 145.361 255.675 145.949 256.324C148.497 259.243 154.434 262.218 161.796 264.267C161.863 264.53 161.93 264.721 161.996 264.984C165.033 274.865 167.937 284.231 165.591 299.216C165.463 300.126 166.053 300.972 166.967 301.099C167.033 301.099 167.159 301.099 167.225 301.098C168.008 301.095 168.723 300.506 168.846 299.723C171.191 284.672 168.416 274.659 165.513 265.226C169.097 265.994 172.417 266.435 175.083 266.423C177.104 266.415 178.795 266.216 180.03 265.751C180.872 265.424 181.328 264.513 180.996 263.666C180.669 262.819 179.753 262.368 178.911 262.7C176.243 263.62 170.646 263.255 164.326 261.651C161.621 252.677 159.371 243.767 161.395 230.284C162.786 221.227 169.14 215.337 181.493 211.704C184.222 210.914 187.215 210.25 190.399 209.716C190.603 211.407 191.404 215.571 193.82 217.318C194.079 217.514 194.408 217.639 194.731 217.637C195.251 217.635 195.77 217.375 196.096 216.92C196.614 216.2 196.412 215.161 195.693 214.638C194.978 214.121 194.056 212.236 193.655 209.309C193.655 209.243 193.655 209.243 193.655 209.177C203.083 207.774 213.823 207.208 224.236 206.836C225.599 206.764 227.296 206.631 229.112 206.295C231.215 210.256 233.894 213.113 236.377 215.183C236.702 215.445 237.031 215.575 237.419 215.573C237.874 215.571 238.328 215.372 238.654 214.982C239.237 214.262 239.101 213.217 238.448 212.7C236.426 211.082 234.264 208.748 232.499 205.695C235.945 204.832 239.909 203.451 244.258 201.216C250.426 198.068 256.201 193.746 261.451 188.451C266.54 191.424 270.909 192.704 273.121 192.694C273.252 192.694 273.318 192.693 273.444 192.693C274.358 192.623 275.006 191.843 275.002 190.929C274.933 190.02 274.147 189.372 273.238 189.376C271.678 189.513 267.961 188.226 263.784 185.966C264.629 185.048 265.468 184.07 266.312 183.026C273.433 174.4 279.247 163.89 283.685 151.634C284.144 151.632 284.599 151.63 285.053 151.628C288.114 151.615 291.169 151.405 293.383 150.81C294.226 150.609 294.808 149.698 294.547 148.851C294.346 148.008 293.43 147.426 292.587 147.687C290.635 148.15 287.707 148.425 284.782 148.372C287.091 141.463 288.949 134.096 290.415 126.146C290.988 122.951 291.494 119.762 291.935 116.437C294.735 116.819 297.402 117.065 299.554 117.056C300.14 117.054 300.725 117.051 301.18 116.984C302.089 116.914 302.737 116.134 302.667 115.22C302.598 114.311 301.817 113.663 300.903 113.732C298.823 113.933 295.696 113.623 292.376 113.183C293.571 103.147 294.111 92.4022 294.129 81.0737C296.084 82.4998 298.046 84.1178 299.746 86.0651C300.076 86.4526 300.531 86.582 300.985 86.5801C301.374 86.5784 301.768 86.4455 302.09 86.1815C302.739 85.5929 302.8 84.5522 302.211 83.9032C299.725 81.1157 296.852 78.85 294.112 77.104C294.022 71.372 293.8 65.5143 293.386 59.4604C300.81 60.6664 305.505 62.5354 306.747 63.7019C307.072 64.0238 307.466 64.1534 307.921 64.1515C308.31 64.1498 308.764 64.0166 309.091 63.692C309.608 62.9726 309.603 61.9322 308.949 61.2835ZM139.949 37.9075C139.948 37.5187 140.012 37.1244 140.07 36.7353C143.521 36.852 147.036 36.8371 150.551 36.8223C159.859 36.7829 169.297 36.4146 178.728 35.6575C180.588 44.377 180.433 52.9738 180.433 53.1C180.437 54.0142 181.152 54.7283 182.001 54.7904L182.067 54.7901C182.976 54.7862 183.69 54.066 183.686 53.2176C183.683 52.3741 183.848 45.0148 182.248 36.6881C182.18 36.2288 182.052 35.8404 181.984 35.3862C184.913 35.1111 187.906 34.8409 190.829 34.5002C201.37 33.3495 211.843 31.8102 222.381 29.8111C225.199 34.6174 227.366 39.5578 227.445 42.5524C227.448 43.4615 228.169 44.1756 229.078 44.1718C229.992 44.1679 230.701 43.3821 230.697 42.473C230.622 39.2157 228.581 34.1485 225.762 29.1452C236.752 26.9472 247.741 24.2996 258.597 21.2587C262.714 24.9534 267.682 30.5941 270.514 38.461C270.779 39.1114 271.367 39.5635 272.084 39.5604C272.276 39.5596 272.473 39.5588 272.604 39.4926C273.446 39.1658 273.902 38.2497 273.57 37.4076C271.065 30.3879 266.94 24.6729 262.3 20.2026C264.968 19.4085 267.697 18.6141 270.365 17.7594C271.208 17.4932 271.724 16.5768 271.463 15.7345C271.197 14.8871 270.285 14.3708 269.438 14.637C266.124 15.6914 262.81 16.6802 259.491 17.6084C253.221 12.4278 246.375 9.39614 241.487 8.30571C240.577 8.11764 239.736 8.70706 239.542 9.55133C239.349 10.4663 239.939 11.3072 240.788 11.5006C245.479 12.5212 250.824 15.1047 255.592 18.731C245.124 21.639 234.594 24.0927 224.057 26.1575C220.976 21.3523 217.377 17.0038 214.313 15.0016C213.528 14.4797 212.554 14.7464 212.037 15.4658C211.515 16.2458 211.782 17.2245 212.501 17.7416C214.978 19.3574 217.922 22.7996 220.61 26.7579C210.593 28.6236 200.578 30.0953 190.623 31.1829C187.564 31.5191 184.439 31.7949 181.385 32.0654C179.532 25.1085 176.712 20.0396 172.988 17.0604C172.268 16.4776 171.228 16.6133 170.711 17.3327C170.194 18.052 170.264 19.0921 170.983 19.6093C174.51 22.3924 176.743 27.2012 178.128 32.3418C165.314 33.4365 152.75 33.7523 140.385 33.4764C141.138 27.5489 142.356 23.1194 143.719 21.6136C144.302 20.9596 144.232 19.9195 143.578 19.3364C142.924 18.7533 141.884 18.8234 141.3 19.4774C140.134 20.7803 138.199 24.2431 137.127 33.4245C132.768 33.3167 128.469 33.0722 124.175 32.7672C116.425 32.2141 108.81 31.4635 101.382 30.3889C104.024 23.4736 106.932 18.5117 109.525 16.6169C110.24 16.0886 110.433 15.0473 109.844 14.3327C109.321 13.6227 108.274 13.4302 107.565 14.0191C103.477 17.0314 100.124 24.5305 98.0614 29.9433C89.9199 28.7454 82.1052 27.2128 74.8703 25.4202C72.9845 24.9736 71.0934 24.4614 69.268 23.949C72.4375 19.8294 76.5901 16.4936 81.8553 14.7137C82.7027 14.4475 83.1534 13.5365 82.8869 12.6235C82.6258 11.7812 81.7097 11.3305 80.8017 11.5919C74.4318 13.7048 69.505 17.8923 65.8801 22.9835C57.9964 20.6734 51.41 18.1608 47.0359 15.7096C46.2562 15.2533 45.2778 15.5857 44.8265 16.3654C44.3753 17.1502 44.7077 18.1286 45.4874 18.5798C49.8612 20.9705 56.377 23.4833 64.0687 25.7942C60.7739 31.3385 58.8459 37.5993 58.091 43.0066C57.9635 43.9213 58.6183 44.6963 59.4623 44.824C59.528 44.8238 59.5936 44.8235 59.7249 44.8229C60.5027 44.8196 61.2174 44.2308 61.3451 43.3817C62.1056 38.1057 64.0292 31.9763 67.325 26.6895C69.545 27.3317 71.7596 27.9082 74.1055 28.4841C81.2694 30.2114 88.9578 31.7445 96.968 32.9429C94.3993 40.5751 92.6756 48.5876 92.4993 53.4722C92.5032 54.3863 93.2234 55.1005 94.0671 55.1626C94.0671 55.1626 94.0671 55.1626 94.1328 55.1623C95.0469 55.1584 95.756 54.4382 95.7524 53.5898C95.8641 48.968 97.6532 40.8846 100.223 33.5201C107.91 34.5936 115.853 35.4691 123.926 36.0208C128.16 36.3312 132.458 36.5049 136.752 36.6837C136.753 37.0069 136.689 37.4011 136.691 37.7244C136.138 45.5399 136.369 53.6148 137.362 57.843C137.562 58.6199 138.216 59.0768 138.933 59.0737C139.059 59.0732 139.19 59.0726 139.321 59.0064C140.23 58.8056 140.746 57.8943 140.55 57.0466C139.686 53.2068 139.395 45.3342 139.949 37.9075ZM187.117 233.69C179.251 235.547 167.779 231.555 165.556 228.897C164.967 228.183 163.921 228.122 163.277 228.71C162.563 229.299 162.501 230.345 163.09 230.989C164.724 232.936 168.702 234.874 173.46 236.157C175.609 236.734 179.127 237.436 182.905 237.42C184.597 237.413 186.288 237.274 187.979 236.873C188.887 236.678 189.403 235.761 189.208 234.919C188.876 234.006 187.964 233.49 187.117 233.69Z" fill="#A94744"/>
</svg>
